G75*
G70*
%OFA0B0*%
%FSLAX25Y25*%
%IPPOS*%
%LPD*%
%AMOC8*
5,1,8,0,0,1.08239X$1,22.5*
%
%ADD10C,0.06000*%
%ADD11C,0.06693*%
%ADD12C,0.05906*%
%ADD13C,0.27559*%
%ADD14C,0.07087*%
%ADD15C,0.07874*%
%ADD16O,0.07283X0.06693*%
%ADD21C,0.03937*%
%ADD24C,0.13780*%
%ADD36O,0.06693X0.06693*%
X0000000Y0000000D02*
%LPD*%
G01*
D10*
X0119094Y0492500D03*
G36*
G01*
X0121555Y0494291D02*
X0116634Y0494291D01*
G75*
G02*
X0116240Y0494685I0000000J0000394D01*
G01*
X0116240Y0497835D01*
G75*
G02*
X0116634Y0498228I0000394J0000000D01*
G01*
X0121555Y0498228D01*
G75*
G02*
X0121949Y0497835I0000000J-000394D01*
G01*
X0121949Y0494685D01*
G75*
G02*
X0121555Y0494291I-000394J0000000D01*
G01*
G37*
G36*
G01*
X0121555Y0501772D02*
X0116634Y0501772D01*
G75*
G02*
X0116240Y0502165I0000000J0000394D01*
G01*
X0116240Y0505315D01*
G75*
G02*
X0116634Y0505709I0000394J0000000D01*
G01*
X0121555Y0505709D01*
G75*
G02*
X0121949Y0505315I0000000J-000394D01*
G01*
X0121949Y0502165D01*
G75*
G02*
X0121555Y0501772I-000394J0000000D01*
G01*
G37*
X0119094Y0507500D03*
X0095472Y0492500D03*
G36*
G01*
X0097933Y0494291D02*
X0093012Y0494291D01*
G75*
G02*
X0092618Y0494685I0000000J0000394D01*
G01*
X0092618Y0497835D01*
G75*
G02*
X0093012Y0498228I0000394J0000000D01*
G01*
X0097933Y0498228D01*
G75*
G02*
X0098327Y0497835I0000000J-000394D01*
G01*
X0098327Y0494685D01*
G75*
G02*
X0097933Y0494291I-000394J0000000D01*
G01*
G37*
G36*
G01*
X0097933Y0501772D02*
X0093012Y0501772D01*
G75*
G02*
X0092618Y0502165I0000000J0000394D01*
G01*
X0092618Y0505315D01*
G75*
G02*
X0093012Y0505709I0000394J0000000D01*
G01*
X0097933Y0505709D01*
G75*
G02*
X0098327Y0505315I0000000J-000394D01*
G01*
X0098327Y0502165D01*
G75*
G02*
X0097933Y0501772I-000394J0000000D01*
G01*
G37*
X0095472Y0507500D03*
D11*
X0187992Y0460630D03*
D10*
X0466535Y0492500D03*
G36*
G01*
X0468996Y0494291D02*
X0464075Y0494291D01*
G75*
G02*
X0463681Y0494685I0000000J0000394D01*
G01*
X0463681Y0497835D01*
G75*
G02*
X0464075Y0498228I0000394J0000000D01*
G01*
X0468996Y0498228D01*
G75*
G02*
X0469390Y0497835I0000000J-000394D01*
G01*
X0469390Y0494685D01*
G75*
G02*
X0468996Y0494291I-000394J0000000D01*
G01*
G37*
G36*
G01*
X0468996Y0501772D02*
X0464075Y0501772D01*
G75*
G02*
X0463681Y0502165I0000000J0000394D01*
G01*
X0463681Y0505315D01*
G75*
G02*
X0464075Y0505709I0000394J0000000D01*
G01*
X0468996Y0505709D01*
G75*
G02*
X0469390Y0505315I0000000J-000394D01*
G01*
X0469390Y0502165D01*
G75*
G02*
X0468996Y0501772I-000394J0000000D01*
G01*
G37*
X0466535Y0507500D03*
D11*
X0076772Y0074803D03*
X0427165Y0460630D03*
D10*
X0454724Y0492500D03*
G36*
G01*
X0457185Y0494291D02*
X0452264Y0494291D01*
G75*
G02*
X0451870Y0494685I0000000J0000394D01*
G01*
X0451870Y0497835D01*
G75*
G02*
X0452264Y0498228I0000394J0000000D01*
G01*
X0457185Y0498228D01*
G75*
G02*
X0457579Y0497835I0000000J-000394D01*
G01*
X0457579Y0494685D01*
G75*
G02*
X0457185Y0494291I-000394J0000000D01*
G01*
G37*
G36*
G01*
X0457185Y0501772D02*
X0452264Y0501772D01*
G75*
G02*
X0451870Y0502165I0000000J0000394D01*
G01*
X0451870Y0505315D01*
G75*
G02*
X0452264Y0505709I0000394J0000000D01*
G01*
X0457185Y0505709D01*
G75*
G02*
X0457579Y0505315I0000000J-000394D01*
G01*
X0457579Y0502165D01*
G75*
G02*
X0457185Y0501772I-000394J0000000D01*
G01*
G37*
X0454724Y0507500D03*
X0187992Y0492500D03*
G36*
G01*
X0190453Y0494291D02*
X0185531Y0494291D01*
G75*
G02*
X0185138Y0494685I0000000J0000394D01*
G01*
X0185138Y0497835D01*
G75*
G02*
X0185531Y0498228I0000394J0000000D01*
G01*
X0190453Y0498228D01*
G75*
G02*
X0190846Y0497835I0000000J-000394D01*
G01*
X0190846Y0494685D01*
G75*
G02*
X0190453Y0494291I-000394J0000000D01*
G01*
G37*
G36*
G01*
X0190453Y0501772D02*
X0185531Y0501772D01*
G75*
G02*
X0185138Y0502165I0000000J0000394D01*
G01*
X0185138Y0505315D01*
G75*
G02*
X0185531Y0505709I0000394J0000000D01*
G01*
X0190453Y0505709D01*
G75*
G02*
X0190846Y0505315I0000000J-000394D01*
G01*
X0190846Y0502165D01*
G75*
G02*
X0190453Y0501772I-000394J0000000D01*
G01*
G37*
X0187992Y0507500D03*
X0491142Y0460630D03*
G36*
G01*
X0493602Y0462421D02*
X0488681Y0462421D01*
G75*
G02*
X0488287Y0462815I0000000J0000394D01*
G01*
X0488287Y0465965D01*
G75*
G02*
X0488681Y0466358I0000394J0000000D01*
G01*
X0493602Y0466358D01*
G75*
G02*
X0493996Y0465965I0000000J-000394D01*
G01*
X0493996Y0462815D01*
G75*
G02*
X0493602Y0462421I-000394J0000000D01*
G01*
G37*
G36*
G01*
X0493602Y0469902D02*
X0488681Y0469902D01*
G75*
G02*
X0488287Y0470295I0000000J0000394D01*
G01*
X0488287Y0473445D01*
G75*
G02*
X0488681Y0473839I0000394J0000000D01*
G01*
X0493602Y0473839D01*
G75*
G02*
X0493996Y0473445I0000000J-000394D01*
G01*
X0493996Y0470295D01*
G75*
G02*
X0493602Y0469902I-000394J0000000D01*
G01*
G37*
X0491142Y0475630D03*
X0156496Y0460630D03*
G36*
G01*
X0158957Y0462421D02*
X0154035Y0462421D01*
G75*
G02*
X0153642Y0462815I0000000J0000394D01*
G01*
X0153642Y0465965D01*
G75*
G02*
X0154035Y0466358I0000394J0000000D01*
G01*
X0158957Y0466358D01*
G75*
G02*
X0159350Y0465965I0000000J-000394D01*
G01*
X0159350Y0462815D01*
G75*
G02*
X0158957Y0462421I-000394J0000000D01*
G01*
G37*
G36*
G01*
X0158957Y0469902D02*
X0154035Y0469902D01*
G75*
G02*
X0153642Y0470295I0000000J0000394D01*
G01*
X0153642Y0473445D01*
G75*
G02*
X0154035Y0473839I0000394J0000000D01*
G01*
X0158957Y0473839D01*
G75*
G02*
X0159350Y0473445I0000000J-000394D01*
G01*
X0159350Y0470295D01*
G75*
G02*
X0158957Y0469902I-000394J0000000D01*
G01*
G37*
X0156496Y0475630D03*
D11*
X0053150Y0460630D03*
D10*
X0531496Y0457067D03*
G36*
G01*
X0533957Y0458858D02*
X0529035Y0458858D01*
G75*
G02*
X0528642Y0459252I0000000J0000394D01*
G01*
X0528642Y0462402D01*
G75*
G02*
X0529035Y0462795I0000394J0000000D01*
G01*
X0533957Y0462795D01*
G75*
G02*
X0534350Y0462402I0000000J-000394D01*
G01*
X0534350Y0459252D01*
G75*
G02*
X0533957Y0458858I-000394J0000000D01*
G01*
G37*
G36*
G01*
X0533957Y0466339D02*
X0529035Y0466339D01*
G75*
G02*
X0528642Y0466732I0000000J0000394D01*
G01*
X0528642Y0469882D01*
G75*
G02*
X0529035Y0470276I0000394J0000000D01*
G01*
X0533957Y0470276D01*
G75*
G02*
X0534350Y0469882I0000000J-000394D01*
G01*
X0534350Y0466732D01*
G75*
G02*
X0533957Y0466339I-000394J0000000D01*
G01*
G37*
X0531496Y0472067D03*
D11*
X0551181Y0458661D03*
X0076772Y0035433D03*
D10*
X0083661Y0460630D03*
G36*
G01*
X0086122Y0462421D02*
X0081201Y0462421D01*
G75*
G02*
X0080807Y0462815I0000000J0000394D01*
G01*
X0080807Y0465965D01*
G75*
G02*
X0081201Y0466358I0000394J0000000D01*
G01*
X0086122Y0466358D01*
G75*
G02*
X0086516Y0465965I0000000J-000394D01*
G01*
X0086516Y0462815D01*
G75*
G02*
X0086122Y0462421I-000394J0000000D01*
G01*
G37*
G36*
G01*
X0086122Y0469902D02*
X0081201Y0469902D01*
G75*
G02*
X0080807Y0470295I0000000J0000394D01*
G01*
X0080807Y0473445D01*
G75*
G02*
X0081201Y0473839I0000394J0000000D01*
G01*
X0086122Y0473839D01*
G75*
G02*
X0086516Y0473445I0000000J-000394D01*
G01*
X0086516Y0470295D01*
G75*
G02*
X0086122Y0469902I-000394J0000000D01*
G01*
G37*
X0083661Y0475630D03*
X0130906Y0492500D03*
G36*
G01*
X0133366Y0494291D02*
X0128445Y0494291D01*
G75*
G02*
X0128051Y0494685I0000000J0000394D01*
G01*
X0128051Y0497835D01*
G75*
G02*
X0128445Y0498228I0000394J0000000D01*
G01*
X0133366Y0498228D01*
G75*
G02*
X0133760Y0497835I0000000J-000394D01*
G01*
X0133760Y0494685D01*
G75*
G02*
X0133366Y0494291I-000394J0000000D01*
G01*
G37*
G36*
G01*
X0133366Y0501772D02*
X0128445Y0501772D01*
G75*
G02*
X0128051Y0502165I0000000J0000394D01*
G01*
X0128051Y0505315D01*
G75*
G02*
X0128445Y0505709I0000394J0000000D01*
G01*
X0133366Y0505709D01*
G75*
G02*
X0133760Y0505315I0000000J-000394D01*
G01*
X0133760Y0502165D01*
G75*
G02*
X0133366Y0501772I-000394J0000000D01*
G01*
G37*
X0130906Y0507500D03*
D11*
X0120079Y0460630D03*
D10*
X0156496Y0492500D03*
G36*
G01*
X0158957Y0494291D02*
X0154035Y0494291D01*
G75*
G02*
X0153642Y0494685I0000000J0000394D01*
G01*
X0153642Y0497835D01*
G75*
G02*
X0154035Y0498228I0000394J0000000D01*
G01*
X0158957Y0498228D01*
G75*
G02*
X0159350Y0497835I0000000J-000394D01*
G01*
X0159350Y0494685D01*
G75*
G02*
X0158957Y0494291I-000394J0000000D01*
G01*
G37*
G36*
G01*
X0158957Y0501772D02*
X0154035Y0501772D01*
G75*
G02*
X0153642Y0502165I0000000J0000394D01*
G01*
X0153642Y0505315D01*
G75*
G02*
X0154035Y0505709I0000394J0000000D01*
G01*
X0158957Y0505709D01*
G75*
G02*
X0159350Y0505315I0000000J-000394D01*
G01*
X0159350Y0502165D01*
G75*
G02*
X0158957Y0501772I-000394J0000000D01*
G01*
G37*
X0156496Y0507500D03*
G36*
G01*
X0368071Y0482087D02*
X0372087Y0482087D01*
G75*
G02*
X0372441Y0481732I0000000J-000354D01*
G01*
X0372441Y0478898D01*
G75*
G02*
X0372087Y0478543I-000354J0000000D01*
G01*
X0368071Y0478543D01*
G75*
G02*
X0367717Y0478898I0000000J0000354D01*
G01*
X0367717Y0481732D01*
G75*
G02*
X0368071Y0482087I0000354J0000000D01*
G01*
G37*
G36*
G01*
X0368071Y0469094D02*
X0372087Y0469094D01*
G75*
G02*
X0372441Y0468740I0000000J-000354D01*
G01*
X0372441Y0465906D01*
G75*
G02*
X0372087Y0465551I-000354J0000000D01*
G01*
X0368071Y0465551D01*
G75*
G02*
X0367717Y0465906I0000000J0000354D01*
G01*
X0367717Y0468740D01*
G75*
G02*
X0368071Y0469094I0000354J0000000D01*
G01*
G37*
D21*
X0045276Y0315197D03*
X0080709Y0315197D03*
G36*
G01*
X0054134Y0328740D02*
X0054134Y0332677D01*
G75*
G02*
X0055118Y0333661I0000984J0000000D01*
G01*
X0059055Y0333661D01*
G75*
G02*
X0060039Y0332677I0000000J-000984D01*
G01*
X0060039Y0328740D01*
G75*
G02*
X0059055Y0327756I-000984J0000000D01*
G01*
X0055118Y0327756D01*
G75*
G02*
X0054134Y0328740I0000000J0000984D01*
G01*
G37*
D12*
X0068898Y0330709D03*
X0057087Y0318898D03*
X0068898Y0318898D03*
D10*
X0478346Y0492500D03*
G36*
G01*
X0480807Y0494291D02*
X0475886Y0494291D01*
G75*
G02*
X0475492Y0494685I0000000J0000394D01*
G01*
X0475492Y0497835D01*
G75*
G02*
X0475886Y0498228I0000394J0000000D01*
G01*
X0480807Y0498228D01*
G75*
G02*
X0481201Y0497835I0000000J-000394D01*
G01*
X0481201Y0494685D01*
G75*
G02*
X0480807Y0494291I-000394J0000000D01*
G01*
G37*
G36*
G01*
X0480807Y0501772D02*
X0475886Y0501772D01*
G75*
G02*
X0475492Y0502165I0000000J0000394D01*
G01*
X0475492Y0505315D01*
G75*
G02*
X0475886Y0505709I0000394J0000000D01*
G01*
X0480807Y0505709D01*
G75*
G02*
X0481201Y0505315I0000000J-000394D01*
G01*
X0481201Y0502165D01*
G75*
G02*
X0480807Y0501772I-000394J0000000D01*
G01*
G37*
X0478346Y0507500D03*
X0466535Y0460630D03*
G36*
G01*
X0468996Y0462421D02*
X0464075Y0462421D01*
G75*
G02*
X0463681Y0462815I0000000J0000394D01*
G01*
X0463681Y0465965D01*
G75*
G02*
X0464075Y0466358I0000394J0000000D01*
G01*
X0468996Y0466358D01*
G75*
G02*
X0469390Y0465965I0000000J-000394D01*
G01*
X0469390Y0462815D01*
G75*
G02*
X0468996Y0462421I-000394J0000000D01*
G01*
G37*
G36*
G01*
X0468996Y0469902D02*
X0464075Y0469902D01*
G75*
G02*
X0463681Y0470295I0000000J0000394D01*
G01*
X0463681Y0473445D01*
G75*
G02*
X0464075Y0473839I0000394J0000000D01*
G01*
X0468996Y0473839D01*
G75*
G02*
X0469390Y0473445I0000000J-000394D01*
G01*
X0469390Y0470295D01*
G75*
G02*
X0468996Y0469902I-000394J0000000D01*
G01*
G37*
X0466535Y0475630D03*
D11*
X0081693Y0378937D03*
X0171260Y0460630D03*
D10*
X0564961Y0457067D03*
G36*
G01*
X0567421Y0458858D02*
X0562500Y0458858D01*
G75*
G02*
X0562106Y0459252I0000000J0000394D01*
G01*
X0562106Y0462402D01*
G75*
G02*
X0562500Y0462795I0000394J0000000D01*
G01*
X0567421Y0462795D01*
G75*
G02*
X0567815Y0462402I0000000J-000394D01*
G01*
X0567815Y0459252D01*
G75*
G02*
X0567421Y0458858I-000394J0000000D01*
G01*
G37*
G36*
G01*
X0567421Y0466339D02*
X0562500Y0466339D01*
G75*
G02*
X0562106Y0466732I0000000J0000394D01*
G01*
X0562106Y0469882D01*
G75*
G02*
X0562500Y0470276I0000394J0000000D01*
G01*
X0567421Y0470276D01*
G75*
G02*
X0567815Y0469882I0000000J-000394D01*
G01*
X0567815Y0466732D01*
G75*
G02*
X0567421Y0466339I-000394J0000000D01*
G01*
G37*
X0564961Y0472067D03*
D11*
X0566772Y0381575D03*
X0566772Y0391575D03*
X0566772Y0401575D03*
X0566772Y0411575D03*
X0566772Y0421575D03*
X0576772Y0381575D03*
X0576772Y0391575D03*
X0576772Y0401575D03*
X0576772Y0411575D03*
X0576772Y0421575D03*
X0586772Y0381575D03*
X0586772Y0391575D03*
X0586772Y0401575D03*
X0586772Y0411575D03*
X0586772Y0421575D03*
D10*
X0442913Y0460630D03*
G36*
G01*
X0445374Y0462421D02*
X0440453Y0462421D01*
G75*
G02*
X0440059Y0462815I0000000J0000394D01*
G01*
X0440059Y0465965D01*
G75*
G02*
X0440453Y0466358I0000394J0000000D01*
G01*
X0445374Y0466358D01*
G75*
G02*
X0445768Y0465965I0000000J-000394D01*
G01*
X0445768Y0462815D01*
G75*
G02*
X0445374Y0462421I-000394J0000000D01*
G01*
G37*
G36*
G01*
X0445374Y0469902D02*
X0440453Y0469902D01*
G75*
G02*
X0440059Y0470295I0000000J0000394D01*
G01*
X0440059Y0473445D01*
G75*
G02*
X0440453Y0473839I0000394J0000000D01*
G01*
X0445374Y0473839D01*
G75*
G02*
X0445768Y0473445I0000000J-000394D01*
G01*
X0445768Y0470295D01*
G75*
G02*
X0445374Y0469902I-000394J0000000D01*
G01*
G37*
X0442913Y0475630D03*
G36*
G01*
X0395768Y0473228D02*
X0395768Y0472047D01*
G75*
G02*
X0395177Y0471457I-000591J0000000D01*
G01*
X0390551Y0471457D01*
G75*
G02*
X0389961Y0472047I0000000J0000591D01*
G01*
X0389961Y0473228D01*
G75*
G02*
X0390551Y0473819I0000591J0000000D01*
G01*
X0395177Y0473819D01*
G75*
G02*
X0395768Y0473228I0000000J-000591D01*
G01*
G37*
G36*
G01*
X0388386Y0476968D02*
X0388386Y0475787D01*
G75*
G02*
X0387795Y0475197I-000591J0000000D01*
G01*
X0383169Y0475197D01*
G75*
G02*
X0382579Y0475787I0000000J0000591D01*
G01*
X0382579Y0476968D01*
G75*
G02*
X0383169Y0477559I0000591J0000000D01*
G01*
X0387795Y0477559D01*
G75*
G02*
X0388386Y0476968I0000000J-000591D01*
G01*
G37*
G36*
G01*
X0395768Y0480709D02*
X0395768Y0479528D01*
G75*
G02*
X0395177Y0478937I-000591J0000000D01*
G01*
X0390551Y0478937D01*
G75*
G02*
X0389961Y0479528I0000000J0000591D01*
G01*
X0389961Y0480709D01*
G75*
G02*
X0390551Y0481299I0000591J0000000D01*
G01*
X0395177Y0481299D01*
G75*
G02*
X0395768Y0480709I0000000J-000591D01*
G01*
G37*
D21*
X0548976Y0129921D03*
X0548976Y0177165D03*
G36*
G01*
X0535433Y0138780D02*
X0531496Y0138780D01*
G75*
G02*
X0530512Y0139764I0000000J0000984D01*
G01*
X0530512Y0143701D01*
G75*
G02*
X0531496Y0144685I0000984J0000000D01*
G01*
X0535433Y0144685D01*
G75*
G02*
X0536417Y0143701I0000000J-000984D01*
G01*
X0536417Y0139764D01*
G75*
G02*
X0535433Y0138780I-000984J0000000D01*
G01*
G37*
D12*
X0533465Y0153543D03*
X0533465Y0165354D03*
X0545276Y0141732D03*
X0545276Y0153543D03*
X0545276Y0165354D03*
D13*
X0586614Y0605906D03*
G36*
G01*
X0351870Y0482087D02*
X0356791Y0482087D01*
G75*
G02*
X0357185Y0481693I0000000J-000394D01*
G01*
X0357185Y0478543D01*
G75*
G02*
X0356791Y0478150I-000394J0000000D01*
G01*
X0351870Y0478150D01*
G75*
G02*
X0351476Y0478543I0000000J0000394D01*
G01*
X0351476Y0481693D01*
G75*
G02*
X0351870Y0482087I0000394J0000000D01*
G01*
G37*
G36*
G01*
X0351870Y0474606D02*
X0356791Y0474606D01*
G75*
G02*
X0357185Y0474213I0000000J-000394D01*
G01*
X0357185Y0471063D01*
G75*
G02*
X0356791Y0470669I-000394J0000000D01*
G01*
X0351870Y0470669D01*
G75*
G02*
X0351476Y0471063I0000000J0000394D01*
G01*
X0351476Y0474213D01*
G75*
G02*
X0351870Y0474606I0000394J0000000D01*
G01*
G37*
X0019685Y0283071D03*
D10*
X0107283Y0492500D03*
G36*
G01*
X0109744Y0494291D02*
X0104823Y0494291D01*
G75*
G02*
X0104429Y0494685I0000000J0000394D01*
G01*
X0104429Y0497835D01*
G75*
G02*
X0104823Y0498228I0000394J0000000D01*
G01*
X0109744Y0498228D01*
G75*
G02*
X0110138Y0497835I0000000J-000394D01*
G01*
X0110138Y0494685D01*
G75*
G02*
X0109744Y0494291I-000394J0000000D01*
G01*
G37*
G36*
G01*
X0109744Y0501772D02*
X0104823Y0501772D01*
G75*
G02*
X0104429Y0502165I0000000J0000394D01*
G01*
X0104429Y0505315D01*
G75*
G02*
X0104823Y0505709I0000394J0000000D01*
G01*
X0109744Y0505709D01*
G75*
G02*
X0110138Y0505315I0000000J-000394D01*
G01*
X0110138Y0502165D01*
G75*
G02*
X0109744Y0501772I-000394J0000000D01*
G01*
G37*
X0107283Y0507500D03*
X0503937Y0460630D03*
G36*
G01*
X0506398Y0462421D02*
X0501476Y0462421D01*
G75*
G02*
X0501083Y0462815I0000000J0000394D01*
G01*
X0501083Y0465965D01*
G75*
G02*
X0501476Y0466358I0000394J0000000D01*
G01*
X0506398Y0466358D01*
G75*
G02*
X0506791Y0465965I0000000J-000394D01*
G01*
X0506791Y0462815D01*
G75*
G02*
X0506398Y0462421I-000394J0000000D01*
G01*
G37*
G36*
G01*
X0506398Y0469902D02*
X0501476Y0469902D01*
G75*
G02*
X0501083Y0470295I0000000J0000394D01*
G01*
X0501083Y0473445D01*
G75*
G02*
X0501476Y0473839I0000394J0000000D01*
G01*
X0506398Y0473839D01*
G75*
G02*
X0506791Y0473445I0000000J-000394D01*
G01*
X0506791Y0470295D01*
G75*
G02*
X0506398Y0469902I-000394J0000000D01*
G01*
G37*
X0503937Y0475630D03*
G36*
G01*
X0371417Y0448799D02*
X0368740Y0448799D01*
G75*
G02*
X0368406Y0449134I0000000J0000335D01*
G01*
X0368406Y0451811D01*
G75*
G02*
X0368740Y0452146I0000335J0000000D01*
G01*
X0371417Y0452146D01*
G75*
G02*
X0371752Y0451811I0000000J-000335D01*
G01*
X0371752Y0449134D01*
G75*
G02*
X0371417Y0448799I-000335J0000000D01*
G01*
G37*
G36*
G01*
X0371417Y0455020D02*
X0368740Y0455020D01*
G75*
G02*
X0368406Y0455354I0000000J0000335D01*
G01*
X0368406Y0458031D01*
G75*
G02*
X0368740Y0458366I0000335J0000000D01*
G01*
X0371417Y0458366D01*
G75*
G02*
X0371752Y0458031I0000000J-000335D01*
G01*
X0371752Y0455354D01*
G75*
G02*
X0371417Y0455020I-000335J0000000D01*
G01*
G37*
X0083661Y0492500D03*
G36*
G01*
X0086122Y0494291D02*
X0081201Y0494291D01*
G75*
G02*
X0080807Y0494685I0000000J0000394D01*
G01*
X0080807Y0497835D01*
G75*
G02*
X0081201Y0498228I0000394J0000000D01*
G01*
X0086122Y0498228D01*
G75*
G02*
X0086516Y0497835I0000000J-000394D01*
G01*
X0086516Y0494685D01*
G75*
G02*
X0086122Y0494291I-000394J0000000D01*
G01*
G37*
G36*
G01*
X0086122Y0501772D02*
X0081201Y0501772D01*
G75*
G02*
X0080807Y0502165I0000000J0000394D01*
G01*
X0080807Y0505315D01*
G75*
G02*
X0081201Y0505709I0000394J0000000D01*
G01*
X0086122Y0505709D01*
G75*
G02*
X0086516Y0505315I0000000J-000394D01*
G01*
X0086516Y0502165D01*
G75*
G02*
X0086122Y0501772I-000394J0000000D01*
G01*
G37*
X0083661Y0507500D03*
X0231299Y0460630D03*
G36*
G01*
X0233760Y0462421D02*
X0228839Y0462421D01*
G75*
G02*
X0228445Y0462815I0000000J0000394D01*
G01*
X0228445Y0465965D01*
G75*
G02*
X0228839Y0466358I0000394J0000000D01*
G01*
X0233760Y0466358D01*
G75*
G02*
X0234154Y0465965I0000000J-000394D01*
G01*
X0234154Y0462815D01*
G75*
G02*
X0233760Y0462421I-000394J0000000D01*
G01*
G37*
G36*
G01*
X0233760Y0469902D02*
X0228839Y0469902D01*
G75*
G02*
X0228445Y0470295I0000000J0000394D01*
G01*
X0228445Y0473445D01*
G75*
G02*
X0228839Y0473839I0000394J0000000D01*
G01*
X0233760Y0473839D01*
G75*
G02*
X0234154Y0473445I0000000J-000394D01*
G01*
X0234154Y0470295D01*
G75*
G02*
X0233760Y0469902I-000394J0000000D01*
G01*
G37*
X0231299Y0475630D03*
D11*
X0068898Y0460630D03*
X0062008Y0378937D03*
D10*
X0057087Y0509272D03*
G36*
G01*
X0053543Y0503976D02*
X0053543Y0506693D01*
G75*
G02*
X0054449Y0507598I0000906J0000000D01*
G01*
X0059724Y0507598D01*
G75*
G02*
X0060630Y0506693I0000000J-000906D01*
G01*
X0060630Y0503976D01*
G75*
G02*
X0059724Y0503071I-000906J0000000D01*
G01*
X0054449Y0503071D01*
G75*
G02*
X0053543Y0503976I0000000J0000906D01*
G01*
G37*
G36*
G01*
X0053543Y0492559D02*
X0053543Y0495276D01*
G75*
G02*
X0054449Y0496181I0000906J0000000D01*
G01*
X0059724Y0496181D01*
G75*
G02*
X0060630Y0495276I0000000J-000906D01*
G01*
X0060630Y0492559D01*
G75*
G02*
X0059724Y0491654I-000906J0000000D01*
G01*
X0054449Y0491654D01*
G75*
G02*
X0053543Y0492559I0000000J0000906D01*
G01*
G37*
X0057087Y0489980D03*
D11*
X0427165Y0491142D03*
D10*
X0095472Y0460630D03*
G36*
G01*
X0097933Y0462421D02*
X0093012Y0462421D01*
G75*
G02*
X0092618Y0462815I0000000J0000394D01*
G01*
X0092618Y0465965D01*
G75*
G02*
X0093012Y0466358I0000394J0000000D01*
G01*
X0097933Y0466358D01*
G75*
G02*
X0098327Y0465965I0000000J-000394D01*
G01*
X0098327Y0462815D01*
G75*
G02*
X0097933Y0462421I-000394J0000000D01*
G01*
G37*
G36*
G01*
X0097933Y0469902D02*
X0093012Y0469902D01*
G75*
G02*
X0092618Y0470295I0000000J0000394D01*
G01*
X0092618Y0473445D01*
G75*
G02*
X0093012Y0473839I0000394J0000000D01*
G01*
X0097933Y0473839D01*
G75*
G02*
X0098327Y0473445I0000000J-000394D01*
G01*
X0098327Y0470295D01*
G75*
G02*
X0097933Y0469902I-000394J0000000D01*
G01*
G37*
X0095472Y0475630D03*
D11*
X0527402Y0381575D03*
X0527402Y0391575D03*
X0527402Y0401575D03*
X0527402Y0411575D03*
X0527402Y0421575D03*
X0537402Y0381575D03*
X0537402Y0391575D03*
X0537402Y0401575D03*
X0537402Y0411575D03*
X0537402Y0421575D03*
X0547402Y0381575D03*
X0547402Y0391575D03*
X0547402Y0401575D03*
X0547402Y0411575D03*
X0547402Y0421575D03*
D10*
X0231299Y0492500D03*
G36*
G01*
X0233760Y0494291D02*
X0228839Y0494291D01*
G75*
G02*
X0228445Y0494685I0000000J0000394D01*
G01*
X0228445Y0497835D01*
G75*
G02*
X0228839Y0498228I0000394J0000000D01*
G01*
X0233760Y0498228D01*
G75*
G02*
X0234154Y0497835I0000000J-000394D01*
G01*
X0234154Y0494685D01*
G75*
G02*
X0233760Y0494291I-000394J0000000D01*
G01*
G37*
G36*
G01*
X0233760Y0501772D02*
X0228839Y0501772D01*
G75*
G02*
X0228445Y0502165I0000000J0000394D01*
G01*
X0228445Y0505315D01*
G75*
G02*
X0228839Y0505709I0000394J0000000D01*
G01*
X0233760Y0505709D01*
G75*
G02*
X0234154Y0505315I0000000J-000394D01*
G01*
X0234154Y0502165D01*
G75*
G02*
X0233760Y0501772I-000394J0000000D01*
G01*
G37*
X0231299Y0507500D03*
D11*
X0527402Y0322520D03*
X0527402Y0332520D03*
X0527402Y0342520D03*
X0527402Y0352520D03*
X0527402Y0362520D03*
X0537402Y0322520D03*
X0537402Y0332520D03*
X0537402Y0342520D03*
X0537402Y0352520D03*
X0537402Y0362520D03*
X0547402Y0322520D03*
X0547402Y0332520D03*
X0547402Y0342520D03*
X0547402Y0352520D03*
X0547402Y0362520D03*
D24*
X0060398Y0581810D03*
X0196027Y0581810D03*
X0382642Y0581810D03*
X0545831Y0581810D03*
D14*
X0062957Y0541650D03*
X0076727Y0541650D03*
X0088937Y0541650D03*
X0100747Y0541650D03*
X0112557Y0541650D03*
X0124367Y0541650D03*
X0136177Y0541650D03*
X0147987Y0541650D03*
X0159797Y0541650D03*
X0171607Y0541650D03*
X0183817Y0541650D03*
X0062957Y0559370D03*
X0076727Y0559370D03*
X0088937Y0559370D03*
X0100747Y0559370D03*
X0112557Y0559370D03*
X0124367Y0559370D03*
X0136177Y0559370D03*
X0147987Y0559370D03*
X0159797Y0559370D03*
X0171607Y0559370D03*
X0183817Y0559370D03*
X0288744Y0541650D03*
X0300554Y0541650D03*
X0312364Y0541650D03*
X0324174Y0541650D03*
X0335994Y0541650D03*
X0347804Y0541650D03*
X0359614Y0541650D03*
X0371424Y0541650D03*
X0288744Y0559370D03*
X0300554Y0559370D03*
X0312364Y0559370D03*
X0324174Y0559370D03*
X0335994Y0559370D03*
X0347804Y0559370D03*
X0359614Y0559370D03*
X0371424Y0559370D03*
X0394834Y0541650D03*
X0408614Y0541650D03*
X0420834Y0541650D03*
X0432644Y0541650D03*
X0444454Y0541650D03*
X0456264Y0541650D03*
X0468074Y0541650D03*
X0479884Y0541650D03*
X0491694Y0541650D03*
X0503504Y0541650D03*
X0515714Y0541650D03*
X0529494Y0541650D03*
X0543274Y0541650D03*
X0394834Y0559370D03*
X0408614Y0559370D03*
X0420834Y0559370D03*
X0432644Y0559370D03*
X0444454Y0559370D03*
X0456264Y0559370D03*
X0468074Y0559370D03*
X0479884Y0559370D03*
X0491694Y0559370D03*
X0503504Y0559370D03*
X0515714Y0559370D03*
X0529494Y0559370D03*
X0543274Y0559370D03*
X0207248Y0541650D03*
X0219058Y0541650D03*
X0230868Y0541650D03*
X0242678Y0541650D03*
X0254498Y0541650D03*
X0266308Y0541650D03*
X0207248Y0559370D03*
X0219058Y0559370D03*
X0230868Y0559370D03*
X0242678Y0559370D03*
X0254498Y0559370D03*
X0266308Y0559370D03*
D13*
X0586420Y0283071D03*
X0586614Y0020079D03*
D11*
X0566772Y0322520D03*
X0566772Y0332520D03*
X0566772Y0342520D03*
X0566772Y0352520D03*
X0566772Y0362520D03*
X0576772Y0322520D03*
X0576772Y0332520D03*
X0576772Y0342520D03*
X0576772Y0352520D03*
X0576772Y0362520D03*
X0586772Y0322520D03*
X0586772Y0332520D03*
X0586772Y0342520D03*
X0586772Y0352520D03*
X0586772Y0362520D03*
X0442913Y0491142D03*
D10*
X0130906Y0460630D03*
G36*
G01*
X0133366Y0462421D02*
X0128445Y0462421D01*
G75*
G02*
X0128051Y0462815I0000000J0000394D01*
G01*
X0128051Y0465965D01*
G75*
G02*
X0128445Y0466358I0000394J0000000D01*
G01*
X0133366Y0466358D01*
G75*
G02*
X0133760Y0465965I0000000J-000394D01*
G01*
X0133760Y0462815D01*
G75*
G02*
X0133366Y0462421I-000394J0000000D01*
G01*
G37*
G36*
G01*
X0133366Y0469902D02*
X0128445Y0469902D01*
G75*
G02*
X0128051Y0470295I0000000J0000394D01*
G01*
X0128051Y0473445D01*
G75*
G02*
X0128445Y0473839I0000394J0000000D01*
G01*
X0133366Y0473839D01*
G75*
G02*
X0133760Y0473445I0000000J-000394D01*
G01*
X0133760Y0470295D01*
G75*
G02*
X0133366Y0469902I-000394J0000000D01*
G01*
G37*
X0130906Y0475630D03*
X0531496Y0492500D03*
G36*
G01*
X0533957Y0494291D02*
X0529035Y0494291D01*
G75*
G02*
X0528642Y0494685I0000000J0000394D01*
G01*
X0528642Y0497835D01*
G75*
G02*
X0529035Y0498228I0000394J0000000D01*
G01*
X0533957Y0498228D01*
G75*
G02*
X0534350Y0497835I0000000J-000394D01*
G01*
X0534350Y0494685D01*
G75*
G02*
X0533957Y0494291I-000394J0000000D01*
G01*
G37*
G36*
G01*
X0533957Y0501772D02*
X0529035Y0501772D01*
G75*
G02*
X0528642Y0502165I0000000J0000394D01*
G01*
X0528642Y0505315D01*
G75*
G02*
X0529035Y0505709I0000394J0000000D01*
G01*
X0533957Y0505709D01*
G75*
G02*
X0534350Y0505315I0000000J-000394D01*
G01*
X0534350Y0502165D01*
G75*
G02*
X0533957Y0501772I-000394J0000000D01*
G01*
G37*
X0531496Y0507500D03*
D15*
X0142914Y0131546D03*
X0142914Y0148081D03*
X0142914Y0164616D03*
D11*
X0148819Y0167963D03*
D15*
X0142914Y0181152D03*
D11*
X0148819Y0177963D03*
D15*
X0164567Y0131546D03*
X0164567Y0148081D03*
D11*
X0158819Y0167963D03*
D15*
X0164567Y0164616D03*
D11*
X0158819Y0177963D03*
D15*
X0164567Y0181152D03*
X0142914Y0207923D03*
X0142914Y0224459D03*
D11*
X0148819Y0227805D03*
D15*
X0142914Y0240994D03*
D11*
X0148819Y0237805D03*
D15*
X0142914Y0257530D03*
D11*
X0148819Y0260876D03*
D15*
X0142914Y0274065D03*
D11*
X0148819Y0270876D03*
D15*
X0142914Y0290601D03*
D11*
X0148819Y0293947D03*
D15*
X0142914Y0307136D03*
D11*
X0148819Y0303947D03*
D15*
X0142914Y0323672D03*
D11*
X0148819Y0327018D03*
D15*
X0142914Y0340207D03*
D11*
X0148819Y0337018D03*
D15*
X0164567Y0207923D03*
D11*
X0158819Y0227805D03*
D15*
X0164567Y0224459D03*
D11*
X0158819Y0237805D03*
D15*
X0164567Y0240994D03*
D11*
X0158819Y0260876D03*
D15*
X0164567Y0257530D03*
D11*
X0158819Y0270876D03*
D15*
X0164567Y0274065D03*
D11*
X0158819Y0293947D03*
D15*
X0164567Y0290601D03*
D11*
X0158819Y0303947D03*
D15*
X0164567Y0307136D03*
D11*
X0158819Y0327018D03*
D15*
X0164567Y0323672D03*
D11*
X0158819Y0337018D03*
D15*
X0164567Y0340207D03*
X0148130Y0387156D03*
D11*
X0151477Y0381250D03*
X0161477Y0381250D03*
D15*
X0164666Y0387156D03*
X0181201Y0387156D03*
D11*
X0184548Y0381250D03*
X0194548Y0381250D03*
D15*
X0197737Y0387156D03*
X0214272Y0387156D03*
D11*
X0217619Y0381250D03*
X0227619Y0381250D03*
D15*
X0230808Y0387156D03*
X0247343Y0387156D03*
D11*
X0250689Y0381250D03*
X0260689Y0381250D03*
D15*
X0263878Y0387156D03*
X0280414Y0387156D03*
X0296949Y0387156D03*
X0148130Y0365502D03*
D11*
X0151477Y0371250D03*
X0161477Y0371250D03*
D15*
X0164666Y0365502D03*
X0181201Y0365502D03*
D11*
X0184548Y0371250D03*
X0194548Y0371250D03*
D15*
X0197737Y0365502D03*
X0214272Y0365502D03*
D11*
X0217619Y0371250D03*
X0227619Y0371250D03*
D15*
X0230808Y0365502D03*
X0247343Y0365502D03*
D11*
X0250689Y0371250D03*
X0260689Y0371250D03*
D15*
X0263878Y0365502D03*
X0280414Y0365502D03*
X0296949Y0365502D03*
X0343800Y0387156D03*
D11*
X0347146Y0381250D03*
X0357146Y0381250D03*
D15*
X0360335Y0387156D03*
X0376871Y0387156D03*
D11*
X0380217Y0381250D03*
X0390217Y0381250D03*
D15*
X0393406Y0387156D03*
X0409941Y0387156D03*
D11*
X0413288Y0381250D03*
X0423288Y0381250D03*
D15*
X0426477Y0387156D03*
X0443012Y0387156D03*
D11*
X0446359Y0381250D03*
X0456359Y0381250D03*
D15*
X0459548Y0387156D03*
X0343800Y0365502D03*
D11*
X0347146Y0371250D03*
X0357146Y0371250D03*
D15*
X0360335Y0365502D03*
X0376871Y0365502D03*
D11*
X0380217Y0371250D03*
X0390217Y0371250D03*
D15*
X0393406Y0365502D03*
X0409941Y0365502D03*
D11*
X0413288Y0371250D03*
X0423288Y0371250D03*
D15*
X0426477Y0365502D03*
X0443012Y0365502D03*
D11*
X0446359Y0371250D03*
X0456359Y0371250D03*
D15*
X0459548Y0365502D03*
D11*
X0457835Y0338593D03*
D15*
X0463583Y0341782D03*
D11*
X0457835Y0328593D03*
D15*
X0463583Y0325246D03*
X0463583Y0308711D03*
X0441930Y0341782D03*
D11*
X0447835Y0338593D03*
D15*
X0441930Y0325246D03*
D11*
X0447835Y0328593D03*
D15*
X0441930Y0308711D03*
G36*
G01*
X0435827Y0038435D02*
X0430512Y0038435D01*
G75*
G02*
X0429528Y0039420I0000000J0000984D01*
G01*
X0429528Y0044144D01*
G75*
G02*
X0430512Y0045128I0000984J0000000D01*
G01*
X0435827Y0045128D01*
G75*
G02*
X0436812Y0044144I0000000J-000984D01*
G01*
X0436812Y0039420D01*
G75*
G02*
X0435827Y0038435I-000984J0000000D01*
G01*
G37*
D16*
X0433170Y0051624D03*
X0433170Y0061467D03*
X0433170Y0071309D03*
X0433170Y0081152D03*
D11*
X0352461Y0039813D03*
X0352461Y0059498D03*
X0433957Y0124459D03*
X0433957Y0105955D03*
X0128209Y0075246D03*
X0138209Y0075246D03*
X0118209Y0075246D03*
X0196949Y0073278D03*
X0143701Y0491142D03*
D10*
X0070866Y0492500D03*
G36*
G01*
X0073327Y0494291D02*
X0068406Y0494291D01*
G75*
G02*
X0068012Y0494685I0000000J0000394D01*
G01*
X0068012Y0497835D01*
G75*
G02*
X0068406Y0498228I0000394J0000000D01*
G01*
X0073327Y0498228D01*
G75*
G02*
X0073720Y0497835I0000000J-000394D01*
G01*
X0073720Y0494685D01*
G75*
G02*
X0073327Y0494291I-000394J0000000D01*
G01*
G37*
G36*
G01*
X0073327Y0501772D02*
X0068406Y0501772D01*
G75*
G02*
X0068012Y0502165I0000000J0000394D01*
G01*
X0068012Y0505315D01*
G75*
G02*
X0068406Y0505709I0000394J0000000D01*
G01*
X0073327Y0505709D01*
G75*
G02*
X0073720Y0505315I0000000J-000394D01*
G01*
X0073720Y0502165D01*
G75*
G02*
X0073327Y0501772I-000394J0000000D01*
G01*
G37*
X0070866Y0507500D03*
D11*
X0171260Y0491142D03*
D13*
X0019685Y0020079D03*
G36*
G01*
X0341142Y0460925D02*
X0341142Y0457972D01*
G75*
G02*
X0339665Y0456496I-001476J0000000D01*
G01*
X0334744Y0456496D01*
G75*
G02*
X0333268Y0457972I0000000J0001476D01*
G01*
X0333268Y0460925D01*
G75*
G02*
X0334744Y0462402I0001476J0000000D01*
G01*
X0339665Y0462402D01*
G75*
G02*
X0341142Y0460925I0000000J-001476D01*
G01*
G37*
G36*
G01*
X0341142Y0469980D02*
X0341142Y0467028D01*
G75*
G02*
X0339665Y0465551I-001476J0000000D01*
G01*
X0334744Y0465551D01*
G75*
G02*
X0333268Y0467028I0000000J0001476D01*
G01*
X0333268Y0469980D01*
G75*
G02*
X0334744Y0471457I0001476J0000000D01*
G01*
X0339665Y0471457D01*
G75*
G02*
X0341142Y0469980I0000000J-001476D01*
G01*
G37*
G36*
G01*
X0341142Y0479035D02*
X0341142Y0476083D01*
G75*
G02*
X0339665Y0474606I-001476J0000000D01*
G01*
X0334744Y0474606D01*
G75*
G02*
X0333268Y0476083I0000000J0001476D01*
G01*
X0333268Y0479035D01*
G75*
G02*
X0334744Y0480512I0001476J0000000D01*
G01*
X0339665Y0480512D01*
G75*
G02*
X0341142Y0479035I0000000J-001476D01*
G01*
G37*
G36*
G01*
X0316339Y0474016D02*
X0316339Y0462992D01*
G75*
G02*
X0314370Y0461024I-001969J0000000D01*
G01*
X0310433Y0461024D01*
G75*
G02*
X0308465Y0462992I0000000J0001969D01*
G01*
X0308465Y0474016D01*
G75*
G02*
X0310433Y0475984I0001969J0000000D01*
G01*
X0314370Y0475984D01*
G75*
G02*
X0316339Y0474016I0000000J-001969D01*
G01*
G37*
D11*
X0076772Y0055118D03*
D21*
X0549311Y0196850D03*
X0549311Y0220472D03*
G36*
G01*
X0535768Y0205709D02*
X0531831Y0205709D01*
G75*
G02*
X0530846Y0206693I0000000J0000984D01*
G01*
X0530846Y0210630D01*
G75*
G02*
X0531831Y0211614I0000984J0000000D01*
G01*
X0535768Y0211614D01*
G75*
G02*
X0536752Y0210630I0000000J-000984D01*
G01*
X0536752Y0206693D01*
G75*
G02*
X0535768Y0205709I-000984J0000000D01*
G01*
G37*
D12*
X0545610Y0208661D03*
D11*
X0076772Y0094488D03*
D10*
X0260827Y0460630D03*
G36*
G01*
X0263287Y0462421D02*
X0258366Y0462421D01*
G75*
G02*
X0257972Y0462815I0000000J0000394D01*
G01*
X0257972Y0465965D01*
G75*
G02*
X0258366Y0466358I0000394J0000000D01*
G01*
X0263287Y0466358D01*
G75*
G02*
X0263681Y0465965I0000000J-000394D01*
G01*
X0263681Y0462815D01*
G75*
G02*
X0263287Y0462421I-000394J0000000D01*
G01*
G37*
G36*
G01*
X0263287Y0469902D02*
X0258366Y0469902D01*
G75*
G02*
X0257972Y0470295I0000000J0000394D01*
G01*
X0257972Y0473445D01*
G75*
G02*
X0258366Y0473839I0000394J0000000D01*
G01*
X0263287Y0473839D01*
G75*
G02*
X0263681Y0473445I0000000J-000394D01*
G01*
X0263681Y0470295D01*
G75*
G02*
X0263287Y0469902I-000394J0000000D01*
G01*
G37*
X0260827Y0475630D03*
X0503937Y0492500D03*
G36*
G01*
X0506398Y0494291D02*
X0501476Y0494291D01*
G75*
G02*
X0501083Y0494685I0000000J0000394D01*
G01*
X0501083Y0497835D01*
G75*
G02*
X0501476Y0498228I0000394J0000000D01*
G01*
X0506398Y0498228D01*
G75*
G02*
X0506791Y0497835I0000000J-000394D01*
G01*
X0506791Y0494685D01*
G75*
G02*
X0506398Y0494291I-000394J0000000D01*
G01*
G37*
G36*
G01*
X0506398Y0501772D02*
X0501476Y0501772D01*
G75*
G02*
X0501083Y0502165I0000000J0000394D01*
G01*
X0501083Y0505315D01*
G75*
G02*
X0501476Y0505709I0000394J0000000D01*
G01*
X0506398Y0505709D01*
G75*
G02*
X0506791Y0505315I0000000J-000394D01*
G01*
X0506791Y0502165D01*
G75*
G02*
X0506398Y0501772I-000394J0000000D01*
G01*
G37*
X0503937Y0507500D03*
X0409449Y0492500D03*
G36*
G01*
X0411909Y0494291D02*
X0406988Y0494291D01*
G75*
G02*
X0406594Y0494685I0000000J0000394D01*
G01*
X0406594Y0497835D01*
G75*
G02*
X0406988Y0498228I0000394J0000000D01*
G01*
X0411909Y0498228D01*
G75*
G02*
X0412303Y0497835I0000000J-000394D01*
G01*
X0412303Y0494685D01*
G75*
G02*
X0411909Y0494291I-000394J0000000D01*
G01*
G37*
G36*
G01*
X0411909Y0501772D02*
X0406988Y0501772D01*
G75*
G02*
X0406594Y0502165I0000000J0000394D01*
G01*
X0406594Y0505315D01*
G75*
G02*
X0406988Y0505709I0000394J0000000D01*
G01*
X0411909Y0505709D01*
G75*
G02*
X0412303Y0505315I0000000J-000394D01*
G01*
X0412303Y0502165D01*
G75*
G02*
X0411909Y0501772I-000394J0000000D01*
G01*
G37*
X0409449Y0507500D03*
D11*
X0143701Y0460630D03*
G36*
G01*
X0379429Y0458465D02*
X0384350Y0458465D01*
G75*
G02*
X0384744Y0458071I0000000J-000394D01*
G01*
X0384744Y0454921D01*
G75*
G02*
X0384350Y0454528I-000394J0000000D01*
G01*
X0379429Y0454528D01*
G75*
G02*
X0379035Y0454921I0000000J0000394D01*
G01*
X0379035Y0458071D01*
G75*
G02*
X0379429Y0458465I0000394J0000000D01*
G01*
G37*
G36*
G01*
X0379429Y0450984D02*
X0384350Y0450984D01*
G75*
G02*
X0384744Y0450590I0000000J-000394D01*
G01*
X0384744Y0447441D01*
G75*
G02*
X0384350Y0447047I-000394J0000000D01*
G01*
X0379429Y0447047D01*
G75*
G02*
X0379035Y0447441I0000000J0000394D01*
G01*
X0379035Y0450590D01*
G75*
G02*
X0379429Y0450984I0000394J0000000D01*
G01*
G37*
X0491142Y0491142D03*
D10*
X0564961Y0492500D03*
G36*
G01*
X0567421Y0494291D02*
X0562500Y0494291D01*
G75*
G02*
X0562106Y0494685I0000000J0000394D01*
G01*
X0562106Y0497835D01*
G75*
G02*
X0562500Y0498228I0000394J0000000D01*
G01*
X0567421Y0498228D01*
G75*
G02*
X0567815Y0497835I0000000J-000394D01*
G01*
X0567815Y0494685D01*
G75*
G02*
X0567421Y0494291I-000394J0000000D01*
G01*
G37*
G36*
G01*
X0567421Y0501772D02*
X0562500Y0501772D01*
G75*
G02*
X0562106Y0502165I0000000J0000394D01*
G01*
X0562106Y0505315D01*
G75*
G02*
X0562500Y0505709I0000394J0000000D01*
G01*
X0567421Y0505709D01*
G75*
G02*
X0567815Y0505315I0000000J-000394D01*
G01*
X0567815Y0502165D01*
G75*
G02*
X0567421Y0501772I-000394J0000000D01*
G01*
G37*
X0564961Y0507500D03*
X0260827Y0492500D03*
G36*
G01*
X0263287Y0494291D02*
X0258366Y0494291D01*
G75*
G02*
X0257972Y0494685I0000000J0000394D01*
G01*
X0257972Y0497835D01*
G75*
G02*
X0258366Y0498228I0000394J0000000D01*
G01*
X0263287Y0498228D01*
G75*
G02*
X0263681Y0497835I0000000J-000394D01*
G01*
X0263681Y0494685D01*
G75*
G02*
X0263287Y0494291I-000394J0000000D01*
G01*
G37*
G36*
G01*
X0263287Y0501772D02*
X0258366Y0501772D01*
G75*
G02*
X0257972Y0502165I0000000J0000394D01*
G01*
X0257972Y0505315D01*
G75*
G02*
X0258366Y0505709I0000394J0000000D01*
G01*
X0263287Y0505709D01*
G75*
G02*
X0263681Y0505315I0000000J-000394D01*
G01*
X0263681Y0502165D01*
G75*
G02*
X0263287Y0501772I-000394J0000000D01*
G01*
G37*
X0260827Y0507500D03*
X0336614Y0509272D03*
G36*
G01*
X0333071Y0503976D02*
X0333071Y0506693D01*
G75*
G02*
X0333976Y0507598I0000906J0000000D01*
G01*
X0339252Y0507598D01*
G75*
G02*
X0340157Y0506693I0000000J-000906D01*
G01*
X0340157Y0503976D01*
G75*
G02*
X0339252Y0503071I-000906J0000000D01*
G01*
X0333976Y0503071D01*
G75*
G02*
X0333071Y0503976I0000000J0000906D01*
G01*
G37*
G36*
G01*
X0333071Y0492559D02*
X0333071Y0495276D01*
G75*
G02*
X0333976Y0496181I0000906J0000000D01*
G01*
X0339252Y0496181D01*
G75*
G02*
X0340157Y0495276I0000000J-000906D01*
G01*
X0340157Y0492559D01*
G75*
G02*
X0339252Y0491654I-000906J0000000D01*
G01*
X0333976Y0491654D01*
G75*
G02*
X0333071Y0492559I0000000J0000906D01*
G01*
G37*
X0336614Y0489980D03*
D11*
X0042323Y0378937D03*
X0107283Y0460630D03*
D13*
X0019685Y0605906D03*
X0106299Y0029971D02*
%LPD*%
G01*
D15*
X0142914Y0131645D03*
X0142914Y0148180D03*
X0142914Y0164716D03*
D11*
X0148819Y0168062D03*
D15*
X0142914Y0181251D03*
D11*
X0148819Y0178062D03*
D15*
X0164567Y0131645D03*
X0164567Y0148180D03*
D11*
X0158819Y0168062D03*
D15*
X0164567Y0164716D03*
D11*
X0158819Y0178062D03*
D15*
X0164567Y0181251D03*
X0142914Y0208023D03*
X0142914Y0224558D03*
D11*
X0148819Y0227905D03*
D15*
X0142914Y0241094D03*
D11*
X0148819Y0237905D03*
D15*
X0142914Y0257629D03*
D11*
X0148819Y0260976D03*
D15*
X0142914Y0274164D03*
D11*
X0148819Y0270976D03*
D15*
X0142914Y0290700D03*
D11*
X0148819Y0294046D03*
D15*
X0142914Y0307235D03*
D11*
X0148819Y0304046D03*
D15*
X0142914Y0323771D03*
D11*
X0148819Y0327117D03*
D15*
X0142914Y0340306D03*
D11*
X0148819Y0337117D03*
D15*
X0164567Y0208023D03*
D11*
X0158819Y0227905D03*
D15*
X0164567Y0224558D03*
D11*
X0158819Y0237905D03*
D15*
X0164567Y0241094D03*
D11*
X0158819Y0260976D03*
D15*
X0164567Y0257629D03*
D11*
X0158819Y0270976D03*
D15*
X0164567Y0274164D03*
D11*
X0158819Y0294046D03*
D15*
X0164567Y0290700D03*
D11*
X0158819Y0304046D03*
D15*
X0164567Y0307235D03*
D11*
X0158819Y0327117D03*
D15*
X0164567Y0323771D03*
D11*
X0158819Y0337117D03*
D15*
X0164567Y0340306D03*
X0148130Y0387255D03*
D11*
X0151477Y0381350D03*
X0161477Y0381350D03*
D15*
X0164666Y0387255D03*
X0181201Y0387255D03*
D11*
X0184548Y0381350D03*
X0194548Y0381350D03*
D15*
X0197737Y0387255D03*
X0214272Y0387255D03*
D11*
X0217618Y0381350D03*
X0227618Y0381350D03*
D15*
X0230807Y0387255D03*
X0247343Y0387255D03*
D11*
X0250689Y0381350D03*
X0260689Y0381350D03*
D15*
X0263878Y0387255D03*
X0280414Y0387255D03*
X0296949Y0387255D03*
X0148130Y0365601D03*
D11*
X0151477Y0371350D03*
X0161477Y0371350D03*
D15*
X0164666Y0365601D03*
X0181201Y0365601D03*
D11*
X0184548Y0371350D03*
X0194548Y0371350D03*
D15*
X0197737Y0365601D03*
X0214272Y0365601D03*
D11*
X0217618Y0371350D03*
X0227618Y0371350D03*
D15*
X0230807Y0365601D03*
X0247343Y0365601D03*
D11*
X0250689Y0371350D03*
X0260689Y0371350D03*
D15*
X0263878Y0365601D03*
X0280414Y0365601D03*
X0296949Y0365601D03*
X0343799Y0387255D03*
D11*
X0347146Y0381350D03*
X0357146Y0381350D03*
D15*
X0360335Y0387255D03*
X0376870Y0387255D03*
D11*
X0380217Y0381350D03*
X0390217Y0381350D03*
D15*
X0393406Y0387255D03*
X0409941Y0387255D03*
D11*
X0413288Y0381350D03*
X0423288Y0381350D03*
D15*
X0426477Y0387255D03*
X0443012Y0387255D03*
D11*
X0446359Y0381350D03*
X0456359Y0381350D03*
D15*
X0459548Y0387255D03*
X0343799Y0365601D03*
D11*
X0347146Y0371350D03*
X0357146Y0371350D03*
D15*
X0360335Y0365601D03*
X0376870Y0365601D03*
D11*
X0380217Y0371350D03*
X0390217Y0371350D03*
D15*
X0393406Y0365601D03*
X0409941Y0365601D03*
D11*
X0413288Y0371350D03*
X0423288Y0371350D03*
D15*
X0426477Y0365601D03*
X0443012Y0365601D03*
D11*
X0446359Y0371350D03*
X0456359Y0371350D03*
D15*
X0459548Y0365601D03*
D11*
X0457835Y0338692D03*
D15*
X0463583Y0341881D03*
D11*
X0457835Y0328692D03*
D15*
X0463583Y0325346D03*
X0463583Y0308810D03*
X0441929Y0341881D03*
D11*
X0447835Y0338692D03*
D15*
X0441929Y0325346D03*
D11*
X0447835Y0328692D03*
D15*
X0441929Y0308810D03*
G36*
G01*
X0435827Y0038535D02*
X0430512Y0038535D01*
G75*
G02*
X0429528Y0039519I0000000J0000984D01*
G01*
X0429528Y0044243D01*
G75*
G02*
X0430512Y0045227I0000984J0000000D01*
G01*
X0435827Y0045227D01*
G75*
G02*
X0436811Y0044243I0000000J-000984D01*
G01*
X0436811Y0039519D01*
G75*
G02*
X0435827Y0038535I-000984J0000000D01*
G01*
G37*
D16*
X0433170Y0051724D03*
X0433170Y0061566D03*
X0433170Y0071409D03*
X0433170Y0081251D03*
D11*
X0352461Y0039913D03*
X0352461Y0059598D03*
X0433957Y0124558D03*
X0433957Y0106054D03*
X0128209Y0075346D03*
X0138209Y0075346D03*
X0118209Y0075346D03*
X0196949Y0073377D03*
D15*
X0142914Y0181251D03*
D36*
X0380217Y0381350D03*
X0390217Y0381350D03*
X0380217Y0371350D03*
X0390217Y0371350D03*
D15*
X0164567Y0241094D03*
X0459548Y0387255D03*
X0164567Y0224558D03*
X0181201Y0387255D03*
X0142914Y0290700D03*
X0343799Y0387255D03*
X0459548Y0365601D03*
X0142914Y0274164D03*
X0142914Y0257629D03*
X0296949Y0387255D03*
X0441929Y0325346D03*
X0426477Y0387255D03*
X0280414Y0387255D03*
X0230807Y0387255D03*
X0142914Y0340306D03*
X0463583Y0308810D03*
D11*
X0433957Y0106054D03*
D36*
X0250689Y0381350D03*
X0260689Y0381350D03*
X0250689Y0371350D03*
X0260689Y0371350D03*
D15*
X0426477Y0365601D03*
X0197737Y0387255D03*
D11*
X0433957Y0124558D03*
D15*
X0142914Y0241094D03*
X0247343Y0387255D03*
X0247343Y0365601D03*
X0443012Y0365601D03*
X0164567Y0181251D03*
D36*
X0148819Y0337117D03*
X0158819Y0337117D03*
X0148819Y0327117D03*
X0158819Y0327117D03*
D15*
X0164567Y0323771D03*
X0360335Y0387255D03*
X0376870Y0387255D03*
D36*
X0148819Y0237905D03*
X0158819Y0237905D03*
X0148819Y0227905D03*
X0158819Y0227905D03*
G36*
G01*
X0435827Y0038535D02*
X0430512Y0038535D01*
G75*
G02*
X0429528Y0039519I0000000J0000984D01*
G01*
X0429528Y0044243D01*
G75*
G02*
X0430512Y0045227I0000984J0000000D01*
G01*
X0435827Y0045227D01*
G75*
G02*
X0436811Y0044243I0000000J-000984D01*
G01*
X0436811Y0039519D01*
G75*
G02*
X0435827Y0038535I-000984J0000000D01*
G01*
G37*
D16*
X0433170Y0051724D03*
X0433170Y0061566D03*
X0433170Y0071409D03*
X0433170Y0081251D03*
D36*
X0148819Y0304046D03*
X0158819Y0304046D03*
X0148819Y0294046D03*
X0158819Y0294046D03*
D15*
X0360335Y0365601D03*
X0409941Y0365601D03*
X0393406Y0387255D03*
X0164567Y0148180D03*
X0263878Y0365601D03*
X0164567Y0290700D03*
X0343799Y0365601D03*
D36*
X0446359Y0381350D03*
X0456359Y0381350D03*
X0446359Y0371350D03*
X0456359Y0371350D03*
D15*
X0142914Y0148180D03*
X0148130Y0387255D03*
D36*
X0447835Y0338692D03*
X0457835Y0338692D03*
X0447835Y0328692D03*
X0457835Y0328692D03*
D15*
X0441929Y0341881D03*
X0393406Y0365601D03*
X0142914Y0307235D03*
X0181201Y0365601D03*
D36*
X0347146Y0381350D03*
X0357146Y0381350D03*
X0347146Y0371350D03*
X0357146Y0371350D03*
D11*
X0352461Y0059598D03*
D36*
X0148819Y0178062D03*
X0158819Y0178062D03*
X0148819Y0168062D03*
X0158819Y0168062D03*
D15*
X0230807Y0365601D03*
X0142914Y0164716D03*
D36*
X0118209Y0075346D03*
X0128209Y0075346D03*
X0138209Y0075346D03*
X0151477Y0381350D03*
X0161477Y0381350D03*
X0151477Y0371350D03*
X0161477Y0371350D03*
D15*
X0164567Y0340306D03*
X0142914Y0208023D03*
X0443012Y0387255D03*
X0463583Y0325346D03*
D11*
X0196949Y0073377D03*
D15*
X0214272Y0365601D03*
X0463583Y0341881D03*
X0164567Y0164716D03*
X0263878Y0387255D03*
X0280414Y0365601D03*
D36*
X0217618Y0381350D03*
X0227618Y0381350D03*
X0217618Y0371350D03*
X0227618Y0371350D03*
X0413288Y0381350D03*
X0423288Y0381350D03*
X0413288Y0371350D03*
X0423288Y0371350D03*
X0184548Y0381350D03*
X0194548Y0381350D03*
X0184548Y0371350D03*
X0194548Y0371350D03*
D15*
X0164567Y0274164D03*
X0164666Y0387255D03*
X0142914Y0323771D03*
X0142914Y0131645D03*
D36*
X0148819Y0270976D03*
X0158819Y0270976D03*
X0148819Y0260976D03*
X0158819Y0260976D03*
D15*
X0148130Y0365601D03*
X0296949Y0365601D03*
X0409941Y0387255D03*
D11*
X0352461Y0039913D03*
D15*
X0197737Y0365601D03*
X0214272Y0387255D03*
X0164666Y0365601D03*
X0164567Y0257629D03*
X0164567Y0131645D03*
X0441929Y0308810D03*
X0164567Y0307235D03*
X0142914Y0224558D03*
X0376870Y0365601D03*
X0164567Y0208023D03*
M02*
