M48
INCH,TZ
T01C0.015700
T02C0.032750
T03C0.041350
T04C0.047200
T05C0.137800
T06C0.196900
%
T01
X2559Y51476
X2559Y49114
X4331Y36516
X4331Y24902
X4528Y56496
X4528Y52854
X6004Y22441
X6004Y19291
X6004Y15650
X6004Y11024
X6004Y2559
X6299Y44193
X6299Y40650
X7283Y36516
X7283Y29134
X7382Y14272
X7395Y13176
X8734Y20793
X8760Y19291
X8760Y15650
X8760Y11024
X8760Y2559
X9252Y22441
X9547Y29134
X9547Y28051
X9646Y24902
X10630Y44193
X11299Y32382
X11713Y30709
X12205Y40650
X12205Y31594
X14291Y35020
X14370Y44193
X15157Y5020
X16831Y35039
X17126Y44193
X17520Y2559
X18110Y39764
X20276Y52854
X20276Y51476
X20276Y49114
X20276Y47638
X20276Y44193
X21427Y41122
X22244Y40837
X23081Y41437
X24735Y41437
X24803Y51476
X24803Y49114
X24803Y47638
X24803Y45669
X24803Y43504
X27461Y52854
X27461Y51476
X27461Y49114
X27461Y45669
X27461Y43504
X28051Y41742
X29232Y51476
X29232Y49114
X29232Y43504
X31693Y49705
X32165Y44449
X32480Y47146
X32480Y46654
X32480Y46161
X33858Y43110
X34380Y42815
X34409Y44291
X34744Y49705
X34764Y46063
X35221Y41949
X36028Y43411
X36299Y45866
X38878Y52854
X38878Y49705
X38878Y44882
X39213Y48622
X39272Y44882
X40039Y48031
X40994Y42864
X41831Y40168
X42652Y42234
X43307Y42520
X44301Y40463
X45137Y39479
X45965Y40748
X46555Y8169
X46654Y5217
X47441Y40157
X47441Y36550
X47441Y29134
X47835Y43799
X48327Y43799
X49508Y43209
X49902Y43209
X54528Y29134
X54528Y24803
X54626Y10433
X54626Y2559
X58169Y52854
X58169Y49705
X58169Y43504
X58661Y24803
X58661Y18110
X58661Y10433
T02
X5709Y50927
X5709Y48998
X7087Y50750
X7087Y49250
X8366Y50750
X8366Y49250
X8366Y47563
X8366Y46063
X9547Y50750
X9547Y49250
X9547Y47563
X9547Y46063
X10728Y50750
X10728Y49250
X11909Y50750
X11909Y49250
X13091Y50750
X13091Y49250
X13091Y47563
X13091Y46063
X15650Y50750
X15650Y49250
X15650Y47563
X15650Y46063
X18799Y50750
X18799Y49250
X23130Y50750
X23130Y49250
X23130Y47563
X23130Y46063
X26083Y50750
X26083Y49250
X26083Y47563
X26083Y46063
X33661Y50927
X33661Y48998
X40945Y50750
X40945Y49250
X44291Y47563
X44291Y46063
X45472Y50750
X45472Y49250
X46654Y50750
X46654Y49250
X46654Y47563
X46654Y46063
X47835Y50750
X47835Y49250
X49114Y47563
X49114Y46063
X50394Y50750
X50394Y49250
X50394Y47563
X50394Y46063
X53150Y50750
X53150Y49250
X53150Y47207
X53150Y45707
X56496Y50750
X56496Y49250
X56496Y47207
X56496Y45707
X43317Y8115
X43317Y7131
X43317Y6147
X43317Y5162
X43317Y4178
X43317Y8124
X43317Y8124
X43317Y7140
X43317Y7140
X43317Y6156
X43317Y6156
X43317Y5171
X43317Y5171
X43317Y4187
X43317Y4187
T03
X4232Y37894
X5315Y46063
X5709Y33071
X5709Y31890
X6201Y37894
X6890Y46063
X6890Y33071
X6890Y31890
X7677Y9449
X7677Y7480
X7677Y5512
X7677Y3543
X8169Y37894
X10728Y46063
X11821Y7525
X12008Y46063
X12821Y7525
X13821Y7525
X14370Y49114
X14370Y46063
X14882Y33702
X14882Y32702
X14882Y30395
X14882Y29395
X14882Y27088
X14882Y26088
X14882Y23781
X14882Y22781
X14882Y17796
X14882Y16796
X15148Y38125
X15148Y37125
X15882Y33702
X15882Y32702
X15882Y30395
X15882Y29395
X15882Y27088
X15882Y26088
X15882Y23781
X15882Y22781
X15882Y17796
X15882Y16796
X16148Y38125
X16148Y37125
X17126Y49114
X17126Y46063
X18455Y38125
X18455Y37125
X18799Y46063
X19455Y38125
X19455Y37125
X19695Y7328
X21762Y38125
X21762Y37125
X22762Y38125
X22762Y37125
X25069Y38125
X25069Y37125
X26069Y38125
X26069Y37125
X34715Y38125
X34715Y37125
X35246Y5950
X35246Y3981
X35715Y38125
X35715Y37125
X38022Y38125
X38022Y37125
X39022Y38125
X39022Y37125
X41329Y38125
X41329Y37125
X42329Y38125
X42329Y37125
X42717Y49114
X42717Y46063
X43396Y12446
X43396Y10595
X44291Y49114
X44636Y38125
X44636Y37125
X44784Y33859
X44784Y32859
X45636Y38125
X45636Y37125
X45784Y33859
X45784Y32859
X49114Y49114
X52740Y42157
X52740Y41157
X52740Y40157
X52740Y39157
X52740Y38157
X52740Y36252
X52740Y35252
X52740Y34252
X52740Y33252
X52740Y32252
X53346Y16535
X53346Y15354
X53346Y14173
X53380Y20866
X53740Y42157
X53740Y41157
X53740Y40157
X53740Y39157
X53740Y38157
X53740Y36252
X53740Y35252
X53740Y34252
X53740Y33252
X53740Y32252
X54528Y16535
X54528Y15354
X54528Y14173
X54561Y20866
X54740Y42157
X54740Y41157
X54740Y40157
X54740Y39157
X54740Y38157
X54740Y36252
X54740Y35252
X54740Y34252
X54740Y33252
X54740Y32252
X55118Y45866
X56677Y42157
X56677Y41157
X56677Y40157
X56677Y39157
X56677Y38157
X56677Y36252
X56677Y35252
X56677Y34252
X56677Y33252
X56677Y32252
X57677Y42157
X57677Y41157
X57677Y40157
X57677Y39157
X57677Y38157
X57677Y36252
X57677Y35252
X57677Y34252
X57677Y33252
X57677Y32252
X58677Y42157
X58677Y41157
X58677Y40157
X58677Y39157
X58677Y38157
X58677Y36252
X58677Y35252
X58677Y34252
X58677Y33252
X58677Y32252
X6296Y55937
X6296Y54165
X7673Y55937
X7673Y54165
X8894Y55937
X8894Y54165
X10075Y55937
X10075Y54165
X11256Y55937
X11256Y54165
X12437Y55937
X12437Y54165
X13618Y55937
X13618Y54165
X14799Y55937
X14799Y54165
X15980Y55937
X15980Y54165
X17161Y55937
X17161Y54165
X18382Y55937
X18382Y54165
X20725Y55937
X20725Y54165
X21906Y55937
X21906Y54165
X23087Y55937
X23087Y54165
X24268Y55937
X24268Y54165
X25450Y55937
X25450Y54165
X26631Y55937
X26631Y54165
X28874Y55937
X28874Y54165
X30055Y55937
X30055Y54165
X31236Y55937
X31236Y54165
X32417Y55937
X32417Y54165
X33599Y55937
X33599Y54165
X34780Y55937
X34780Y54165
X35961Y55937
X35961Y54165
X37142Y55937
X37142Y54165
X39483Y55937
X39483Y54165
X40861Y55937
X40861Y54165
X42083Y55937
X42083Y54165
X43264Y55937
X43264Y54165
X44445Y55937
X44445Y54165
X45626Y55937
X45626Y54165
X46807Y55937
X46807Y54165
X47988Y55937
X47988Y54165
X49169Y55937
X49169Y54165
X50350Y55937
X50350Y54165
X51571Y55937
X51571Y54165
X52949Y55937
X52949Y54165
X54327Y55937
X54327Y54165
X4528Y31520
X8071Y31520
X54898Y17717
X54898Y12992
X54931Y22047
X54931Y19685
X11821Y7534
X11821Y7534
X12821Y7534
X12821Y7534
X13821Y7534
X13821Y7534
X14882Y33711
X14882Y33711
X14882Y32711
X14882Y32711
X14882Y30404
X14882Y30404
X14882Y29404
X14882Y29404
X14882Y27097
X14882Y27097
X14882Y26097
X14882Y26097
X14882Y23789
X14882Y23789
X14882Y22789
X14882Y22789
X14882Y17805
X14882Y17805
X14882Y16805
X14882Y16805
X15148Y38134
X15148Y38134
X15148Y37134
X15148Y37134
X15882Y33711
X15882Y33711
X15882Y32711
X15882Y32711
X15882Y30404
X15882Y30404
X15882Y29404
X15882Y29404
X15882Y27097
X15882Y27097
X15882Y26097
X15882Y26097
X15882Y23789
X15882Y23789
X15882Y22789
X15882Y22789
X15882Y17805
X15882Y17805
X15882Y16805
X15882Y16805
X16148Y38134
X16148Y38134
X16148Y37134
X16148Y37134
X18455Y38134
X18455Y38134
X18455Y37134
X18455Y37134
X19455Y38134
X19455Y38134
X19455Y37134
X19455Y37134
X19695Y7337
X19695Y7337
X21762Y38134
X21762Y38134
X21762Y37134
X21762Y37134
X22762Y38134
X22762Y38134
X22762Y37134
X22762Y37134
X25069Y38134
X25069Y38134
X25069Y37134
X25069Y37134
X26069Y38134
X26069Y38134
X26069Y37134
X26069Y37134
X34715Y38134
X34715Y38134
X34715Y37134
X34715Y37134
X35246Y5959
X35246Y5959
X35246Y3990
X35246Y3990
X35715Y38134
X35715Y38134
X35715Y37134
X35715Y37134
X38022Y38134
X38022Y38134
X38022Y37134
X38022Y37134
X39022Y38134
X39022Y38134
X39022Y37134
X39022Y37134
X41329Y38134
X41329Y38134
X41329Y37134
X41329Y37134
X42329Y38134
X42329Y38134
X42329Y37134
X42329Y37134
X43396Y12455
X43396Y12455
X43396Y10604
X43396Y10604
X44636Y38134
X44636Y38134
X44636Y37134
X44636Y37134
X44784Y33868
X44784Y33868
X44784Y32868
X44784Y32868
X45636Y38134
X45636Y38134
X45636Y37134
X45636Y37134
X45784Y33868
X45784Y33868
X45784Y32868
X45784Y32868
T04
X14291Y34021
X14291Y32367
X14291Y30714
X14291Y29060
X14291Y27407
X14291Y25753
X14291Y24099
X14291Y22446
X14291Y20792
X14291Y18115
X14291Y16462
X14291Y14808
X14291Y13155
X14813Y38716
X14813Y36550
X16457Y34021
X16457Y32367
X16457Y30714
X16457Y29060
X16457Y27407
X16457Y25753
X16457Y24099
X16457Y22446
X16457Y20792
X16457Y18115
X16457Y16462
X16457Y14808
X16457Y13155
X16467Y38716
X16467Y36550
X18120Y38716
X18120Y36550
X19774Y38716
X19774Y36550
X21427Y38716
X21427Y36550
X23081Y38716
X23081Y36550
X24734Y38716
X24734Y36550
X26388Y38716
X26388Y36550
X28041Y38716
X28041Y36550
X29695Y38716
X29695Y36550
X34380Y38716
X34380Y36550
X36034Y38716
X36034Y36550
X37687Y38716
X37687Y36550
X39341Y38716
X39341Y36550
X40994Y38716
X40994Y36550
X42648Y38716
X42648Y36550
X44193Y34178
X44193Y32525
X44193Y30871
X44301Y38716
X44301Y36550
X45955Y38716
X45955Y36550
X46358Y34178
X46358Y32525
X46358Y30871
X14291Y34030
X14291Y34030
X14291Y32376
X14291Y32376
X14291Y30723
X14291Y30723
X14291Y29069
X14291Y29069
X14291Y27415
X14291Y27415
X14291Y25762
X14291Y25762
X14291Y24108
X14291Y24108
X14291Y22455
X14291Y22455
X14291Y20801
X14291Y20801
X14291Y18124
X14291Y18124
X14291Y16471
X14291Y16471
X14291Y14817
X14291Y14817
X14291Y13163
X14291Y13163
X14813Y38725
X14813Y38725
X14813Y36559
X14813Y36559
X16457Y34030
X16457Y34030
X16457Y32376
X16457Y32376
X16457Y30723
X16457Y30723
X16457Y29069
X16457Y29069
X16457Y27415
X16457Y27415
X16457Y25762
X16457Y25762
X16457Y24108
X16457Y24108
X16457Y22455
X16457Y22455
X16457Y20801
X16457Y20801
X16457Y18124
X16457Y18124
X16457Y16471
X16457Y16471
X16457Y14817
X16457Y14817
X16457Y13163
X16457Y13163
X16467Y38725
X16467Y38725
X16467Y36559
X16467Y36559
X18120Y38725
X18120Y38725
X18120Y36559
X18120Y36559
X19774Y38725
X19774Y38725
X19774Y36559
X19774Y36559
X21427Y38725
X21427Y38725
X21427Y36559
X21427Y36559
X23081Y38725
X23081Y38725
X23081Y36559
X23081Y36559
X24734Y38725
X24734Y38725
X24734Y36559
X24734Y36559
X26388Y38725
X26388Y38725
X26388Y36559
X26388Y36559
X28041Y38725
X28041Y38725
X28041Y36559
X28041Y36559
X29695Y38725
X29695Y38725
X29695Y36559
X29695Y36559
X34380Y38725
X34380Y38725
X34380Y36559
X34380Y36559
X36034Y38725
X36034Y38725
X36034Y36559
X36034Y36559
X37687Y38725
X37687Y38725
X37687Y36559
X37687Y36559
X39341Y38725
X39341Y38725
X39341Y36559
X39341Y36559
X40994Y38725
X40994Y38725
X40994Y36559
X40994Y36559
X42648Y38725
X42648Y38725
X42648Y36559
X42648Y36559
X44193Y34187
X44193Y34187
X44193Y32534
X44193Y32534
X44193Y30880
X44193Y30880
X44301Y38725
X44301Y38725
X44301Y36559
X44301Y36559
X45955Y38725
X45955Y38725
X45955Y36559
X45955Y36559
X46358Y34187
X46358Y34187
X46358Y32534
X46358Y32534
X46358Y30880
X46358Y30880
T05
X6040Y58181
X19603Y58181
X38264Y58181
X54583Y58181
T06
X1969Y60591
X1969Y28307
X1969Y2008
X58642Y28307
X58661Y60591
X58661Y2008
M30
