G75*
G70*
%OFA0B0*%
%FSLAX25Y25*%
%IPPOS*%
%LPD*%
%AMOC8*
5,1,8,0,0,1.08239X$1,22.5*
%
%ADD10C,0.06000*%
%ADD11C,0.06693*%
%ADD12C,0.05906*%
%ADD13C,0.27559*%
%ADD14C,0.07087*%
%ADD15C,0.07874*%
%ADD16O,0.07283X0.06693*%
%ADD21C,0.03937*%
%ADD24C,0.13780*%
%ADD36O,0.06693X0.06693*%
X0000000Y0000000D02*
%LPD*%
G01*
D10*
X0119094Y0492500D03*
X0119094Y0507500D03*
X0095472Y0492500D03*
X0095472Y0507500D03*
D11*
X0187992Y0460630D03*
D10*
X0466535Y0492500D03*
X0466535Y0507500D03*
D11*
X0076772Y0074803D03*
X0427165Y0460630D03*
D10*
X0454724Y0492500D03*
X0454724Y0507500D03*
X0187992Y0492500D03*
X0187992Y0507500D03*
X0491142Y0460630D03*
X0491142Y0475630D03*
X0156496Y0460630D03*
X0156496Y0475630D03*
D11*
X0053150Y0460630D03*
D10*
X0531496Y0457067D03*
X0531496Y0472067D03*
D11*
X0551181Y0458661D03*
X0076772Y0035433D03*
D10*
X0083661Y0460630D03*
X0083661Y0475630D03*
X0130906Y0492500D03*
X0130906Y0507500D03*
D11*
X0120079Y0460630D03*
D10*
X0156496Y0492500D03*
X0156496Y0507500D03*
D21*
X0045276Y0315197D03*
X0080709Y0315197D03*
G36*
G01*
X0054134Y0328740D02*
X0054134Y0332677D01*
G75*
G02*
X0055118Y0333661I0000984J0000000D01*
G01*
X0059055Y0333661D01*
G75*
G02*
X0060039Y0332677I0000000J-000984D01*
G01*
X0060039Y0328740D01*
G75*
G02*
X0059055Y0327756I-000984J0000000D01*
G01*
X0055118Y0327756D01*
G75*
G02*
X0054134Y0328740I0000000J0000984D01*
G01*
G37*
D12*
X0068898Y0330709D03*
X0057087Y0318898D03*
X0068898Y0318898D03*
D10*
X0478346Y0492500D03*
X0478346Y0507500D03*
X0466535Y0460630D03*
X0466535Y0475630D03*
D11*
X0081693Y0378937D03*
X0171260Y0460630D03*
D10*
X0564961Y0457067D03*
X0564961Y0472067D03*
D11*
X0566772Y0381575D03*
X0566772Y0391575D03*
X0566772Y0401575D03*
X0566772Y0411575D03*
X0566772Y0421575D03*
X0576772Y0381575D03*
X0576772Y0391575D03*
X0576772Y0401575D03*
X0576772Y0411575D03*
X0576772Y0421575D03*
X0586772Y0381575D03*
X0586772Y0391575D03*
X0586772Y0401575D03*
X0586772Y0411575D03*
X0586772Y0421575D03*
D10*
X0442913Y0460630D03*
X0442913Y0475630D03*
D21*
X0548976Y0129921D03*
X0548976Y0177165D03*
G36*
G01*
X0535433Y0138780D02*
X0531496Y0138780D01*
G75*
G02*
X0530512Y0139764I0000000J0000984D01*
G01*
X0530512Y0143701D01*
G75*
G02*
X0531496Y0144685I0000984J0000000D01*
G01*
X0535433Y0144685D01*
G75*
G02*
X0536417Y0143701I0000000J-000984D01*
G01*
X0536417Y0139764D01*
G75*
G02*
X0535433Y0138780I-000984J0000000D01*
G01*
G37*
D12*
X0533465Y0153543D03*
X0533465Y0165354D03*
X0545276Y0141732D03*
X0545276Y0153543D03*
X0545276Y0165354D03*
D13*
X0586614Y0605906D03*
X0019685Y0283071D03*
D10*
X0107283Y0492500D03*
X0107283Y0507500D03*
X0503937Y0460630D03*
X0503937Y0475630D03*
X0083661Y0492500D03*
X0083661Y0507500D03*
X0231299Y0460630D03*
X0231299Y0475630D03*
D11*
X0068898Y0460630D03*
X0062008Y0378937D03*
D10*
X0057087Y0509272D03*
X0057087Y0489980D03*
D11*
X0427165Y0491142D03*
D10*
X0095472Y0460630D03*
X0095472Y0475630D03*
D11*
X0527402Y0381575D03*
X0527402Y0391575D03*
X0527402Y0401575D03*
X0527402Y0411575D03*
X0527402Y0421575D03*
X0537402Y0381575D03*
X0537402Y0391575D03*
X0537402Y0401575D03*
X0537402Y0411575D03*
X0537402Y0421575D03*
X0547402Y0381575D03*
X0547402Y0391575D03*
X0547402Y0401575D03*
X0547402Y0411575D03*
X0547402Y0421575D03*
D10*
X0231299Y0492500D03*
X0231299Y0507500D03*
D11*
X0527402Y0322520D03*
X0527402Y0332520D03*
X0527402Y0342520D03*
X0527402Y0352520D03*
X0527402Y0362520D03*
X0537402Y0322520D03*
X0537402Y0332520D03*
X0537402Y0342520D03*
X0537402Y0352520D03*
X0537402Y0362520D03*
X0547402Y0322520D03*
X0547402Y0332520D03*
X0547402Y0342520D03*
X0547402Y0352520D03*
X0547402Y0362520D03*
D24*
X0060398Y0581810D03*
X0196027Y0581810D03*
X0382642Y0581810D03*
X0545831Y0581810D03*
D14*
X0062957Y0541650D03*
X0076727Y0541650D03*
X0088937Y0541650D03*
X0100747Y0541650D03*
X0112557Y0541650D03*
X0124367Y0541650D03*
X0136177Y0541650D03*
X0147987Y0541650D03*
X0159797Y0541650D03*
X0171607Y0541650D03*
X0183817Y0541650D03*
X0062957Y0559370D03*
X0076727Y0559370D03*
X0088937Y0559370D03*
X0100747Y0559370D03*
X0112557Y0559370D03*
X0124367Y0559370D03*
X0136177Y0559370D03*
X0147987Y0559370D03*
X0159797Y0559370D03*
X0171607Y0559370D03*
X0183817Y0559370D03*
X0288744Y0541650D03*
X0300554Y0541650D03*
X0312364Y0541650D03*
X0324174Y0541650D03*
X0335994Y0541650D03*
X0347804Y0541650D03*
X0359614Y0541650D03*
X0371424Y0541650D03*
X0288744Y0559370D03*
X0300554Y0559370D03*
X0312364Y0559370D03*
X0324174Y0559370D03*
X0335994Y0559370D03*
X0347804Y0559370D03*
X0359614Y0559370D03*
X0371424Y0559370D03*
X0394834Y0541650D03*
X0408614Y0541650D03*
X0420834Y0541650D03*
X0432644Y0541650D03*
X0444454Y0541650D03*
X0456264Y0541650D03*
X0468074Y0541650D03*
X0479884Y0541650D03*
X0491694Y0541650D03*
X0503504Y0541650D03*
X0515714Y0541650D03*
X0529494Y0541650D03*
X0543274Y0541650D03*
X0394834Y0559370D03*
X0408614Y0559370D03*
X0420834Y0559370D03*
X0432644Y0559370D03*
X0444454Y0559370D03*
X0456264Y0559370D03*
X0468074Y0559370D03*
X0479884Y0559370D03*
X0491694Y0559370D03*
X0503504Y0559370D03*
X0515714Y0559370D03*
X0529494Y0559370D03*
X0543274Y0559370D03*
X0207248Y0541650D03*
X0219058Y0541650D03*
X0230868Y0541650D03*
X0242678Y0541650D03*
X0254498Y0541650D03*
X0266308Y0541650D03*
X0207248Y0559370D03*
X0219058Y0559370D03*
X0230868Y0559370D03*
X0242678Y0559370D03*
X0254498Y0559370D03*
X0266308Y0559370D03*
D13*
X0586420Y0283071D03*
X0586614Y0020079D03*
D11*
X0566772Y0322520D03*
X0566772Y0332520D03*
X0566772Y0342520D03*
X0566772Y0352520D03*
X0566772Y0362520D03*
X0576772Y0322520D03*
X0576772Y0332520D03*
X0576772Y0342520D03*
X0576772Y0352520D03*
X0576772Y0362520D03*
X0586772Y0322520D03*
X0586772Y0332520D03*
X0586772Y0342520D03*
X0586772Y0352520D03*
X0586772Y0362520D03*
X0442913Y0491142D03*
D10*
X0130906Y0460630D03*
X0130906Y0475630D03*
X0531496Y0492500D03*
X0531496Y0507500D03*
D15*
X0142914Y0131546D03*
X0142914Y0148081D03*
X0142914Y0164616D03*
D11*
X0148819Y0167963D03*
D15*
X0142914Y0181152D03*
D11*
X0148819Y0177963D03*
D15*
X0164567Y0131546D03*
X0164567Y0148081D03*
D11*
X0158819Y0167963D03*
D15*
X0164567Y0164616D03*
D11*
X0158819Y0177963D03*
D15*
X0164567Y0181152D03*
X0142914Y0207923D03*
X0142914Y0224459D03*
D11*
X0148819Y0227805D03*
D15*
X0142914Y0240994D03*
D11*
X0148819Y0237805D03*
D15*
X0142914Y0257530D03*
D11*
X0148819Y0260876D03*
D15*
X0142914Y0274065D03*
D11*
X0148819Y0270876D03*
D15*
X0142914Y0290601D03*
D11*
X0148819Y0293947D03*
D15*
X0142914Y0307136D03*
D11*
X0148819Y0303947D03*
D15*
X0142914Y0323672D03*
D11*
X0148819Y0327018D03*
D15*
X0142914Y0340207D03*
D11*
X0148819Y0337018D03*
D15*
X0164567Y0207923D03*
D11*
X0158819Y0227805D03*
D15*
X0164567Y0224459D03*
D11*
X0158819Y0237805D03*
D15*
X0164567Y0240994D03*
D11*
X0158819Y0260876D03*
D15*
X0164567Y0257530D03*
D11*
X0158819Y0270876D03*
D15*
X0164567Y0274065D03*
D11*
X0158819Y0293947D03*
D15*
X0164567Y0290601D03*
D11*
X0158819Y0303947D03*
D15*
X0164567Y0307136D03*
D11*
X0158819Y0327018D03*
D15*
X0164567Y0323672D03*
D11*
X0158819Y0337018D03*
D15*
X0164567Y0340207D03*
X0148130Y0387156D03*
D11*
X0151477Y0381250D03*
X0161477Y0381250D03*
D15*
X0164666Y0387156D03*
X0181201Y0387156D03*
D11*
X0184548Y0381250D03*
X0194548Y0381250D03*
D15*
X0197737Y0387156D03*
X0214272Y0387156D03*
D11*
X0217619Y0381250D03*
X0227619Y0381250D03*
D15*
X0230808Y0387156D03*
X0247343Y0387156D03*
D11*
X0250689Y0381250D03*
X0260689Y0381250D03*
D15*
X0263878Y0387156D03*
X0280414Y0387156D03*
X0296949Y0387156D03*
X0148130Y0365502D03*
D11*
X0151477Y0371250D03*
X0161477Y0371250D03*
D15*
X0164666Y0365502D03*
X0181201Y0365502D03*
D11*
X0184548Y0371250D03*
X0194548Y0371250D03*
D15*
X0197737Y0365502D03*
X0214272Y0365502D03*
D11*
X0217619Y0371250D03*
X0227619Y0371250D03*
D15*
X0230808Y0365502D03*
X0247343Y0365502D03*
D11*
X0250689Y0371250D03*
X0260689Y0371250D03*
D15*
X0263878Y0365502D03*
X0280414Y0365502D03*
X0296949Y0365502D03*
X0343800Y0387156D03*
D11*
X0347146Y0381250D03*
X0357146Y0381250D03*
D15*
X0360335Y0387156D03*
X0376871Y0387156D03*
D11*
X0380217Y0381250D03*
X0390217Y0381250D03*
D15*
X0393406Y0387156D03*
X0409941Y0387156D03*
D11*
X0413288Y0381250D03*
X0423288Y0381250D03*
D15*
X0426477Y0387156D03*
X0443012Y0387156D03*
D11*
X0446359Y0381250D03*
X0456359Y0381250D03*
D15*
X0459548Y0387156D03*
X0343800Y0365502D03*
D11*
X0347146Y0371250D03*
X0357146Y0371250D03*
D15*
X0360335Y0365502D03*
X0376871Y0365502D03*
D11*
X0380217Y0371250D03*
X0390217Y0371250D03*
D15*
X0393406Y0365502D03*
X0409941Y0365502D03*
D11*
X0413288Y0371250D03*
X0423288Y0371250D03*
D15*
X0426477Y0365502D03*
X0443012Y0365502D03*
D11*
X0446359Y0371250D03*
X0456359Y0371250D03*
D15*
X0459548Y0365502D03*
D11*
X0457835Y0338593D03*
D15*
X0463583Y0341782D03*
D11*
X0457835Y0328593D03*
D15*
X0463583Y0325246D03*
X0463583Y0308711D03*
X0441930Y0341782D03*
D11*
X0447835Y0338593D03*
D15*
X0441930Y0325246D03*
D11*
X0447835Y0328593D03*
D15*
X0441930Y0308711D03*
G36*
G01*
X0435827Y0038435D02*
X0430512Y0038435D01*
G75*
G02*
X0429528Y0039420I0000000J0000984D01*
G01*
X0429528Y0044144D01*
G75*
G02*
X0430512Y0045128I0000984J0000000D01*
G01*
X0435827Y0045128D01*
G75*
G02*
X0436812Y0044144I0000000J-000984D01*
G01*
X0436812Y0039420D01*
G75*
G02*
X0435827Y0038435I-000984J0000000D01*
G01*
G37*
D16*
X0433170Y0051624D03*
X0433170Y0061467D03*
X0433170Y0071309D03*
X0433170Y0081152D03*
D11*
X0352461Y0039813D03*
X0352461Y0059498D03*
X0433957Y0124459D03*
X0433957Y0105955D03*
X0128209Y0075246D03*
X0138209Y0075246D03*
X0118209Y0075246D03*
X0196949Y0073278D03*
X0143701Y0491142D03*
D10*
X0070866Y0492500D03*
X0070866Y0507500D03*
D11*
X0171260Y0491142D03*
D13*
X0019685Y0020079D03*
D11*
X0076772Y0055118D03*
D21*
X0549311Y0196850D03*
X0549311Y0220472D03*
G36*
G01*
X0535768Y0205709D02*
X0531831Y0205709D01*
G75*
G02*
X0530846Y0206693I0000000J0000984D01*
G01*
X0530846Y0210630D01*
G75*
G02*
X0531831Y0211614I0000984J0000000D01*
G01*
X0535768Y0211614D01*
G75*
G02*
X0536752Y0210630I0000000J-000984D01*
G01*
X0536752Y0206693D01*
G75*
G02*
X0535768Y0205709I-000984J0000000D01*
G01*
G37*
D12*
X0545610Y0208661D03*
D11*
X0076772Y0094488D03*
D10*
X0260827Y0460630D03*
X0260827Y0475630D03*
X0503937Y0492500D03*
X0503937Y0507500D03*
X0409449Y0492500D03*
X0409449Y0507500D03*
D11*
X0143701Y0460630D03*
X0491142Y0491142D03*
D10*
X0564961Y0492500D03*
X0564961Y0507500D03*
X0260827Y0492500D03*
X0260827Y0507500D03*
X0336614Y0509272D03*
X0336614Y0489980D03*
D11*
X0042323Y0378937D03*
X0107283Y0460630D03*
D13*
X0019685Y0605906D03*
X0106299Y0029971D02*
%LPD*%
G01*
D15*
X0142914Y0131645D03*
X0142914Y0148180D03*
X0142914Y0164716D03*
D11*
X0148819Y0168062D03*
D15*
X0142914Y0181251D03*
D11*
X0148819Y0178062D03*
D15*
X0164567Y0131645D03*
X0164567Y0148180D03*
D11*
X0158819Y0168062D03*
D15*
X0164567Y0164716D03*
D11*
X0158819Y0178062D03*
D15*
X0164567Y0181251D03*
X0142914Y0208023D03*
X0142914Y0224558D03*
D11*
X0148819Y0227905D03*
D15*
X0142914Y0241094D03*
D11*
X0148819Y0237905D03*
D15*
X0142914Y0257629D03*
D11*
X0148819Y0260976D03*
D15*
X0142914Y0274164D03*
D11*
X0148819Y0270976D03*
D15*
X0142914Y0290700D03*
D11*
X0148819Y0294046D03*
D15*
X0142914Y0307235D03*
D11*
X0148819Y0304046D03*
D15*
X0142914Y0323771D03*
D11*
X0148819Y0327117D03*
D15*
X0142914Y0340306D03*
D11*
X0148819Y0337117D03*
D15*
X0164567Y0208023D03*
D11*
X0158819Y0227905D03*
D15*
X0164567Y0224558D03*
D11*
X0158819Y0237905D03*
D15*
X0164567Y0241094D03*
D11*
X0158819Y0260976D03*
D15*
X0164567Y0257629D03*
D11*
X0158819Y0270976D03*
D15*
X0164567Y0274164D03*
D11*
X0158819Y0294046D03*
D15*
X0164567Y0290700D03*
D11*
X0158819Y0304046D03*
D15*
X0164567Y0307235D03*
D11*
X0158819Y0327117D03*
D15*
X0164567Y0323771D03*
D11*
X0158819Y0337117D03*
D15*
X0164567Y0340306D03*
X0148130Y0387255D03*
D11*
X0151477Y0381350D03*
X0161477Y0381350D03*
D15*
X0164666Y0387255D03*
X0181201Y0387255D03*
D11*
X0184548Y0381350D03*
X0194548Y0381350D03*
D15*
X0197737Y0387255D03*
X0214272Y0387255D03*
D11*
X0217618Y0381350D03*
X0227618Y0381350D03*
D15*
X0230807Y0387255D03*
X0247343Y0387255D03*
D11*
X0250689Y0381350D03*
X0260689Y0381350D03*
D15*
X0263878Y0387255D03*
X0280414Y0387255D03*
X0296949Y0387255D03*
X0148130Y0365601D03*
D11*
X0151477Y0371350D03*
X0161477Y0371350D03*
D15*
X0164666Y0365601D03*
X0181201Y0365601D03*
D11*
X0184548Y0371350D03*
X0194548Y0371350D03*
D15*
X0197737Y0365601D03*
X0214272Y0365601D03*
D11*
X0217618Y0371350D03*
X0227618Y0371350D03*
D15*
X0230807Y0365601D03*
X0247343Y0365601D03*
D11*
X0250689Y0371350D03*
X0260689Y0371350D03*
D15*
X0263878Y0365601D03*
X0280414Y0365601D03*
X0296949Y0365601D03*
X0343799Y0387255D03*
D11*
X0347146Y0381350D03*
X0357146Y0381350D03*
D15*
X0360335Y0387255D03*
X0376870Y0387255D03*
D11*
X0380217Y0381350D03*
X0390217Y0381350D03*
D15*
X0393406Y0387255D03*
X0409941Y0387255D03*
D11*
X0413288Y0381350D03*
X0423288Y0381350D03*
D15*
X0426477Y0387255D03*
X0443012Y0387255D03*
D11*
X0446359Y0381350D03*
X0456359Y0381350D03*
D15*
X0459548Y0387255D03*
X0343799Y0365601D03*
D11*
X0347146Y0371350D03*
X0357146Y0371350D03*
D15*
X0360335Y0365601D03*
X0376870Y0365601D03*
D11*
X0380217Y0371350D03*
X0390217Y0371350D03*
D15*
X0393406Y0365601D03*
X0409941Y0365601D03*
D11*
X0413288Y0371350D03*
X0423288Y0371350D03*
D15*
X0426477Y0365601D03*
X0443012Y0365601D03*
D11*
X0446359Y0371350D03*
X0456359Y0371350D03*
D15*
X0459548Y0365601D03*
D11*
X0457835Y0338692D03*
D15*
X0463583Y0341881D03*
D11*
X0457835Y0328692D03*
D15*
X0463583Y0325346D03*
X0463583Y0308810D03*
X0441929Y0341881D03*
D11*
X0447835Y0338692D03*
D15*
X0441929Y0325346D03*
D11*
X0447835Y0328692D03*
D15*
X0441929Y0308810D03*
G36*
G01*
X0435827Y0038535D02*
X0430512Y0038535D01*
G75*
G02*
X0429528Y0039519I0000000J0000984D01*
G01*
X0429528Y0044243D01*
G75*
G02*
X0430512Y0045227I0000984J0000000D01*
G01*
X0435827Y0045227D01*
G75*
G02*
X0436811Y0044243I0000000J-000984D01*
G01*
X0436811Y0039519D01*
G75*
G02*
X0435827Y0038535I-000984J0000000D01*
G01*
G37*
D16*
X0433170Y0051724D03*
X0433170Y0061566D03*
X0433170Y0071409D03*
X0433170Y0081251D03*
D11*
X0352461Y0039913D03*
X0352461Y0059598D03*
X0433957Y0124558D03*
X0433957Y0106054D03*
X0128209Y0075346D03*
X0138209Y0075346D03*
X0118209Y0075346D03*
X0196949Y0073377D03*
D15*
X0142914Y0181251D03*
D36*
X0380217Y0381350D03*
X0390217Y0381350D03*
X0380217Y0371350D03*
X0390217Y0371350D03*
D15*
X0164567Y0241094D03*
X0459548Y0387255D03*
X0164567Y0224558D03*
X0181201Y0387255D03*
X0142914Y0290700D03*
X0343799Y0387255D03*
X0459548Y0365601D03*
X0142914Y0274164D03*
X0142914Y0257629D03*
X0296949Y0387255D03*
X0441929Y0325346D03*
X0426477Y0387255D03*
X0280414Y0387255D03*
X0230807Y0387255D03*
X0142914Y0340306D03*
X0463583Y0308810D03*
D11*
X0433957Y0106054D03*
D36*
X0250689Y0381350D03*
X0260689Y0381350D03*
X0250689Y0371350D03*
X0260689Y0371350D03*
D15*
X0426477Y0365601D03*
X0197737Y0387255D03*
D11*
X0433957Y0124558D03*
D15*
X0142914Y0241094D03*
X0247343Y0387255D03*
X0247343Y0365601D03*
X0443012Y0365601D03*
X0164567Y0181251D03*
D36*
X0148819Y0337117D03*
X0158819Y0337117D03*
X0148819Y0327117D03*
X0158819Y0327117D03*
D15*
X0164567Y0323771D03*
X0360335Y0387255D03*
X0376870Y0387255D03*
D36*
X0148819Y0237905D03*
X0158819Y0237905D03*
X0148819Y0227905D03*
X0158819Y0227905D03*
G36*
G01*
X0435827Y0038535D02*
X0430512Y0038535D01*
G75*
G02*
X0429528Y0039519I0000000J0000984D01*
G01*
X0429528Y0044243D01*
G75*
G02*
X0430512Y0045227I0000984J0000000D01*
G01*
X0435827Y0045227D01*
G75*
G02*
X0436811Y0044243I0000000J-000984D01*
G01*
X0436811Y0039519D01*
G75*
G02*
X0435827Y0038535I-000984J0000000D01*
G01*
G37*
D16*
X0433170Y0051724D03*
X0433170Y0061566D03*
X0433170Y0071409D03*
X0433170Y0081251D03*
D36*
X0148819Y0304046D03*
X0158819Y0304046D03*
X0148819Y0294046D03*
X0158819Y0294046D03*
D15*
X0360335Y0365601D03*
X0409941Y0365601D03*
X0393406Y0387255D03*
X0164567Y0148180D03*
X0263878Y0365601D03*
X0164567Y0290700D03*
X0343799Y0365601D03*
D36*
X0446359Y0381350D03*
X0456359Y0381350D03*
X0446359Y0371350D03*
X0456359Y0371350D03*
D15*
X0142914Y0148180D03*
X0148130Y0387255D03*
D36*
X0447835Y0338692D03*
X0457835Y0338692D03*
X0447835Y0328692D03*
X0457835Y0328692D03*
D15*
X0441929Y0341881D03*
X0393406Y0365601D03*
X0142914Y0307235D03*
X0181201Y0365601D03*
D36*
X0347146Y0381350D03*
X0357146Y0381350D03*
X0347146Y0371350D03*
X0357146Y0371350D03*
D11*
X0352461Y0059598D03*
D36*
X0148819Y0178062D03*
X0158819Y0178062D03*
X0148819Y0168062D03*
X0158819Y0168062D03*
D15*
X0230807Y0365601D03*
X0142914Y0164716D03*
D36*
X0118209Y0075346D03*
X0128209Y0075346D03*
X0138209Y0075346D03*
X0151477Y0381350D03*
X0161477Y0381350D03*
X0151477Y0371350D03*
X0161477Y0371350D03*
D15*
X0164567Y0340306D03*
X0142914Y0208023D03*
X0443012Y0387255D03*
X0463583Y0325346D03*
D11*
X0196949Y0073377D03*
D15*
X0214272Y0365601D03*
X0463583Y0341881D03*
X0164567Y0164716D03*
X0263878Y0387255D03*
X0280414Y0365601D03*
D36*
X0217618Y0381350D03*
X0227618Y0381350D03*
X0217618Y0371350D03*
X0227618Y0371350D03*
X0413288Y0381350D03*
X0423288Y0381350D03*
X0413288Y0371350D03*
X0423288Y0371350D03*
X0184548Y0381350D03*
X0194548Y0381350D03*
X0184548Y0371350D03*
X0194548Y0371350D03*
D15*
X0164567Y0274164D03*
X0164666Y0387255D03*
X0142914Y0323771D03*
X0142914Y0131645D03*
D36*
X0148819Y0270976D03*
X0158819Y0270976D03*
X0148819Y0260976D03*
X0158819Y0260976D03*
D15*
X0148130Y0365601D03*
X0296949Y0365601D03*
X0409941Y0387255D03*
D11*
X0352461Y0039913D03*
D15*
X0197737Y0365601D03*
X0214272Y0387255D03*
X0164666Y0365601D03*
X0164567Y0257629D03*
X0164567Y0131645D03*
X0441929Y0308810D03*
X0164567Y0307235D03*
X0142914Y0224558D03*
X0376870Y0365601D03*
X0164567Y0208023D03*
M02*
