G04 #@! TF.GenerationSoftware,KiCad,Pcbnew,8.0.9-8.0.9-0~ubuntu24.04.1*
G04 #@! TF.CreationDate,2026-01-28T02:48:22+00:00*
G04 #@! TF.ProjectId,uaefi-adapter-NA-90-95,75616566-692d-4616-9461-707465722d4e,b*
G04 #@! TF.SameCoordinates,Original*
G04 #@! TF.FileFunction,Paste,Top*
G04 #@! TF.FilePolarity,Positive*
%FSLAX46Y46*%
G04 Gerber Fmt 4.6, Leading zero omitted, Abs format (unit mm)*
G04 Created by KiCad (PCBNEW 8.0.9-8.0.9-0~ubuntu24.04.1) date 2026-01-28 02:48:22*
%MOMM*%
%LPD*%
G01*
G04 APERTURE LIST*
G04 APERTURE END LIST*
G04 #@! TO.C,R17*
G36*
G01*
X30874999Y125549998D02*
X29624999Y125549998D01*
G75*
G02*
X29524999Y125649998I0J100000D01*
G01*
X29524999Y126449998D01*
G75*
G02*
X29624999Y126549998I100000J0D01*
G01*
X30874999Y126549998D01*
G75*
G02*
X30974999Y126449998I0J-100000D01*
G01*
X30974999Y125649998D01*
G75*
G02*
X30874999Y125549998I-100000J0D01*
G01*
G37*
G36*
G01*
X30874999Y127450020D02*
X29624999Y127450020D01*
G75*
G02*
X29524999Y127550020I0J100000D01*
G01*
X29524999Y128350020D01*
G75*
G02*
X29624999Y128450020I100000J0D01*
G01*
X30874999Y128450020D01*
G75*
G02*
X30974999Y128350020I0J-100000D01*
G01*
X30974999Y127550020D01*
G75*
G02*
X30874999Y127450020I-100000J0D01*
G01*
G37*
G04 #@! TD*
G04 #@! TO.C,R15*
G36*
G01*
X24874999Y125549998D02*
X23624999Y125549998D01*
G75*
G02*
X23524999Y125649998I0J100000D01*
G01*
X23524999Y126449998D01*
G75*
G02*
X23624999Y126549998I100000J0D01*
G01*
X24874999Y126549998D01*
G75*
G02*
X24974999Y126449998I0J-100000D01*
G01*
X24974999Y125649998D01*
G75*
G02*
X24874999Y125549998I-100000J0D01*
G01*
G37*
G36*
G01*
X24874999Y127450020D02*
X23624999Y127450020D01*
G75*
G02*
X23524999Y127550020I0J100000D01*
G01*
X23524999Y128350020D01*
G75*
G02*
X23624999Y128450020I100000J0D01*
G01*
X24874999Y128450020D01*
G75*
G02*
X24974999Y128350020I0J-100000D01*
G01*
X24974999Y127550020D01*
G75*
G02*
X24874999Y127450020I-100000J0D01*
G01*
G37*
G04 #@! TD*
G04 #@! TO.C,R58*
G36*
G01*
X119124999Y125549998D02*
X117874999Y125549998D01*
G75*
G02*
X117774999Y125649998I0J100000D01*
G01*
X117774999Y126449998D01*
G75*
G02*
X117874999Y126549998I100000J0D01*
G01*
X119124999Y126549998D01*
G75*
G02*
X119224999Y126449998I0J-100000D01*
G01*
X119224999Y125649998D01*
G75*
G02*
X119124999Y125549998I-100000J0D01*
G01*
G37*
G36*
G01*
X119124999Y127450020D02*
X117874999Y127450020D01*
G75*
G02*
X117774999Y127550020I0J100000D01*
G01*
X117774999Y128350020D01*
G75*
G02*
X117874999Y128450020I100000J0D01*
G01*
X119124999Y128450020D01*
G75*
G02*
X119224999Y128350020I0J-100000D01*
G01*
X119224999Y127550020D01*
G75*
G02*
X119124999Y127450020I-100000J0D01*
G01*
G37*
G04 #@! TD*
G04 #@! TO.C,R57*
G36*
G01*
X116124999Y125549998D02*
X114874999Y125549998D01*
G75*
G02*
X114774999Y125649998I0J100000D01*
G01*
X114774999Y126449998D01*
G75*
G02*
X114874999Y126549998I100000J0D01*
G01*
X116124999Y126549998D01*
G75*
G02*
X116224999Y126449998I0J-100000D01*
G01*
X116224999Y125649998D01*
G75*
G02*
X116124999Y125549998I-100000J0D01*
G01*
G37*
G36*
G01*
X116124999Y127450020D02*
X114874999Y127450020D01*
G75*
G02*
X114774999Y127550020I0J100000D01*
G01*
X114774999Y128350020D01*
G75*
G02*
X114874999Y128450020I100000J0D01*
G01*
X116124999Y128450020D01*
G75*
G02*
X116224999Y128350020I0J-100000D01*
G01*
X116224999Y127550020D01*
G75*
G02*
X116124999Y127450020I-100000J0D01*
G01*
G37*
G04 #@! TD*
G04 #@! TO.C,R22*
G36*
G01*
X48374999Y125549998D02*
X47124999Y125549998D01*
G75*
G02*
X47024999Y125649998I0J100000D01*
G01*
X47024999Y126449998D01*
G75*
G02*
X47124999Y126549998I100000J0D01*
G01*
X48374999Y126549998D01*
G75*
G02*
X48474999Y126449998I0J-100000D01*
G01*
X48474999Y125649998D01*
G75*
G02*
X48374999Y125549998I-100000J0D01*
G01*
G37*
G36*
G01*
X48374999Y127450020D02*
X47124999Y127450020D01*
G75*
G02*
X47024999Y127550020I0J100000D01*
G01*
X47024999Y128350020D01*
G75*
G02*
X47124999Y128450020I100000J0D01*
G01*
X48374999Y128450020D01*
G75*
G02*
X48474999Y128350020I0J-100000D01*
G01*
X48474999Y127550020D01*
G75*
G02*
X48374999Y127450020I-100000J0D01*
G01*
G37*
G04 #@! TD*
G04 #@! TO.C,R46*
G36*
G01*
X125374999Y117454998D02*
X124124999Y117454998D01*
G75*
G02*
X124024999Y117554998I0J100000D01*
G01*
X124024999Y118354998D01*
G75*
G02*
X124124999Y118454998I100000J0D01*
G01*
X125374999Y118454998D01*
G75*
G02*
X125474999Y118354998I0J-100000D01*
G01*
X125474999Y117554998D01*
G75*
G02*
X125374999Y117454998I-100000J0D01*
G01*
G37*
G36*
G01*
X125374999Y119355020D02*
X124124999Y119355020D01*
G75*
G02*
X124024999Y119455020I0J100000D01*
G01*
X124024999Y120255020D01*
G75*
G02*
X124124999Y120355020I100000J0D01*
G01*
X125374999Y120355020D01*
G75*
G02*
X125474999Y120255020I0J-100000D01*
G01*
X125474999Y119455020D01*
G75*
G02*
X125374999Y119355020I-100000J0D01*
G01*
G37*
G04 #@! TD*
G04 #@! TO.C,R9*
G36*
G01*
X40374999Y117454998D02*
X39124999Y117454998D01*
G75*
G02*
X39024999Y117554998I0J100000D01*
G01*
X39024999Y118354998D01*
G75*
G02*
X39124999Y118454998I100000J0D01*
G01*
X40374999Y118454998D01*
G75*
G02*
X40474999Y118354998I0J-100000D01*
G01*
X40474999Y117554998D01*
G75*
G02*
X40374999Y117454998I-100000J0D01*
G01*
G37*
G36*
G01*
X40374999Y119355020D02*
X39124999Y119355020D01*
G75*
G02*
X39024999Y119455020I0J100000D01*
G01*
X39024999Y120255020D01*
G75*
G02*
X39124999Y120355020I100000J0D01*
G01*
X40374999Y120355020D01*
G75*
G02*
X40474999Y120255020I0J-100000D01*
G01*
X40474999Y119455020D01*
G75*
G02*
X40374999Y119355020I-100000J0D01*
G01*
G37*
G04 #@! TD*
G04 #@! TO.C,R49_51*
G36*
G01*
X135624999Y116549998D02*
X134374999Y116549998D01*
G75*
G02*
X134274999Y116649998I0J100000D01*
G01*
X134274999Y117449998D01*
G75*
G02*
X134374999Y117549998I100000J0D01*
G01*
X135624999Y117549998D01*
G75*
G02*
X135724999Y117449998I0J-100000D01*
G01*
X135724999Y116649998D01*
G75*
G02*
X135624999Y116549998I-100000J0D01*
G01*
G37*
G36*
G01*
X135624999Y118450020D02*
X134374999Y118450020D01*
G75*
G02*
X134274999Y118550020I0J100000D01*
G01*
X134274999Y119350020D01*
G75*
G02*
X134374999Y119450020I100000J0D01*
G01*
X135624999Y119450020D01*
G75*
G02*
X135724999Y119350020I0J-100000D01*
G01*
X135724999Y118550020D01*
G75*
G02*
X135624999Y118450020I-100000J0D01*
G01*
G37*
G04 #@! TD*
G04 #@! TO.C,R3*
G36*
G01*
X21874999Y117454998D02*
X20624999Y117454998D01*
G75*
G02*
X20524999Y117554998I0J100000D01*
G01*
X20524999Y118354998D01*
G75*
G02*
X20624999Y118454998I100000J0D01*
G01*
X21874999Y118454998D01*
G75*
G02*
X21974999Y118354998I0J-100000D01*
G01*
X21974999Y117554998D01*
G75*
G02*
X21874999Y117454998I-100000J0D01*
G01*
G37*
G36*
G01*
X21874999Y119355020D02*
X20624999Y119355020D01*
G75*
G02*
X20524999Y119455020I0J100000D01*
G01*
X20524999Y120255020D01*
G75*
G02*
X20624999Y120355020I100000J0D01*
G01*
X21874999Y120355020D01*
G75*
G02*
X21974999Y120255020I0J-100000D01*
G01*
X21974999Y119455020D01*
G75*
G02*
X21874999Y119355020I-100000J0D01*
G01*
G37*
G04 #@! TD*
G04 #@! TO.C,R18*
G36*
G01*
X33874999Y125549998D02*
X32624999Y125549998D01*
G75*
G02*
X32524999Y125649998I0J100000D01*
G01*
X32524999Y126449998D01*
G75*
G02*
X32624999Y126549998I100000J0D01*
G01*
X33874999Y126549998D01*
G75*
G02*
X33974999Y126449998I0J-100000D01*
G01*
X33974999Y125649998D01*
G75*
G02*
X33874999Y125549998I-100000J0D01*
G01*
G37*
G36*
G01*
X33874999Y127450020D02*
X32624999Y127450020D01*
G75*
G02*
X32524999Y127550020I0J100000D01*
G01*
X32524999Y128350020D01*
G75*
G02*
X32624999Y128450020I100000J0D01*
G01*
X33874999Y128450020D01*
G75*
G02*
X33974999Y128350020I0J-100000D01*
G01*
X33974999Y127550020D01*
G75*
G02*
X33874999Y127450020I-100000J0D01*
G01*
G37*
G04 #@! TD*
G04 #@! TO.C,R20*
G36*
G01*
X40374999Y125549998D02*
X39124999Y125549998D01*
G75*
G02*
X39024999Y125649998I0J100000D01*
G01*
X39024999Y126449998D01*
G75*
G02*
X39124999Y126549998I100000J0D01*
G01*
X40374999Y126549998D01*
G75*
G02*
X40474999Y126449998I0J-100000D01*
G01*
X40474999Y125649998D01*
G75*
G02*
X40374999Y125549998I-100000J0D01*
G01*
G37*
G36*
G01*
X40374999Y127450020D02*
X39124999Y127450020D01*
G75*
G02*
X39024999Y127550020I0J100000D01*
G01*
X39024999Y128350020D01*
G75*
G02*
X39124999Y128450020I100000J0D01*
G01*
X40374999Y128450020D01*
G75*
G02*
X40474999Y128350020I0J-100000D01*
G01*
X40474999Y127550020D01*
G75*
G02*
X40374999Y127450020I-100000J0D01*
G01*
G37*
G04 #@! TD*
G04 #@! TO.C,D1*
G36*
G01*
X93489999Y122449999D02*
X94509999Y122449999D01*
G75*
G02*
X94599999Y122359999I0J-90000D01*
G01*
X94599999Y121639999D01*
G75*
G02*
X94509999Y121549999I-90000J0D01*
G01*
X93489999Y121549999D01*
G75*
G02*
X93399999Y121639999I0J90000D01*
G01*
X93399999Y122359999D01*
G75*
G02*
X93489999Y122449999I90000J0D01*
G01*
G37*
G36*
G01*
X93489999Y119149999D02*
X94509999Y119149999D01*
G75*
G02*
X94599999Y119059999I0J-90000D01*
G01*
X94599999Y118339999D01*
G75*
G02*
X94509999Y118249999I-90000J0D01*
G01*
X93489999Y118249999D01*
G75*
G02*
X93399999Y118339999I0J90000D01*
G01*
X93399999Y119059999D01*
G75*
G02*
X93489999Y119149999I90000J0D01*
G01*
G37*
G04 #@! TD*
G04 #@! TO.C,R46_61*
G36*
G01*
X122124999Y125549998D02*
X120874999Y125549998D01*
G75*
G02*
X120774999Y125649998I0J100000D01*
G01*
X120774999Y126449998D01*
G75*
G02*
X120874999Y126549998I100000J0D01*
G01*
X122124999Y126549998D01*
G75*
G02*
X122224999Y126449998I0J-100000D01*
G01*
X122224999Y125649998D01*
G75*
G02*
X122124999Y125549998I-100000J0D01*
G01*
G37*
G36*
G01*
X122124999Y127450020D02*
X120874999Y127450020D01*
G75*
G02*
X120774999Y127550020I0J100000D01*
G01*
X120774999Y128350020D01*
G75*
G02*
X120874999Y128450020I100000J0D01*
G01*
X122124999Y128450020D01*
G75*
G02*
X122224999Y128350020I0J-100000D01*
G01*
X122224999Y127550020D01*
G75*
G02*
X122124999Y127450020I-100000J0D01*
G01*
G37*
G04 #@! TD*
G04 #@! TO.C,R45*
G36*
G01*
X119124999Y117454998D02*
X117874999Y117454998D01*
G75*
G02*
X117774999Y117554998I0J100000D01*
G01*
X117774999Y118354998D01*
G75*
G02*
X117874999Y118454998I100000J0D01*
G01*
X119124999Y118454998D01*
G75*
G02*
X119224999Y118354998I0J-100000D01*
G01*
X119224999Y117554998D01*
G75*
G02*
X119124999Y117454998I-100000J0D01*
G01*
G37*
G36*
G01*
X119124999Y119355020D02*
X117874999Y119355020D01*
G75*
G02*
X117774999Y119455020I0J100000D01*
G01*
X117774999Y120255020D01*
G75*
G02*
X117874999Y120355020I100000J0D01*
G01*
X119124999Y120355020D01*
G75*
G02*
X119224999Y120255020I0J-100000D01*
G01*
X119224999Y119455020D01*
G75*
G02*
X119124999Y119355020I-100000J0D01*
G01*
G37*
G04 #@! TD*
G04 #@! TO.C,R51*
G36*
G01*
X144124999Y116549998D02*
X142874999Y116549998D01*
G75*
G02*
X142774999Y116649998I0J100000D01*
G01*
X142774999Y117449998D01*
G75*
G02*
X142874999Y117549998I100000J0D01*
G01*
X144124999Y117549998D01*
G75*
G02*
X144224999Y117449998I0J-100000D01*
G01*
X144224999Y116649998D01*
G75*
G02*
X144124999Y116549998I-100000J0D01*
G01*
G37*
G36*
G01*
X144124999Y118450020D02*
X142874999Y118450020D01*
G75*
G02*
X142774999Y118550020I0J100000D01*
G01*
X142774999Y119350020D01*
G75*
G02*
X142874999Y119450020I100000J0D01*
G01*
X144124999Y119450020D01*
G75*
G02*
X144224999Y119350020I0J-100000D01*
G01*
X144224999Y118550020D01*
G75*
G02*
X144124999Y118450020I-100000J0D01*
G01*
G37*
G04 #@! TD*
G04 #@! TO.C,R43*
G36*
G01*
X113124999Y117454998D02*
X111874999Y117454998D01*
G75*
G02*
X111774999Y117554998I0J100000D01*
G01*
X111774999Y118354998D01*
G75*
G02*
X111874999Y118454998I100000J0D01*
G01*
X113124999Y118454998D01*
G75*
G02*
X113224999Y118354998I0J-100000D01*
G01*
X113224999Y117554998D01*
G75*
G02*
X113124999Y117454998I-100000J0D01*
G01*
G37*
G36*
G01*
X113124999Y119355020D02*
X111874999Y119355020D01*
G75*
G02*
X111774999Y119455020I0J100000D01*
G01*
X111774999Y120255020D01*
G75*
G02*
X111874999Y120355020I100000J0D01*
G01*
X113124999Y120355020D01*
G75*
G02*
X113224999Y120255020I0J-100000D01*
G01*
X113224999Y119455020D01*
G75*
G02*
X113124999Y119355020I-100000J0D01*
G01*
G37*
G04 #@! TD*
G04 #@! TO.C,D2*
G36*
G01*
X100524999Y120199999D02*
X100524999Y119899999D01*
G75*
G02*
X100374999Y119749999I-150000J0D01*
G01*
X99199999Y119749999D01*
G75*
G02*
X99049999Y119899999I0J150000D01*
G01*
X99049999Y120199999D01*
G75*
G02*
X99199999Y120349999I150000J0D01*
G01*
X100374999Y120349999D01*
G75*
G02*
X100524999Y120199999I0J-150000D01*
G01*
G37*
G36*
G01*
X98649999Y121149999D02*
X98649999Y120849999D01*
G75*
G02*
X98499999Y120699999I-150000J0D01*
G01*
X97324999Y120699999D01*
G75*
G02*
X97174999Y120849999I0J150000D01*
G01*
X97174999Y121149999D01*
G75*
G02*
X97324999Y121299999I150000J0D01*
G01*
X98499999Y121299999D01*
G75*
G02*
X98649999Y121149999I0J-150000D01*
G01*
G37*
G36*
G01*
X100524999Y122099999D02*
X100524999Y121799999D01*
G75*
G02*
X100374999Y121649999I-150000J0D01*
G01*
X99199999Y121649999D01*
G75*
G02*
X99049999Y121799999I0J150000D01*
G01*
X99049999Y122099999D01*
G75*
G02*
X99199999Y122249999I150000J0D01*
G01*
X100374999Y122249999D01*
G75*
G02*
X100524999Y122099999I0J-150000D01*
G01*
G37*
G04 #@! TD*
G04 #@! TO.C,R1*
G36*
G01*
X89374999Y122450000D02*
X90624999Y122450000D01*
G75*
G02*
X90724999Y122350000I0J-100000D01*
G01*
X90724999Y121550000D01*
G75*
G02*
X90624999Y121450000I-100000J0D01*
G01*
X89374999Y121450000D01*
G75*
G02*
X89274999Y121550000I0J100000D01*
G01*
X89274999Y122350000D01*
G75*
G02*
X89374999Y122450000I100000J0D01*
G01*
G37*
G36*
G01*
X89374999Y120549978D02*
X90624999Y120549978D01*
G75*
G02*
X90724999Y120449978I0J-100000D01*
G01*
X90724999Y119649978D01*
G75*
G02*
X90624999Y119549978I-100000J0D01*
G01*
X89374999Y119549978D01*
G75*
G02*
X89274999Y119649978I0J100000D01*
G01*
X89274999Y120449978D01*
G75*
G02*
X89374999Y120549978I100000J0D01*
G01*
G37*
G04 #@! TD*
G04 #@! TO.C,R16*
G36*
G01*
X27874999Y125549998D02*
X26624999Y125549998D01*
G75*
G02*
X26524999Y125649998I0J100000D01*
G01*
X26524999Y126449998D01*
G75*
G02*
X26624999Y126549998I100000J0D01*
G01*
X27874999Y126549998D01*
G75*
G02*
X27974999Y126449998I0J-100000D01*
G01*
X27974999Y125649998D01*
G75*
G02*
X27874999Y125549998I-100000J0D01*
G01*
G37*
G36*
G01*
X27874999Y127450020D02*
X26624999Y127450020D01*
G75*
G02*
X26524999Y127550020I0J100000D01*
G01*
X26524999Y128350020D01*
G75*
G02*
X26624999Y128450020I100000J0D01*
G01*
X27874999Y128450020D01*
G75*
G02*
X27974999Y128350020I0J-100000D01*
G01*
X27974999Y127550020D01*
G75*
G02*
X27874999Y127450020I-100000J0D01*
G01*
G37*
G04 #@! TD*
G04 #@! TO.C,R48*
G36*
G01*
X128624999Y117454998D02*
X127374999Y117454998D01*
G75*
G02*
X127274999Y117554998I0J100000D01*
G01*
X127274999Y118354998D01*
G75*
G02*
X127374999Y118454998I100000J0D01*
G01*
X128624999Y118454998D01*
G75*
G02*
X128724999Y118354998I0J-100000D01*
G01*
X128724999Y117554998D01*
G75*
G02*
X128624999Y117454998I-100000J0D01*
G01*
G37*
G36*
G01*
X128624999Y119355020D02*
X127374999Y119355020D01*
G75*
G02*
X127274999Y119455020I0J100000D01*
G01*
X127274999Y120255020D01*
G75*
G02*
X127374999Y120355020I100000J0D01*
G01*
X128624999Y120355020D01*
G75*
G02*
X128724999Y120255020I0J-100000D01*
G01*
X128724999Y119455020D01*
G75*
G02*
X128624999Y119355020I-100000J0D01*
G01*
G37*
G04 #@! TD*
G04 #@! TO.C,C1*
G36*
G01*
X94339999Y113994997D02*
X93659999Y113994997D01*
G75*
G02*
X93574999Y114079997I0J85000D01*
G01*
X93574999Y114759997D01*
G75*
G02*
X93659999Y114844997I85000J0D01*
G01*
X94339999Y114844997D01*
G75*
G02*
X94424999Y114759997I0J-85000D01*
G01*
X94424999Y114079997D01*
G75*
G02*
X94339999Y113994997I-85000J0D01*
G01*
G37*
G36*
G01*
X94339999Y115574999D02*
X93659999Y115574999D01*
G75*
G02*
X93574999Y115659999I0J85000D01*
G01*
X93574999Y116339999D01*
G75*
G02*
X93659999Y116424999I85000J0D01*
G01*
X94339999Y116424999D01*
G75*
G02*
X94424999Y116339999I0J-85000D01*
G01*
X94424999Y115659999D01*
G75*
G02*
X94339999Y115574999I-85000J0D01*
G01*
G37*
G04 #@! TD*
G04 #@! TO.C,R14*
G36*
G01*
X21874999Y125549998D02*
X20624999Y125549998D01*
G75*
G02*
X20524999Y125649998I0J100000D01*
G01*
X20524999Y126449998D01*
G75*
G02*
X20624999Y126549998I100000J0D01*
G01*
X21874999Y126549998D01*
G75*
G02*
X21974999Y126449998I0J-100000D01*
G01*
X21974999Y125649998D01*
G75*
G02*
X21874999Y125549998I-100000J0D01*
G01*
G37*
G36*
G01*
X21874999Y127450020D02*
X20624999Y127450020D01*
G75*
G02*
X20524999Y127550020I0J100000D01*
G01*
X20524999Y128350020D01*
G75*
G02*
X20624999Y128450020I100000J0D01*
G01*
X21874999Y128450020D01*
G75*
G02*
X21974999Y128350020I0J-100000D01*
G01*
X21974999Y127550020D01*
G75*
G02*
X21874999Y127450020I-100000J0D01*
G01*
G37*
G04 #@! TD*
G04 #@! TO.C,R68*
G36*
G01*
X59374999Y117454998D02*
X58124999Y117454998D01*
G75*
G02*
X58024999Y117554998I0J100000D01*
G01*
X58024999Y118354998D01*
G75*
G02*
X58124999Y118454998I100000J0D01*
G01*
X59374999Y118454998D01*
G75*
G02*
X59474999Y118354998I0J-100000D01*
G01*
X59474999Y117554998D01*
G75*
G02*
X59374999Y117454998I-100000J0D01*
G01*
G37*
G36*
G01*
X59374999Y119355020D02*
X58124999Y119355020D01*
G75*
G02*
X58024999Y119455020I0J100000D01*
G01*
X58024999Y120255020D01*
G75*
G02*
X58124999Y120355020I100000J0D01*
G01*
X59374999Y120355020D01*
G75*
G02*
X59474999Y120255020I0J-100000D01*
G01*
X59474999Y119455020D01*
G75*
G02*
X59374999Y119355020I-100000J0D01*
G01*
G37*
G04 #@! TD*
G04 #@! TO.C,F12*
G36*
G01*
X13599999Y128010009D02*
X13599999Y128700009D01*
G75*
G02*
X13829999Y128930009I230000J0D01*
G01*
X15169999Y128930009D01*
G75*
G02*
X15399999Y128700009I0J-230000D01*
G01*
X15399999Y128010009D01*
G75*
G02*
X15169999Y127780009I-230000J0D01*
G01*
X13829999Y127780009D01*
G75*
G02*
X13599999Y128010009I0J230000D01*
G01*
G37*
G36*
G01*
X13599999Y125109989D02*
X13599999Y125799989D01*
G75*
G02*
X13829999Y126029989I230000J0D01*
G01*
X15169999Y126029989D01*
G75*
G02*
X15399999Y125799989I0J-230000D01*
G01*
X15399999Y125109989D01*
G75*
G02*
X15169999Y124879989I-230000J0D01*
G01*
X13829999Y124879989D01*
G75*
G02*
X13599999Y125109989I0J230000D01*
G01*
G37*
G04 #@! TD*
G04 #@! TO.C,R4*
G36*
G01*
X24874999Y117454998D02*
X23624999Y117454998D01*
G75*
G02*
X23524999Y117554998I0J100000D01*
G01*
X23524999Y118354998D01*
G75*
G02*
X23624999Y118454998I100000J0D01*
G01*
X24874999Y118454998D01*
G75*
G02*
X24974999Y118354998I0J-100000D01*
G01*
X24974999Y117554998D01*
G75*
G02*
X24874999Y117454998I-100000J0D01*
G01*
G37*
G36*
G01*
X24874999Y119355020D02*
X23624999Y119355020D01*
G75*
G02*
X23524999Y119455020I0J100000D01*
G01*
X23524999Y120255020D01*
G75*
G02*
X23624999Y120355020I100000J0D01*
G01*
X24874999Y120355020D01*
G75*
G02*
X24974999Y120255020I0J-100000D01*
G01*
X24974999Y119455020D01*
G75*
G02*
X24874999Y119355020I-100000J0D01*
G01*
G37*
G04 #@! TD*
G04 #@! TO.C,R74*
G36*
G01*
X59374999Y125549998D02*
X58124999Y125549998D01*
G75*
G02*
X58024999Y125649998I0J100000D01*
G01*
X58024999Y126449998D01*
G75*
G02*
X58124999Y126549998I100000J0D01*
G01*
X59374999Y126549998D01*
G75*
G02*
X59474999Y126449998I0J-100000D01*
G01*
X59474999Y125649998D01*
G75*
G02*
X59374999Y125549998I-100000J0D01*
G01*
G37*
G36*
G01*
X59374999Y127450020D02*
X58124999Y127450020D01*
G75*
G02*
X58024999Y127550020I0J100000D01*
G01*
X58024999Y128350020D01*
G75*
G02*
X58124999Y128450020I100000J0D01*
G01*
X59374999Y128450020D01*
G75*
G02*
X59474999Y128350020I0J-100000D01*
G01*
X59474999Y127550020D01*
G75*
G02*
X59374999Y127450020I-100000J0D01*
G01*
G37*
G04 #@! TD*
G04 #@! TO.C,R7*
G36*
G01*
X33874999Y117454998D02*
X32624999Y117454998D01*
G75*
G02*
X32524999Y117554998I0J100000D01*
G01*
X32524999Y118354998D01*
G75*
G02*
X32624999Y118454998I100000J0D01*
G01*
X33874999Y118454998D01*
G75*
G02*
X33974999Y118354998I0J-100000D01*
G01*
X33974999Y117554998D01*
G75*
G02*
X33874999Y117454998I-100000J0D01*
G01*
G37*
G36*
G01*
X33874999Y119355020D02*
X32624999Y119355020D01*
G75*
G02*
X32524999Y119455020I0J100000D01*
G01*
X32524999Y120255020D01*
G75*
G02*
X32624999Y120355020I100000J0D01*
G01*
X33874999Y120355020D01*
G75*
G02*
X33974999Y120255020I0J-100000D01*
G01*
X33974999Y119455020D01*
G75*
G02*
X33874999Y119355020I-100000J0D01*
G01*
G37*
G04 #@! TD*
G04 #@! TO.C,R62_64*
G36*
G01*
X135624999Y125549998D02*
X134374999Y125549998D01*
G75*
G02*
X134274999Y125649998I0J100000D01*
G01*
X134274999Y126449998D01*
G75*
G02*
X134374999Y126549998I100000J0D01*
G01*
X135624999Y126549998D01*
G75*
G02*
X135724999Y126449998I0J-100000D01*
G01*
X135724999Y125649998D01*
G75*
G02*
X135624999Y125549998I-100000J0D01*
G01*
G37*
G36*
G01*
X135624999Y127450020D02*
X134374999Y127450020D01*
G75*
G02*
X134274999Y127550020I0J100000D01*
G01*
X134274999Y128350020D01*
G75*
G02*
X134374999Y128450020I100000J0D01*
G01*
X135624999Y128450020D01*
G75*
G02*
X135724999Y128350020I0J-100000D01*
G01*
X135724999Y127550020D01*
G75*
G02*
X135624999Y127450020I-100000J0D01*
G01*
G37*
G04 #@! TD*
G04 #@! TO.C,R13*
G36*
G01*
X18624999Y125549998D02*
X17374999Y125549998D01*
G75*
G02*
X17274999Y125649998I0J100000D01*
G01*
X17274999Y126449998D01*
G75*
G02*
X17374999Y126549998I100000J0D01*
G01*
X18624999Y126549998D01*
G75*
G02*
X18724999Y126449998I0J-100000D01*
G01*
X18724999Y125649998D01*
G75*
G02*
X18624999Y125549998I-100000J0D01*
G01*
G37*
G36*
G01*
X18624999Y127450020D02*
X17374999Y127450020D01*
G75*
G02*
X17274999Y127550020I0J100000D01*
G01*
X17274999Y128350020D01*
G75*
G02*
X17374999Y128450020I100000J0D01*
G01*
X18624999Y128450020D01*
G75*
G02*
X18724999Y128350020I0J-100000D01*
G01*
X18724999Y127550020D01*
G75*
G02*
X18624999Y127450020I-100000J0D01*
G01*
G37*
G04 #@! TD*
G04 #@! TO.C,Q1*
G36*
G01*
X86649999Y117074999D02*
X86649999Y116324999D01*
G75*
G02*
X86274999Y115949999I-375000J0D01*
G01*
X85024999Y115949999D01*
G75*
G02*
X84649999Y116324999I0J375000D01*
G01*
X84649999Y117074999D01*
G75*
G02*
X85024999Y117449999I375000J0D01*
G01*
X86274999Y117449999D01*
G75*
G02*
X86649999Y117074999I0J-375000D01*
G01*
G37*
G36*
G01*
X86649999Y119374999D02*
X86649999Y118624999D01*
G75*
G02*
X86274999Y118249999I-375000J0D01*
G01*
X85024999Y118249999D01*
G75*
G02*
X84649999Y118624999I0J375000D01*
G01*
X84649999Y119374999D01*
G75*
G02*
X85024999Y119749999I375000J0D01*
G01*
X86274999Y119749999D01*
G75*
G02*
X86649999Y119374999I0J-375000D01*
G01*
G37*
G36*
G01*
X86649999Y121674999D02*
X86649999Y120924999D01*
G75*
G02*
X86274999Y120549999I-375000J0D01*
G01*
X85024999Y120549999D01*
G75*
G02*
X84649999Y120924999I0J375000D01*
G01*
X84649999Y121674999D01*
G75*
G02*
X85024999Y122049999I375000J0D01*
G01*
X86274999Y122049999D01*
G75*
G02*
X86649999Y121674999I0J-375000D01*
G01*
G37*
G36*
G01*
X80349999Y120399999D02*
X80349999Y117599999D01*
G75*
G02*
X79849999Y117099999I-500000J0D01*
G01*
X78849999Y117099999D01*
G75*
G02*
X78349999Y117599999I0J500000D01*
G01*
X78349999Y120399999D01*
G75*
G02*
X78849999Y120899999I500000J0D01*
G01*
X79849999Y120899999D01*
G75*
G02*
X80349999Y120399999I0J-500000D01*
G01*
G37*
G04 #@! TD*
G04 #@! TO.C,R69*
G36*
G01*
X66874999Y117454998D02*
X65624999Y117454998D01*
G75*
G02*
X65524999Y117554998I0J100000D01*
G01*
X65524999Y118354998D01*
G75*
G02*
X65624999Y118454998I100000J0D01*
G01*
X66874999Y118454998D01*
G75*
G02*
X66974999Y118354998I0J-100000D01*
G01*
X66974999Y117554998D01*
G75*
G02*
X66874999Y117454998I-100000J0D01*
G01*
G37*
G36*
G01*
X66874999Y119355020D02*
X65624999Y119355020D01*
G75*
G02*
X65524999Y119455020I0J100000D01*
G01*
X65524999Y120255020D01*
G75*
G02*
X65624999Y120355020I100000J0D01*
G01*
X66874999Y120355020D01*
G75*
G02*
X66974999Y120255020I0J-100000D01*
G01*
X66974999Y119455020D01*
G75*
G02*
X66874999Y119355020I-100000J0D01*
G01*
G37*
G04 #@! TD*
G04 #@! TO.C,R61*
G36*
G01*
X128624999Y125549998D02*
X127374999Y125549998D01*
G75*
G02*
X127274999Y125649998I0J100000D01*
G01*
X127274999Y126449998D01*
G75*
G02*
X127374999Y126549998I100000J0D01*
G01*
X128624999Y126549998D01*
G75*
G02*
X128724999Y126449998I0J-100000D01*
G01*
X128724999Y125649998D01*
G75*
G02*
X128624999Y125549998I-100000J0D01*
G01*
G37*
G36*
G01*
X128624999Y127450020D02*
X127374999Y127450020D01*
G75*
G02*
X127274999Y127550020I0J100000D01*
G01*
X127274999Y128350020D01*
G75*
G02*
X127374999Y128450020I100000J0D01*
G01*
X128624999Y128450020D01*
G75*
G02*
X128724999Y128350020I0J-100000D01*
G01*
X128724999Y127550020D01*
G75*
G02*
X128624999Y127450020I-100000J0D01*
G01*
G37*
G04 #@! TD*
G04 #@! TO.C,R54*
G36*
G01*
X104624999Y125549998D02*
X103374999Y125549998D01*
G75*
G02*
X103274999Y125649998I0J100000D01*
G01*
X103274999Y126449998D01*
G75*
G02*
X103374999Y126549998I100000J0D01*
G01*
X104624999Y126549998D01*
G75*
G02*
X104724999Y126449998I0J-100000D01*
G01*
X104724999Y125649998D01*
G75*
G02*
X104624999Y125549998I-100000J0D01*
G01*
G37*
G36*
G01*
X104624999Y127450020D02*
X103374999Y127450020D01*
G75*
G02*
X103274999Y127550020I0J100000D01*
G01*
X103274999Y128350020D01*
G75*
G02*
X103374999Y128450020I100000J0D01*
G01*
X104624999Y128450020D01*
G75*
G02*
X104724999Y128350020I0J-100000D01*
G01*
X104724999Y127550020D01*
G75*
G02*
X104624999Y127450020I-100000J0D01*
G01*
G37*
G04 #@! TD*
G04 #@! TO.C,R25*
G36*
G01*
X96374999Y116450000D02*
X97624999Y116450000D01*
G75*
G02*
X97724999Y116350000I0J-100000D01*
G01*
X97724999Y115550000D01*
G75*
G02*
X97624999Y115450000I-100000J0D01*
G01*
X96374999Y115450000D01*
G75*
G02*
X96274999Y115550000I0J100000D01*
G01*
X96274999Y116350000D01*
G75*
G02*
X96374999Y116450000I100000J0D01*
G01*
G37*
G36*
G01*
X96374999Y114549978D02*
X97624999Y114549978D01*
G75*
G02*
X97724999Y114449978I0J-100000D01*
G01*
X97724999Y113649978D01*
G75*
G02*
X97624999Y113549978I-100000J0D01*
G01*
X96374999Y113549978D01*
G75*
G02*
X96274999Y113649978I0J100000D01*
G01*
X96274999Y114449978D01*
G75*
G02*
X96374999Y114549978I100000J0D01*
G01*
G37*
G04 #@! TD*
G04 #@! TO.C,R64*
G36*
G01*
X144124999Y125549998D02*
X142874999Y125549998D01*
G75*
G02*
X142774999Y125649998I0J100000D01*
G01*
X142774999Y126449998D01*
G75*
G02*
X142874999Y126549998I100000J0D01*
G01*
X144124999Y126549998D01*
G75*
G02*
X144224999Y126449998I0J-100000D01*
G01*
X144224999Y125649998D01*
G75*
G02*
X144124999Y125549998I-100000J0D01*
G01*
G37*
G36*
G01*
X144124999Y127450020D02*
X142874999Y127450020D01*
G75*
G02*
X142774999Y127550020I0J100000D01*
G01*
X142774999Y128350020D01*
G75*
G02*
X142874999Y128450020I100000J0D01*
G01*
X144124999Y128450020D01*
G75*
G02*
X144224999Y128350020I0J-100000D01*
G01*
X144224999Y127550020D01*
G75*
G02*
X144124999Y127450020I-100000J0D01*
G01*
G37*
G04 #@! TD*
G04 #@! TO.C,R75*
G36*
G01*
X66874999Y125549998D02*
X65624999Y125549998D01*
G75*
G02*
X65524999Y125649998I0J100000D01*
G01*
X65524999Y126449998D01*
G75*
G02*
X65624999Y126549998I100000J0D01*
G01*
X66874999Y126549998D01*
G75*
G02*
X66974999Y126449998I0J-100000D01*
G01*
X66974999Y125649998D01*
G75*
G02*
X66874999Y125549998I-100000J0D01*
G01*
G37*
G36*
G01*
X66874999Y127450020D02*
X65624999Y127450020D01*
G75*
G02*
X65524999Y127550020I0J100000D01*
G01*
X65524999Y128350020D01*
G75*
G02*
X65624999Y128450020I100000J0D01*
G01*
X66874999Y128450020D01*
G75*
G02*
X66974999Y128350020I0J-100000D01*
G01*
X66974999Y127550020D01*
G75*
G02*
X66874999Y127450020I-100000J0D01*
G01*
G37*
G04 #@! TD*
G04 #@! TO.C,F32*
G36*
G01*
X84599999Y128010009D02*
X84599999Y128700009D01*
G75*
G02*
X84829999Y128930009I230000J0D01*
G01*
X86169999Y128930009D01*
G75*
G02*
X86399999Y128700009I0J-230000D01*
G01*
X86399999Y128010009D01*
G75*
G02*
X86169999Y127780009I-230000J0D01*
G01*
X84829999Y127780009D01*
G75*
G02*
X84599999Y128010009I0J230000D01*
G01*
G37*
G36*
G01*
X84599999Y125109989D02*
X84599999Y125799989D01*
G75*
G02*
X84829999Y126029989I230000J0D01*
G01*
X86169999Y126029989D01*
G75*
G02*
X86399999Y125799989I0J-230000D01*
G01*
X86399999Y125109989D01*
G75*
G02*
X86169999Y124879989I-230000J0D01*
G01*
X84829999Y124879989D01*
G75*
G02*
X84599999Y125109989I0J230000D01*
G01*
G37*
G04 #@! TD*
M02*
