G04 #@! TF.GenerationSoftware,KiCad,Pcbnew,8.0.9-8.0.9-0~ubuntu24.04.1*
G04 #@! TF.CreationDate,2025-09-02T15:45:05+00:00*
G04 #@! TF.ProjectId,uaefi-adapter-NA-90-95,75616566-692d-4616-9461-707465722d4e,b*
G04 #@! TF.SameCoordinates,Original*
G04 #@! TF.FileFunction,Profile,NP*
%FSLAX46Y46*%
G04 Gerber Fmt 4.6, Leading zero omitted, Abs format (unit mm)*
G04 Created by KiCad (PCBNEW 8.0.9-8.0.9-0~ubuntu24.04.1) date 2025-09-02 15:45:05*
%MOMM*%
%LPD*%
G01*
G04 APERTURE LIST*
G04 #@! TA.AperFunction,Profile*
%ADD10C,0.100000*%
G04 #@! TD*
G04 APERTURE END LIST*
D10*
X154000000Y7000000D02*
X154000000Y152000000D01*
X154000001Y6999999D02*
G75*
G02*
X147000000Y-3I-7000002J0D01*
G01*
X147000001Y159000001D02*
G75*
G02*
X154000001Y152000000I-102J-7000102D01*
G01*
X147000000Y159000000D02*
X7000000Y159000000D01*
X7000000Y0D02*
X147000000Y0D01*
X0Y152000000D02*
X0Y7000000D01*
X6999999Y-1D02*
G75*
G02*
X-1Y7000000I0J7000000D01*
G01*
X-1Y152000001D02*
G75*
G02*
X7000000Y158999999I7000000J-2D01*
G01*
G04 #@! TO.C,M1*
X45012558Y39349744D02*
X44999999Y22612562D01*
X45012558Y39349744D02*
X45012561Y82400000D01*
X46999999Y20612562D02*
X49999999Y20612562D01*
X51999999Y18612562D02*
X51999999Y10899999D01*
X84899999Y8912562D02*
X53999999Y8899999D01*
X86899999Y10912562D02*
X86899910Y15612642D01*
X88899910Y17612642D02*
X103060073Y17612488D01*
X102062814Y89399999D02*
X52012562Y89399999D01*
X105062810Y35349742D02*
X105060073Y19612488D01*
X107062810Y37349742D02*
X122512562Y37349742D01*
X109062813Y82399998D02*
X109062813Y74699999D01*
X122512562Y72699999D02*
X111062813Y72699999D01*
X124512562Y39349742D02*
X124512562Y70699999D01*
X45012561Y82400000D02*
G75*
G02*
X52012562Y89400000I6999998J2D01*
G01*
X46999999Y20612562D02*
G75*
G02*
X44999999Y22612562I0J2000000D01*
G01*
X49999999Y20612562D02*
G75*
G02*
X51999999Y18612562I0J-2000000D01*
G01*
X53999999Y8899999D02*
G75*
G02*
X52000036Y10899999I0J1999963D01*
G01*
X86899910Y15612642D02*
G75*
G02*
X88899910Y17612651I2000089J-80D01*
G01*
X86899999Y10912562D02*
G75*
G02*
X84899999Y8912562I-2000100J100D01*
G01*
X102062814Y89399999D02*
G75*
G02*
X109062816Y82399998I135J-6999867D01*
G01*
X105060073Y19612488D02*
G75*
G02*
X103060073Y17612488I-2000074J74D01*
G01*
X105062810Y35349742D02*
G75*
G02*
X107062810Y37349751I2000089J-80D01*
G01*
X111062813Y72699999D02*
G75*
G02*
X109062836Y74699999I-14J1999963D01*
G01*
X122512562Y72699999D02*
G75*
G02*
X124512536Y70699999I-63J-2000037D01*
G01*
X124512562Y39349742D02*
G75*
G02*
X122512562Y37349699I-1999963J-80D01*
G01*
G04 #@! TD*
M02*
