G04 #@! TF.GenerationSoftware,KiCad,Pcbnew,8.0.9-8.0.9-0~ubuntu24.04.1*
G04 #@! TF.CreationDate,2025-09-03T04:43:23+00:00*
G04 #@! TF.ProjectId,uaefi-adapter-NA-90-95,75616566-692d-4616-9461-707465722d4e,b*
G04 #@! TF.SameCoordinates,Original*
G04 #@! TF.FileFunction,Soldermask,Top*
G04 #@! TF.FilePolarity,Negative*
%FSLAX46Y46*%
G04 Gerber Fmt 4.6, Leading zero omitted, Abs format (unit mm)*
G04 Created by KiCad (PCBNEW 8.0.9-8.0.9-0~ubuntu24.04.1) date 2025-09-03 04:43:23*
%MOMM*%
%LPD*%
G01*
G04 APERTURE LIST*
%ADD10C,1.524000*%
%ADD11C,1.700000*%
%ADD12C,1.000000*%
%ADD13C,1.500000*%
%ADD14C,7.000000*%
%ADD15C,3.500120*%
%ADD16C,1.800000*%
%ADD17C,2.000000*%
%ADD18O,1.850000X1.700000*%
G04 APERTURE END LIST*
D10*
G04 #@! TO.C,R17*
X30249999Y125094999D03*
G36*
G01*
X30874999Y125549998D02*
X29624999Y125549998D01*
G75*
G02*
X29524999Y125649998I0J100000D01*
G01*
X29524999Y126449998D01*
G75*
G02*
X29624999Y126549998I100000J0D01*
G01*
X30874999Y126549998D01*
G75*
G02*
X30974999Y126449998I0J-100000D01*
G01*
X30974999Y125649998D01*
G75*
G02*
X30874999Y125549998I-100000J0D01*
G01*
G37*
G36*
G01*
X30874999Y127450020D02*
X29624999Y127450020D01*
G75*
G02*
X29524999Y127550020I0J100000D01*
G01*
X29524999Y128350020D01*
G75*
G02*
X29624999Y128450020I100000J0D01*
G01*
X30874999Y128450020D01*
G75*
G02*
X30974999Y128350020I0J-100000D01*
G01*
X30974999Y127550020D01*
G75*
G02*
X30874999Y127450020I-100000J0D01*
G01*
G37*
X30249999Y128904999D03*
G04 #@! TD*
G04 #@! TO.C,R15*
X24249999Y125094999D03*
G36*
G01*
X24874999Y125549998D02*
X23624999Y125549998D01*
G75*
G02*
X23524999Y125649998I0J100000D01*
G01*
X23524999Y126449998D01*
G75*
G02*
X23624999Y126549998I100000J0D01*
G01*
X24874999Y126549998D01*
G75*
G02*
X24974999Y126449998I0J-100000D01*
G01*
X24974999Y125649998D01*
G75*
G02*
X24874999Y125549998I-100000J0D01*
G01*
G37*
G36*
G01*
X24874999Y127450020D02*
X23624999Y127450020D01*
G75*
G02*
X23524999Y127550020I0J100000D01*
G01*
X23524999Y128350020D01*
G75*
G02*
X23624999Y128450020I100000J0D01*
G01*
X24874999Y128450020D01*
G75*
G02*
X24974999Y128350020I0J-100000D01*
G01*
X24974999Y127550020D01*
G75*
G02*
X24874999Y127450020I-100000J0D01*
G01*
G37*
X24249999Y128904999D03*
G04 #@! TD*
D11*
G04 #@! TO.C,P11*
X47749999Y116999999D03*
G04 #@! TD*
D10*
G04 #@! TO.C,R58*
X118499999Y125094999D03*
G36*
G01*
X119124999Y125549998D02*
X117874999Y125549998D01*
G75*
G02*
X117774999Y125649998I0J100000D01*
G01*
X117774999Y126449998D01*
G75*
G02*
X117874999Y126549998I100000J0D01*
G01*
X119124999Y126549998D01*
G75*
G02*
X119224999Y126449998I0J-100000D01*
G01*
X119224999Y125649998D01*
G75*
G02*
X119124999Y125549998I-100000J0D01*
G01*
G37*
G36*
G01*
X119124999Y127450020D02*
X117874999Y127450020D01*
G75*
G02*
X117774999Y127550020I0J100000D01*
G01*
X117774999Y128350020D01*
G75*
G02*
X117874999Y128450020I100000J0D01*
G01*
X119124999Y128450020D01*
G75*
G02*
X119224999Y128350020I0J-100000D01*
G01*
X119224999Y127550020D01*
G75*
G02*
X119124999Y127450020I-100000J0D01*
G01*
G37*
X118499999Y128904999D03*
G04 #@! TD*
D11*
G04 #@! TO.C,P3*
X19499999Y18999999D03*
G04 #@! TD*
G04 #@! TO.C,P_D5*
X108499999Y116999999D03*
G04 #@! TD*
D10*
G04 #@! TO.C,R57*
X115499999Y125094999D03*
G36*
G01*
X116124999Y125549998D02*
X114874999Y125549998D01*
G75*
G02*
X114774999Y125649998I0J100000D01*
G01*
X114774999Y126449998D01*
G75*
G02*
X114874999Y126549998I100000J0D01*
G01*
X116124999Y126549998D01*
G75*
G02*
X116224999Y126449998I0J-100000D01*
G01*
X116224999Y125649998D01*
G75*
G02*
X116124999Y125549998I-100000J0D01*
G01*
G37*
G36*
G01*
X116124999Y127450020D02*
X114874999Y127450020D01*
G75*
G02*
X114774999Y127550020I0J100000D01*
G01*
X114774999Y128350020D01*
G75*
G02*
X114874999Y128450020I100000J0D01*
G01*
X116124999Y128450020D01*
G75*
G02*
X116224999Y128350020I0J-100000D01*
G01*
X116224999Y127550020D01*
G75*
G02*
X116124999Y127450020I-100000J0D01*
G01*
G37*
X115499999Y128904999D03*
G04 #@! TD*
G04 #@! TO.C,R22*
X47749999Y125094999D03*
G36*
G01*
X48374999Y125549998D02*
X47124999Y125549998D01*
G75*
G02*
X47024999Y125649998I0J100000D01*
G01*
X47024999Y126449998D01*
G75*
G02*
X47124999Y126549998I100000J0D01*
G01*
X48374999Y126549998D01*
G75*
G02*
X48474999Y126449998I0J-100000D01*
G01*
X48474999Y125649998D01*
G75*
G02*
X48374999Y125549998I-100000J0D01*
G01*
G37*
G36*
G01*
X48374999Y127450020D02*
X47124999Y127450020D01*
G75*
G02*
X47024999Y127550020I0J100000D01*
G01*
X47024999Y128350020D01*
G75*
G02*
X47124999Y128450020I100000J0D01*
G01*
X48374999Y128450020D01*
G75*
G02*
X48474999Y128350020I0J-100000D01*
G01*
X48474999Y127550020D01*
G75*
G02*
X48374999Y127450020I-100000J0D01*
G01*
G37*
X47749999Y128904999D03*
G04 #@! TD*
G04 #@! TO.C,R46*
X124749999Y116999999D03*
G36*
G01*
X125374999Y117454998D02*
X124124999Y117454998D01*
G75*
G02*
X124024999Y117554998I0J100000D01*
G01*
X124024999Y118354998D01*
G75*
G02*
X124124999Y118454998I100000J0D01*
G01*
X125374999Y118454998D01*
G75*
G02*
X125474999Y118354998I0J-100000D01*
G01*
X125474999Y117554998D01*
G75*
G02*
X125374999Y117454998I-100000J0D01*
G01*
G37*
G36*
G01*
X125374999Y119355020D02*
X124124999Y119355020D01*
G75*
G02*
X124024999Y119455020I0J100000D01*
G01*
X124024999Y120255020D01*
G75*
G02*
X124124999Y120355020I100000J0D01*
G01*
X125374999Y120355020D01*
G75*
G02*
X125474999Y120255020I0J-100000D01*
G01*
X125474999Y119455020D01*
G75*
G02*
X125374999Y119355020I-100000J0D01*
G01*
G37*
X124749999Y120809999D03*
G04 #@! TD*
G04 #@! TO.C,R9*
X39749999Y116999999D03*
G36*
G01*
X40374999Y117454998D02*
X39124999Y117454998D01*
G75*
G02*
X39024999Y117554998I0J100000D01*
G01*
X39024999Y118354998D01*
G75*
G02*
X39124999Y118454998I100000J0D01*
G01*
X40374999Y118454998D01*
G75*
G02*
X40474999Y118354998I0J-100000D01*
G01*
X40474999Y117554998D01*
G75*
G02*
X40374999Y117454998I-100000J0D01*
G01*
G37*
G36*
G01*
X40374999Y119355020D02*
X39124999Y119355020D01*
G75*
G02*
X39024999Y119455020I0J100000D01*
G01*
X39024999Y120255020D01*
G75*
G02*
X39124999Y120355020I100000J0D01*
G01*
X40374999Y120355020D01*
G75*
G02*
X40474999Y120255020I0J-100000D01*
G01*
X40474999Y119455020D01*
G75*
G02*
X40374999Y119355020I-100000J0D01*
G01*
G37*
X39749999Y120809999D03*
G04 #@! TD*
D11*
G04 #@! TO.C,P12*
X13499999Y116999999D03*
G04 #@! TD*
D10*
G04 #@! TO.C,R49_51*
X134999999Y116094999D03*
G36*
G01*
X135624999Y116549998D02*
X134374999Y116549998D01*
G75*
G02*
X134274999Y116649998I0J100000D01*
G01*
X134274999Y117449998D01*
G75*
G02*
X134374999Y117549998I100000J0D01*
G01*
X135624999Y117549998D01*
G75*
G02*
X135724999Y117449998I0J-100000D01*
G01*
X135724999Y116649998D01*
G75*
G02*
X135624999Y116549998I-100000J0D01*
G01*
G37*
G36*
G01*
X135624999Y118450020D02*
X134374999Y118450020D01*
G75*
G02*
X134274999Y118550020I0J100000D01*
G01*
X134274999Y119350020D01*
G75*
G02*
X134374999Y119450020I100000J0D01*
G01*
X135624999Y119450020D01*
G75*
G02*
X135724999Y119350020I0J-100000D01*
G01*
X135724999Y118550020D01*
G75*
G02*
X135624999Y118450020I-100000J0D01*
G01*
G37*
X134999999Y119904999D03*
G04 #@! TD*
D11*
G04 #@! TO.C,P63*
X139999999Y116499999D03*
G04 #@! TD*
G04 #@! TO.C,P9*
X19499999Y8999999D03*
G04 #@! TD*
D10*
G04 #@! TO.C,R3*
X21249999Y116999999D03*
G36*
G01*
X21874999Y117454998D02*
X20624999Y117454998D01*
G75*
G02*
X20524999Y117554998I0J100000D01*
G01*
X20524999Y118354998D01*
G75*
G02*
X20624999Y118454998I100000J0D01*
G01*
X21874999Y118454998D01*
G75*
G02*
X21974999Y118354998I0J-100000D01*
G01*
X21974999Y117554998D01*
G75*
G02*
X21874999Y117454998I-100000J0D01*
G01*
G37*
G36*
G01*
X21874999Y119355020D02*
X20624999Y119355020D01*
G75*
G02*
X20524999Y119455020I0J100000D01*
G01*
X20524999Y120255020D01*
G75*
G02*
X20624999Y120355020I100000J0D01*
G01*
X21874999Y120355020D01*
G75*
G02*
X21974999Y120255020I0J-100000D01*
G01*
X21974999Y119455020D01*
G75*
G02*
X21874999Y119355020I-100000J0D01*
G01*
G37*
X21249999Y120809999D03*
G04 #@! TD*
G04 #@! TO.C,R18*
X33249999Y125094999D03*
G36*
G01*
X33874999Y125549998D02*
X32624999Y125549998D01*
G75*
G02*
X32524999Y125649998I0J100000D01*
G01*
X32524999Y126449998D01*
G75*
G02*
X32624999Y126549998I100000J0D01*
G01*
X33874999Y126549998D01*
G75*
G02*
X33974999Y126449998I0J-100000D01*
G01*
X33974999Y125649998D01*
G75*
G02*
X33874999Y125549998I-100000J0D01*
G01*
G37*
G36*
G01*
X33874999Y127450020D02*
X32624999Y127450020D01*
G75*
G02*
X32524999Y127550020I0J100000D01*
G01*
X32524999Y128350020D01*
G75*
G02*
X32624999Y128450020I100000J0D01*
G01*
X33874999Y128450020D01*
G75*
G02*
X33974999Y128350020I0J-100000D01*
G01*
X33974999Y127550020D01*
G75*
G02*
X33874999Y127450020I-100000J0D01*
G01*
G37*
X33249999Y128904999D03*
G04 #@! TD*
D11*
G04 #@! TO.C,P6*
X30499999Y116999999D03*
G04 #@! TD*
D10*
G04 #@! TO.C,R20*
X39749999Y125094999D03*
G36*
G01*
X40374999Y125549998D02*
X39124999Y125549998D01*
G75*
G02*
X39024999Y125649998I0J100000D01*
G01*
X39024999Y126449998D01*
G75*
G02*
X39124999Y126549998I100000J0D01*
G01*
X40374999Y126549998D01*
G75*
G02*
X40474999Y126449998I0J-100000D01*
G01*
X40474999Y125649998D01*
G75*
G02*
X40374999Y125549998I-100000J0D01*
G01*
G37*
G36*
G01*
X40374999Y127450020D02*
X39124999Y127450020D01*
G75*
G02*
X39024999Y127550020I0J100000D01*
G01*
X39024999Y128350020D01*
G75*
G02*
X39124999Y128450020I100000J0D01*
G01*
X40374999Y128450020D01*
G75*
G02*
X40474999Y128350020I0J-100000D01*
G01*
X40474999Y127550020D01*
G75*
G02*
X40374999Y127450020I-100000J0D01*
G01*
G37*
X39749999Y128904999D03*
G04 #@! TD*
G04 #@! TO.C,D1*
G36*
G01*
X93489999Y122449999D02*
X94509999Y122449999D01*
G75*
G02*
X94599999Y122359999I0J-90000D01*
G01*
X94599999Y121639999D01*
G75*
G02*
X94509999Y121549999I-90000J0D01*
G01*
X93489999Y121549999D01*
G75*
G02*
X93399999Y121639999I0J90000D01*
G01*
X93399999Y122359999D01*
G75*
G02*
X93489999Y122449999I90000J0D01*
G01*
G37*
G36*
G01*
X93489999Y119149999D02*
X94509999Y119149999D01*
G75*
G02*
X94599999Y119059999I0J-90000D01*
G01*
X94599999Y118339999D01*
G75*
G02*
X94509999Y118249999I-90000J0D01*
G01*
X93489999Y118249999D01*
G75*
G02*
X93399999Y118339999I0J90000D01*
G01*
X93399999Y119059999D01*
G75*
G02*
X93489999Y119149999I90000J0D01*
G01*
G37*
G04 #@! TD*
D12*
G04 #@! TO.C,J2*
X11499999Y80059999D03*
X20499999Y80059999D03*
G36*
G01*
X13749999Y83500000D02*
X13749999Y84499998D01*
G75*
G02*
X14000000Y84749999I250001J0D01*
G01*
X14999998Y84749999D01*
G75*
G02*
X15249999Y84499998I0J-250001D01*
G01*
X15249999Y83500000D01*
G75*
G02*
X14999998Y83249999I-250001J0D01*
G01*
X14000000Y83249999D01*
G75*
G02*
X13749999Y83500000I0J250001D01*
G01*
G37*
D13*
X17499999Y83999999D03*
X14499999Y80999999D03*
X17499999Y80999999D03*
G04 #@! TD*
D10*
G04 #@! TO.C,R46_61*
X121499999Y125094999D03*
G36*
G01*
X122124999Y125549998D02*
X120874999Y125549998D01*
G75*
G02*
X120774999Y125649998I0J100000D01*
G01*
X120774999Y126449998D01*
G75*
G02*
X120874999Y126549998I100000J0D01*
G01*
X122124999Y126549998D01*
G75*
G02*
X122224999Y126449998I0J-100000D01*
G01*
X122224999Y125649998D01*
G75*
G02*
X122124999Y125549998I-100000J0D01*
G01*
G37*
G36*
G01*
X122124999Y127450020D02*
X120874999Y127450020D01*
G75*
G02*
X120774999Y127550020I0J100000D01*
G01*
X120774999Y128350020D01*
G75*
G02*
X120874999Y128450020I100000J0D01*
G01*
X122124999Y128450020D01*
G75*
G02*
X122224999Y128350020I0J-100000D01*
G01*
X122224999Y127550020D01*
G75*
G02*
X122124999Y127450020I-100000J0D01*
G01*
G37*
X121499999Y128904999D03*
G04 #@! TD*
G04 #@! TO.C,R45*
X118499999Y116999999D03*
G36*
G01*
X119124999Y117454998D02*
X117874999Y117454998D01*
G75*
G02*
X117774999Y117554998I0J100000D01*
G01*
X117774999Y118354998D01*
G75*
G02*
X117874999Y118454998I100000J0D01*
G01*
X119124999Y118454998D01*
G75*
G02*
X119224999Y118354998I0J-100000D01*
G01*
X119224999Y117554998D01*
G75*
G02*
X119124999Y117454998I-100000J0D01*
G01*
G37*
G36*
G01*
X119124999Y119355020D02*
X117874999Y119355020D01*
G75*
G02*
X117774999Y119455020I0J100000D01*
G01*
X117774999Y120255020D01*
G75*
G02*
X117874999Y120355020I100000J0D01*
G01*
X119124999Y120355020D01*
G75*
G02*
X119224999Y120255020I0J-100000D01*
G01*
X119224999Y119455020D01*
G75*
G02*
X119124999Y119355020I-100000J0D01*
G01*
G37*
X118499999Y120809999D03*
G04 #@! TD*
D11*
G04 #@! TO.C,P_C11*
X20749999Y96249999D03*
G04 #@! TD*
G04 #@! TO.C,P10*
X43499999Y116999999D03*
G04 #@! TD*
D10*
G04 #@! TO.C,R51*
X143499999Y116094999D03*
G36*
G01*
X144124999Y116549998D02*
X142874999Y116549998D01*
G75*
G02*
X142774999Y116649998I0J100000D01*
G01*
X142774999Y117449998D01*
G75*
G02*
X142874999Y117549998I100000J0D01*
G01*
X144124999Y117549998D01*
G75*
G02*
X144224999Y117449998I0J-100000D01*
G01*
X144224999Y116649998D01*
G75*
G02*
X144124999Y116549998I-100000J0D01*
G01*
G37*
G36*
G01*
X144124999Y118450020D02*
X142874999Y118450020D01*
G75*
G02*
X142774999Y118550020I0J100000D01*
G01*
X142774999Y119350020D01*
G75*
G02*
X142874999Y119450020I100000J0D01*
G01*
X144124999Y119450020D01*
G75*
G02*
X144224999Y119350020I0J-100000D01*
G01*
X144224999Y118550020D01*
G75*
G02*
X144124999Y118450020I-100000J0D01*
G01*
G37*
X143499999Y119904999D03*
G04 #@! TD*
D11*
G04 #@! TO.C,G9*
X143959999Y96919999D03*
X143959999Y99459999D03*
X143959999Y101999999D03*
X143959999Y104539999D03*
X143959999Y107079999D03*
X146499999Y96919999D03*
X146499999Y99459999D03*
X146499999Y101999999D03*
X146499999Y104539999D03*
X146499999Y107079999D03*
X149039999Y96919999D03*
X149039999Y99459999D03*
X149039999Y101999999D03*
X149039999Y104539999D03*
X149039999Y107079999D03*
G04 #@! TD*
D10*
G04 #@! TO.C,R43*
X112499999Y116999999D03*
G36*
G01*
X113124999Y117454998D02*
X111874999Y117454998D01*
G75*
G02*
X111774999Y117554998I0J100000D01*
G01*
X111774999Y118354998D01*
G75*
G02*
X111874999Y118454998I100000J0D01*
G01*
X113124999Y118454998D01*
G75*
G02*
X113224999Y118354998I0J-100000D01*
G01*
X113224999Y117554998D01*
G75*
G02*
X113124999Y117454998I-100000J0D01*
G01*
G37*
G36*
G01*
X113124999Y119355020D02*
X111874999Y119355020D01*
G75*
G02*
X111774999Y119455020I0J100000D01*
G01*
X111774999Y120255020D01*
G75*
G02*
X111874999Y120355020I100000J0D01*
G01*
X113124999Y120355020D01*
G75*
G02*
X113224999Y120255020I0J-100000D01*
G01*
X113224999Y119455020D01*
G75*
G02*
X113124999Y119355020I-100000J0D01*
G01*
G37*
X112499999Y120809999D03*
G04 #@! TD*
G04 #@! TO.C,D2*
G36*
G01*
X100524999Y120199999D02*
X100524999Y119899999D01*
G75*
G02*
X100374999Y119749999I-150000J0D01*
G01*
X99199999Y119749999D01*
G75*
G02*
X99049999Y119899999I0J150000D01*
G01*
X99049999Y120199999D01*
G75*
G02*
X99199999Y120349999I150000J0D01*
G01*
X100374999Y120349999D01*
G75*
G02*
X100524999Y120199999I0J-150000D01*
G01*
G37*
G36*
G01*
X98649999Y121149999D02*
X98649999Y120849999D01*
G75*
G02*
X98499999Y120699999I-150000J0D01*
G01*
X97324999Y120699999D01*
G75*
G02*
X97174999Y120849999I0J150000D01*
G01*
X97174999Y121149999D01*
G75*
G02*
X97324999Y121299999I150000J0D01*
G01*
X98499999Y121299999D01*
G75*
G02*
X98649999Y121149999I0J-150000D01*
G01*
G37*
G36*
G01*
X100524999Y122099999D02*
X100524999Y121799999D01*
G75*
G02*
X100374999Y121649999I-150000J0D01*
G01*
X99199999Y121649999D01*
G75*
G02*
X99049999Y121799999I0J150000D01*
G01*
X99049999Y122099999D01*
G75*
G02*
X99199999Y122249999I150000J0D01*
G01*
X100374999Y122249999D01*
G75*
G02*
X100524999Y122099999I0J-150000D01*
G01*
G37*
G04 #@! TD*
D12*
G04 #@! TO.C,J1*
X139439999Y32999999D03*
X139439999Y44999999D03*
G36*
G01*
X135999998Y35249999D02*
X135000000Y35249999D01*
G75*
G02*
X134749999Y35500000I0J250001D01*
G01*
X134749999Y36499998D01*
G75*
G02*
X135000000Y36749999I250001J0D01*
G01*
X135999998Y36749999D01*
G75*
G02*
X136249999Y36499998I0J-250001D01*
G01*
X136249999Y35500000D01*
G75*
G02*
X135999998Y35249999I-250001J0D01*
G01*
G37*
D13*
X135499999Y38999999D03*
X135499999Y41999999D03*
X138499999Y35999999D03*
X138499999Y38999999D03*
X138499999Y41999999D03*
G04 #@! TD*
D14*
G04 #@! TO.C,J16*
X149000000Y153900000D03*
G04 #@! TD*
G04 #@! TO.C,R1*
G36*
G01*
X89374999Y122450000D02*
X90624999Y122450000D01*
G75*
G02*
X90724999Y122350000I0J-100000D01*
G01*
X90724999Y121550000D01*
G75*
G02*
X90624999Y121450000I-100000J0D01*
G01*
X89374999Y121450000D01*
G75*
G02*
X89274999Y121550000I0J100000D01*
G01*
X89274999Y122350000D01*
G75*
G02*
X89374999Y122450000I100000J0D01*
G01*
G37*
G36*
G01*
X89374999Y120549978D02*
X90624999Y120549978D01*
G75*
G02*
X90724999Y120449978I0J-100000D01*
G01*
X90724999Y119649978D01*
G75*
G02*
X90624999Y119549978I-100000J0D01*
G01*
X89374999Y119549978D01*
G75*
G02*
X89274999Y119649978I0J100000D01*
G01*
X89274999Y120449978D01*
G75*
G02*
X89374999Y120549978I100000J0D01*
G01*
G37*
G04 #@! TD*
G04 #@! TO.C,J17*
X5000000Y71900000D03*
G04 #@! TD*
D10*
G04 #@! TO.C,R16*
X27249999Y125094999D03*
G36*
G01*
X27874999Y125549998D02*
X26624999Y125549998D01*
G75*
G02*
X26524999Y125649998I0J100000D01*
G01*
X26524999Y126449998D01*
G75*
G02*
X26624999Y126549998I100000J0D01*
G01*
X27874999Y126549998D01*
G75*
G02*
X27974999Y126449998I0J-100000D01*
G01*
X27974999Y125649998D01*
G75*
G02*
X27874999Y125549998I-100000J0D01*
G01*
G37*
G36*
G01*
X27874999Y127450020D02*
X26624999Y127450020D01*
G75*
G02*
X26524999Y127550020I0J100000D01*
G01*
X26524999Y128350020D01*
G75*
G02*
X26624999Y128450020I100000J0D01*
G01*
X27874999Y128450020D01*
G75*
G02*
X27974999Y128350020I0J-100000D01*
G01*
X27974999Y127550020D01*
G75*
G02*
X27874999Y127450020I-100000J0D01*
G01*
G37*
X27249999Y128904999D03*
G04 #@! TD*
G04 #@! TO.C,R48*
X127999999Y116999999D03*
G36*
G01*
X128624999Y117454998D02*
X127374999Y117454998D01*
G75*
G02*
X127274999Y117554998I0J100000D01*
G01*
X127274999Y118354998D01*
G75*
G02*
X127374999Y118454998I100000J0D01*
G01*
X128624999Y118454998D01*
G75*
G02*
X128724999Y118354998I0J-100000D01*
G01*
X128724999Y117554998D01*
G75*
G02*
X128624999Y117454998I-100000J0D01*
G01*
G37*
G36*
G01*
X128624999Y119355020D02*
X127374999Y119355020D01*
G75*
G02*
X127274999Y119455020I0J100000D01*
G01*
X127274999Y120255020D01*
G75*
G02*
X127374999Y120355020I100000J0D01*
G01*
X128624999Y120355020D01*
G75*
G02*
X128724999Y120255020I0J-100000D01*
G01*
X128724999Y119455020D01*
G75*
G02*
X128624999Y119355020I-100000J0D01*
G01*
G37*
X127999999Y120809999D03*
G04 #@! TD*
G04 #@! TO.C,C1*
G36*
G01*
X94339999Y113994997D02*
X93659999Y113994997D01*
G75*
G02*
X93574999Y114079997I0J85000D01*
G01*
X93574999Y114759997D01*
G75*
G02*
X93659999Y114844997I85000J0D01*
G01*
X94339999Y114844997D01*
G75*
G02*
X94424999Y114759997I0J-85000D01*
G01*
X94424999Y114079997D01*
G75*
G02*
X94339999Y113994997I-85000J0D01*
G01*
G37*
G36*
G01*
X94339999Y115574999D02*
X93659999Y115574999D01*
G75*
G02*
X93574999Y115659999I0J85000D01*
G01*
X93574999Y116339999D01*
G75*
G02*
X93659999Y116424999I85000J0D01*
G01*
X94339999Y116424999D01*
G75*
G02*
X94424999Y116339999I0J-85000D01*
G01*
X94424999Y115659999D01*
G75*
G02*
X94339999Y115574999I-85000J0D01*
G01*
G37*
G04 #@! TD*
G04 #@! TO.C,R14*
X21249999Y125094999D03*
G36*
G01*
X21874999Y125549998D02*
X20624999Y125549998D01*
G75*
G02*
X20524999Y125649998I0J100000D01*
G01*
X20524999Y126449998D01*
G75*
G02*
X20624999Y126549998I100000J0D01*
G01*
X21874999Y126549998D01*
G75*
G02*
X21974999Y126449998I0J-100000D01*
G01*
X21974999Y125649998D01*
G75*
G02*
X21874999Y125549998I-100000J0D01*
G01*
G37*
G36*
G01*
X21874999Y127450020D02*
X20624999Y127450020D01*
G75*
G02*
X20524999Y127550020I0J100000D01*
G01*
X20524999Y128350020D01*
G75*
G02*
X20624999Y128450020I100000J0D01*
G01*
X21874999Y128450020D01*
G75*
G02*
X21974999Y128350020I0J-100000D01*
G01*
X21974999Y127550020D01*
G75*
G02*
X21874999Y127450020I-100000J0D01*
G01*
G37*
X21249999Y128904999D03*
G04 #@! TD*
G04 #@! TO.C,R68*
X58749999Y116999999D03*
G36*
G01*
X59374999Y117454998D02*
X58124999Y117454998D01*
G75*
G02*
X58024999Y117554998I0J100000D01*
G01*
X58024999Y118354998D01*
G75*
G02*
X58124999Y118454998I100000J0D01*
G01*
X59374999Y118454998D01*
G75*
G02*
X59474999Y118354998I0J-100000D01*
G01*
X59474999Y117554998D01*
G75*
G02*
X59374999Y117454998I-100000J0D01*
G01*
G37*
G36*
G01*
X59374999Y119355020D02*
X58124999Y119355020D01*
G75*
G02*
X58024999Y119455020I0J100000D01*
G01*
X58024999Y120255020D01*
G75*
G02*
X58124999Y120355020I100000J0D01*
G01*
X59374999Y120355020D01*
G75*
G02*
X59474999Y120255020I0J-100000D01*
G01*
X59474999Y119455020D01*
G75*
G02*
X59374999Y119355020I-100000J0D01*
G01*
G37*
X58749999Y120809999D03*
G04 #@! TD*
D11*
G04 #@! TO.C,P2*
X17499999Y116999999D03*
G04 #@! TD*
G04 #@! TO.C,P_C12*
X15749999Y96249999D03*
G04 #@! TD*
D10*
G04 #@! TO.C,F12*
X14499999Y129354999D03*
G36*
G01*
X13599999Y128010009D02*
X13599999Y128700009D01*
G75*
G02*
X13829999Y128930009I230000J0D01*
G01*
X15169999Y128930009D01*
G75*
G02*
X15399999Y128700009I0J-230000D01*
G01*
X15399999Y128010009D01*
G75*
G02*
X15169999Y127780009I-230000J0D01*
G01*
X13829999Y127780009D01*
G75*
G02*
X13599999Y128010009I0J230000D01*
G01*
G37*
G36*
G01*
X13599999Y125109989D02*
X13599999Y125799989D01*
G75*
G02*
X13829999Y126029989I230000J0D01*
G01*
X15169999Y126029989D01*
G75*
G02*
X15399999Y125799989I0J-230000D01*
G01*
X15399999Y125109989D01*
G75*
G02*
X15169999Y124879989I-230000J0D01*
G01*
X13829999Y124879989D01*
G75*
G02*
X13599999Y125109989I0J230000D01*
G01*
G37*
X14499999Y124454999D03*
G04 #@! TD*
D11*
G04 #@! TO.C,P55*
X108499999Y124749999D03*
G04 #@! TD*
D10*
G04 #@! TO.C,R4*
X24249999Y116999999D03*
G36*
G01*
X24874999Y117454998D02*
X23624999Y117454998D01*
G75*
G02*
X23524999Y117554998I0J100000D01*
G01*
X23524999Y118354998D01*
G75*
G02*
X23624999Y118454998I100000J0D01*
G01*
X24874999Y118454998D01*
G75*
G02*
X24974999Y118354998I0J-100000D01*
G01*
X24974999Y117554998D01*
G75*
G02*
X24874999Y117454998I-100000J0D01*
G01*
G37*
G36*
G01*
X24874999Y119355020D02*
X23624999Y119355020D01*
G75*
G02*
X23524999Y119455020I0J100000D01*
G01*
X23524999Y120255020D01*
G75*
G02*
X23624999Y120355020I100000J0D01*
G01*
X24874999Y120355020D01*
G75*
G02*
X24974999Y120255020I0J-100000D01*
G01*
X24974999Y119455020D01*
G75*
G02*
X24874999Y119355020I-100000J0D01*
G01*
G37*
X24249999Y120809999D03*
G04 #@! TD*
D11*
G04 #@! TO.C,G8*
X133959999Y96919999D03*
X133959999Y99459999D03*
X133959999Y101999999D03*
X133959999Y104539999D03*
X133959999Y107079999D03*
X136499999Y96919999D03*
X136499999Y99459999D03*
X136499999Y101999999D03*
X136499999Y104539999D03*
X136499999Y107079999D03*
X139039999Y96919999D03*
X139039999Y99459999D03*
X139039999Y101999999D03*
X139039999Y104539999D03*
X139039999Y107079999D03*
G04 #@! TD*
D10*
G04 #@! TO.C,R74*
X58749999Y125094999D03*
G36*
G01*
X59374999Y125549998D02*
X58124999Y125549998D01*
G75*
G02*
X58024999Y125649998I0J100000D01*
G01*
X58024999Y126449998D01*
G75*
G02*
X58124999Y126549998I100000J0D01*
G01*
X59374999Y126549998D01*
G75*
G02*
X59474999Y126449998I0J-100000D01*
G01*
X59474999Y125649998D01*
G75*
G02*
X59374999Y125549998I-100000J0D01*
G01*
G37*
G36*
G01*
X59374999Y127450020D02*
X58124999Y127450020D01*
G75*
G02*
X58024999Y127550020I0J100000D01*
G01*
X58024999Y128350020D01*
G75*
G02*
X58124999Y128450020I100000J0D01*
G01*
X59374999Y128450020D01*
G75*
G02*
X59474999Y128350020I0J-100000D01*
G01*
X59474999Y127550020D01*
G75*
G02*
X59374999Y127450020I-100000J0D01*
G01*
G37*
X58749999Y128904999D03*
G04 #@! TD*
D11*
G04 #@! TO.C,G10*
X133959999Y81919999D03*
X133959999Y84459999D03*
X133959999Y86999999D03*
X133959999Y89539999D03*
X133959999Y92079999D03*
X136499999Y81919999D03*
X136499999Y84459999D03*
X136499999Y86999999D03*
X136499999Y89539999D03*
X136499999Y92079999D03*
X139039999Y81919999D03*
X139039999Y84459999D03*
X139039999Y86999999D03*
X139039999Y89539999D03*
X139039999Y92079999D03*
G04 #@! TD*
D15*
G04 #@! TO.C,P1*
X15340980Y147779760D03*
X49790980Y147779760D03*
X97190980Y147779760D03*
X138640980Y147779760D03*
D16*
X15990980Y137579120D03*
X19488560Y137579120D03*
X22589900Y137579120D03*
X25589640Y137579120D03*
X28589380Y137579120D03*
X31589120Y137579120D03*
X34588860Y137579120D03*
X37588600Y137579120D03*
X40588340Y137579120D03*
X43588080Y137579120D03*
X46689420Y137579120D03*
X15990980Y142080000D03*
X19488560Y142080000D03*
X22589900Y142080000D03*
X25589640Y142080000D03*
X28589380Y142080000D03*
X31589120Y142080000D03*
X34588860Y142080000D03*
X37588600Y142080000D03*
X40588340Y142080000D03*
X43588080Y142080000D03*
X46689420Y142080000D03*
X73340980Y137579120D03*
X76340720Y137579120D03*
X79340460Y137579120D03*
X82340200Y137579120D03*
X85342480Y137579120D03*
X88342220Y137579120D03*
X91341960Y137579120D03*
X94341700Y137579120D03*
X73340980Y142080000D03*
X76340720Y142080000D03*
X79340460Y142080000D03*
X82340200Y142080000D03*
X85342480Y142080000D03*
X88342220Y142080000D03*
X91341960Y142080000D03*
X94341700Y142080000D03*
X100287840Y137579120D03*
X103787960Y137579120D03*
X106891840Y137579120D03*
X109891580Y137579120D03*
X112891320Y137579120D03*
X115891060Y137579120D03*
X118890800Y137579120D03*
X121890540Y137579120D03*
X124890280Y137579120D03*
X127890020Y137579120D03*
X130991360Y137579120D03*
X134491480Y137579120D03*
X137991600Y137579120D03*
X100287840Y142080000D03*
X103787960Y142080000D03*
X106891840Y142080000D03*
X109891580Y142080000D03*
X112891320Y142080000D03*
X115891060Y142080000D03*
X118890800Y142080000D03*
X121890540Y142080000D03*
X124890280Y142080000D03*
X127890020Y142080000D03*
X130991360Y142080000D03*
X134491480Y142080000D03*
X137991600Y142080000D03*
X52640980Y137579120D03*
X55640720Y137579120D03*
X58640460Y137579120D03*
X61640200Y137579120D03*
X64642480Y137579120D03*
X67642220Y137579120D03*
X52640980Y142080000D03*
X55640720Y142080000D03*
X58640460Y142080000D03*
X61640200Y142080000D03*
X64642480Y142080000D03*
X67642220Y142080000D03*
G04 #@! TD*
D14*
G04 #@! TO.C,J15*
X148950800Y71900000D03*
G04 #@! TD*
G04 #@! TO.C,J14*
X149000000Y5100000D03*
G04 #@! TD*
D11*
G04 #@! TO.C,G11*
X143959999Y81919999D03*
X143959999Y84459999D03*
X143959999Y86999999D03*
X143959999Y89539999D03*
X143959999Y92079999D03*
X146499999Y81919999D03*
X146499999Y84459999D03*
X146499999Y86999999D03*
X146499999Y89539999D03*
X146499999Y92079999D03*
X149039999Y81919999D03*
X149039999Y84459999D03*
X149039999Y86999999D03*
X149039999Y89539999D03*
X149039999Y92079999D03*
G04 #@! TD*
G04 #@! TO.C,P56*
X112499999Y124749999D03*
G04 #@! TD*
D10*
G04 #@! TO.C,R7*
X33249999Y116999999D03*
G36*
G01*
X33874999Y117454998D02*
X32624999Y117454998D01*
G75*
G02*
X32524999Y117554998I0J100000D01*
G01*
X32524999Y118354998D01*
G75*
G02*
X32624999Y118454998I100000J0D01*
G01*
X33874999Y118454998D01*
G75*
G02*
X33974999Y118354998I0J-100000D01*
G01*
X33974999Y117554998D01*
G75*
G02*
X33874999Y117454998I-100000J0D01*
G01*
G37*
G36*
G01*
X33874999Y119355020D02*
X32624999Y119355020D01*
G75*
G02*
X32524999Y119455020I0J100000D01*
G01*
X32524999Y120255020D01*
G75*
G02*
X32624999Y120355020I100000J0D01*
G01*
X33874999Y120355020D01*
G75*
G02*
X33974999Y120255020I0J-100000D01*
G01*
X33974999Y119455020D01*
G75*
G02*
X33874999Y119355020I-100000J0D01*
G01*
G37*
X33249999Y120809999D03*
G04 #@! TD*
G04 #@! TO.C,R62_64*
X134999999Y125094999D03*
G36*
G01*
X135624999Y125549998D02*
X134374999Y125549998D01*
G75*
G02*
X134274999Y125649998I0J100000D01*
G01*
X134274999Y126449998D01*
G75*
G02*
X134374999Y126549998I100000J0D01*
G01*
X135624999Y126549998D01*
G75*
G02*
X135724999Y126449998I0J-100000D01*
G01*
X135724999Y125649998D01*
G75*
G02*
X135624999Y125549998I-100000J0D01*
G01*
G37*
G36*
G01*
X135624999Y127450020D02*
X134374999Y127450020D01*
G75*
G02*
X134274999Y127550020I0J100000D01*
G01*
X134274999Y128350020D01*
G75*
G02*
X134374999Y128450020I100000J0D01*
G01*
X135624999Y128450020D01*
G75*
G02*
X135724999Y128350020I0J-100000D01*
G01*
X135724999Y127550020D01*
G75*
G02*
X135624999Y127450020I-100000J0D01*
G01*
G37*
X134999999Y128904999D03*
G04 #@! TD*
D17*
G04 #@! TO.C,M1*
X36300125Y33412562D03*
X36300125Y37612562D03*
X36300125Y41812562D03*
D11*
X37800125Y42662562D03*
D17*
X36300125Y46012562D03*
D11*
X37800125Y45202562D03*
D17*
X41800125Y33412562D03*
X41800125Y37612562D03*
D11*
X40340125Y42662562D03*
D17*
X41800125Y41812562D03*
D11*
X40340125Y45202562D03*
D17*
X41800125Y46012562D03*
X36300125Y52812562D03*
X36300125Y57012562D03*
D11*
X37800125Y57862562D03*
D17*
X36300125Y61212562D03*
D11*
X37800125Y60402562D03*
D17*
X36300125Y65412562D03*
D11*
X37800125Y66262562D03*
D17*
X36300125Y69612562D03*
D11*
X37800125Y68802562D03*
D17*
X36300125Y73812562D03*
D11*
X37800125Y74662562D03*
D17*
X36300125Y78012562D03*
D11*
X37800125Y77202562D03*
D17*
X36300125Y82212562D03*
D11*
X37800125Y83062562D03*
D17*
X36300125Y86412562D03*
D11*
X37800125Y85602562D03*
D17*
X41800125Y52812562D03*
D11*
X40340125Y57862562D03*
D17*
X41800125Y57012562D03*
D11*
X40340125Y60402562D03*
D17*
X41800125Y61212562D03*
D11*
X40340125Y66262562D03*
D17*
X41800125Y65412562D03*
D11*
X40340125Y68802562D03*
D17*
X41800125Y69612562D03*
D11*
X40340125Y74662562D03*
D17*
X41800125Y73812562D03*
D11*
X40340125Y77202562D03*
D17*
X41800125Y78012562D03*
D11*
X40340125Y83062562D03*
D17*
X41800125Y82212562D03*
D11*
X40340125Y85602562D03*
D17*
X41800125Y86412562D03*
X37625125Y98337562D03*
D11*
X38475125Y96837562D03*
X41015125Y96837562D03*
D17*
X41825125Y98337562D03*
X46025125Y98337562D03*
D11*
X46875125Y96837562D03*
X49415125Y96837562D03*
D17*
X50225125Y98337562D03*
X54425125Y98337562D03*
D11*
X55275125Y96837562D03*
X57815125Y96837562D03*
D17*
X58625125Y98337562D03*
X62825125Y98337562D03*
D11*
X63675125Y96837562D03*
X66215125Y96837562D03*
D17*
X67025125Y98337562D03*
X71225125Y98337562D03*
X75425125Y98337562D03*
X37625125Y92837562D03*
D11*
X38475125Y94297562D03*
X41015125Y94297562D03*
D17*
X41825125Y92837562D03*
X46025125Y92837562D03*
D11*
X46875125Y94297562D03*
X49415125Y94297562D03*
D17*
X50225125Y92837562D03*
X54425125Y92837562D03*
D11*
X55275125Y94297562D03*
X57815125Y94297562D03*
D17*
X58625125Y92837562D03*
X62825125Y92837562D03*
D11*
X63675125Y94297562D03*
X66215125Y94297562D03*
D17*
X67025125Y92837562D03*
X71225125Y92837562D03*
X75425125Y92837562D03*
X87325125Y98337562D03*
D11*
X88175125Y96837562D03*
X90715125Y96837562D03*
D17*
X91525125Y98337562D03*
X95725125Y98337562D03*
D11*
X96575125Y96837562D03*
X99115125Y96837562D03*
D17*
X99925125Y98337562D03*
X104125125Y98337562D03*
D11*
X104975125Y96837562D03*
X107515125Y96837562D03*
D17*
X108325125Y98337562D03*
X112525125Y98337562D03*
D11*
X113375125Y96837562D03*
X115915125Y96837562D03*
D17*
X116725125Y98337562D03*
X87325125Y92837562D03*
D11*
X88175125Y94297562D03*
X90715125Y94297562D03*
D17*
X91525125Y92837562D03*
X95725125Y92837562D03*
D11*
X96575125Y94297562D03*
X99115125Y94297562D03*
D17*
X99925125Y92837562D03*
X104125125Y92837562D03*
D11*
X104975125Y94297562D03*
X107515125Y94297562D03*
D17*
X108325125Y92837562D03*
X112525125Y92837562D03*
D11*
X113375125Y94297562D03*
X115915125Y94297562D03*
D17*
X116725125Y92837562D03*
D11*
X116290125Y86002562D03*
D17*
X117750125Y86812562D03*
D11*
X116290125Y83462562D03*
D17*
X117750125Y82612562D03*
X117750125Y78412562D03*
X112250125Y86812562D03*
D11*
X113750125Y86002562D03*
D17*
X112250125Y82612562D03*
D11*
X113750125Y83462562D03*
D17*
X112250125Y78412562D03*
G36*
G01*
X110700125Y9762562D02*
X109350125Y9762562D01*
G75*
G02*
X109100125Y10012562I0J250000D01*
G01*
X109100125Y11212562D01*
G75*
G02*
X109350125Y11462562I250000J0D01*
G01*
X110700125Y11462562D01*
G75*
G02*
X110950125Y11212562I0J-250000D01*
G01*
X110950125Y10012562D01*
G75*
G02*
X110700125Y9762562I-250000J0D01*
G01*
G37*
D18*
X110025125Y13112562D03*
X110025125Y15612562D03*
X110025125Y18112562D03*
X110025125Y20612562D03*
D11*
X89525125Y10112562D03*
X89525125Y15112562D03*
X110225125Y31612562D03*
X110225125Y26912562D03*
X32565125Y19112562D03*
X35105125Y19112562D03*
X30025125Y19112562D03*
X50025125Y18612562D03*
G04 #@! TD*
G04 #@! TO.C,P19*
X36499999Y124749999D03*
G04 #@! TD*
D10*
G04 #@! TO.C,R13*
X17999999Y125094999D03*
G36*
G01*
X18624999Y125549998D02*
X17374999Y125549998D01*
G75*
G02*
X17274999Y125649998I0J100000D01*
G01*
X17274999Y126449998D01*
G75*
G02*
X17374999Y126549998I100000J0D01*
G01*
X18624999Y126549998D01*
G75*
G02*
X18724999Y126449998I0J-100000D01*
G01*
X18724999Y125649998D01*
G75*
G02*
X18624999Y125549998I-100000J0D01*
G01*
G37*
G36*
G01*
X18624999Y127450020D02*
X17374999Y127450020D01*
G75*
G02*
X17274999Y127550020I0J100000D01*
G01*
X17274999Y128350020D01*
G75*
G02*
X17374999Y128450020I100000J0D01*
G01*
X18624999Y128450020D01*
G75*
G02*
X18724999Y128350020I0J-100000D01*
G01*
X18724999Y127550020D01*
G75*
G02*
X18624999Y127450020I-100000J0D01*
G01*
G37*
X17999999Y128904999D03*
G04 #@! TD*
D11*
G04 #@! TO.C,P21*
X43499999Y124749999D03*
G04 #@! TD*
D14*
G04 #@! TO.C,J13*
X5000000Y5100000D03*
G04 #@! TD*
G04 #@! TO.C,Q1*
G36*
G01*
X86649999Y117074999D02*
X86649999Y116324999D01*
G75*
G02*
X86274999Y115949999I-375000J0D01*
G01*
X85024999Y115949999D01*
G75*
G02*
X84649999Y116324999I0J375000D01*
G01*
X84649999Y117074999D01*
G75*
G02*
X85024999Y117449999I375000J0D01*
G01*
X86274999Y117449999D01*
G75*
G02*
X86649999Y117074999I0J-375000D01*
G01*
G37*
G36*
G01*
X86649999Y119374999D02*
X86649999Y118624999D01*
G75*
G02*
X86274999Y118249999I-375000J0D01*
G01*
X85024999Y118249999D01*
G75*
G02*
X84649999Y118624999I0J375000D01*
G01*
X84649999Y119374999D01*
G75*
G02*
X85024999Y119749999I375000J0D01*
G01*
X86274999Y119749999D01*
G75*
G02*
X86649999Y119374999I0J-375000D01*
G01*
G37*
G36*
G01*
X86649999Y121674999D02*
X86649999Y120924999D01*
G75*
G02*
X86274999Y120549999I-375000J0D01*
G01*
X85024999Y120549999D01*
G75*
G02*
X84649999Y120924999I0J375000D01*
G01*
X84649999Y121674999D01*
G75*
G02*
X85024999Y122049999I375000J0D01*
G01*
X86274999Y122049999D01*
G75*
G02*
X86649999Y121674999I0J-375000D01*
G01*
G37*
G36*
G01*
X80349999Y120399999D02*
X80349999Y117599999D01*
G75*
G02*
X79849999Y117099999I-500000J0D01*
G01*
X78849999Y117099999D01*
G75*
G02*
X78349999Y117599999I0J500000D01*
G01*
X78349999Y120399999D01*
G75*
G02*
X78849999Y120899999I500000J0D01*
G01*
X79849999Y120899999D01*
G75*
G02*
X80349999Y120399999I0J-500000D01*
G01*
G37*
G04 #@! TD*
D11*
G04 #@! TO.C,P7*
X19499999Y13999999D03*
G04 #@! TD*
D12*
G04 #@! TO.C,J3*
X139524999Y49999999D03*
X139524999Y55999999D03*
G36*
G01*
X136084998Y52249999D02*
X135085000Y52249999D01*
G75*
G02*
X134834999Y52500000I0J250001D01*
G01*
X134834999Y53499998D01*
G75*
G02*
X135085000Y53749999I250001J0D01*
G01*
X136084998Y53749999D01*
G75*
G02*
X136334999Y53499998I0J-250001D01*
G01*
X136334999Y52500000D01*
G75*
G02*
X136084998Y52249999I-250001J0D01*
G01*
G37*
D13*
X138584999Y52999999D03*
G04 #@! TD*
D11*
G04 #@! TO.C,P4*
X19499999Y23999999D03*
G04 #@! TD*
D10*
G04 #@! TO.C,R69*
X66249999Y116999999D03*
G36*
G01*
X66874999Y117454998D02*
X65624999Y117454998D01*
G75*
G02*
X65524999Y117554998I0J100000D01*
G01*
X65524999Y118354998D01*
G75*
G02*
X65624999Y118454998I100000J0D01*
G01*
X66874999Y118454998D01*
G75*
G02*
X66974999Y118354998I0J-100000D01*
G01*
X66974999Y117554998D01*
G75*
G02*
X66874999Y117454998I-100000J0D01*
G01*
G37*
G36*
G01*
X66874999Y119355020D02*
X65624999Y119355020D01*
G75*
G02*
X65524999Y119455020I0J100000D01*
G01*
X65524999Y120255020D01*
G75*
G02*
X65624999Y120355020I100000J0D01*
G01*
X66874999Y120355020D01*
G75*
G02*
X66974999Y120255020I0J-100000D01*
G01*
X66974999Y119455020D01*
G75*
G02*
X66874999Y119355020I-100000J0D01*
G01*
G37*
X66249999Y120809999D03*
G04 #@! TD*
G04 #@! TO.C,R61*
X127999999Y125094999D03*
G36*
G01*
X128624999Y125549998D02*
X127374999Y125549998D01*
G75*
G02*
X127274999Y125649998I0J100000D01*
G01*
X127274999Y126449998D01*
G75*
G02*
X127374999Y126549998I100000J0D01*
G01*
X128624999Y126549998D01*
G75*
G02*
X128724999Y126449998I0J-100000D01*
G01*
X128724999Y125649998D01*
G75*
G02*
X128624999Y125549998I-100000J0D01*
G01*
G37*
G36*
G01*
X128624999Y127450020D02*
X127374999Y127450020D01*
G75*
G02*
X127274999Y127550020I0J100000D01*
G01*
X127274999Y128350020D01*
G75*
G02*
X127374999Y128450020I100000J0D01*
G01*
X128624999Y128450020D01*
G75*
G02*
X128724999Y128350020I0J-100000D01*
G01*
X128724999Y127550020D01*
G75*
G02*
X128624999Y127450020I-100000J0D01*
G01*
G37*
X127999999Y128904999D03*
G04 #@! TD*
G04 #@! TO.C,R54*
X103999999Y125094999D03*
G36*
G01*
X104624999Y125549998D02*
X103374999Y125549998D01*
G75*
G02*
X103274999Y125649998I0J100000D01*
G01*
X103274999Y126449998D01*
G75*
G02*
X103374999Y126549998I100000J0D01*
G01*
X104624999Y126549998D01*
G75*
G02*
X104724999Y126449998I0J-100000D01*
G01*
X104724999Y125649998D01*
G75*
G02*
X104624999Y125549998I-100000J0D01*
G01*
G37*
G36*
G01*
X104624999Y127450020D02*
X103374999Y127450020D01*
G75*
G02*
X103274999Y127550020I0J100000D01*
G01*
X103274999Y128350020D01*
G75*
G02*
X103374999Y128450020I100000J0D01*
G01*
X104624999Y128450020D01*
G75*
G02*
X104724999Y128350020I0J-100000D01*
G01*
X104724999Y127550020D01*
G75*
G02*
X104624999Y127450020I-100000J0D01*
G01*
G37*
X103999999Y128904999D03*
G04 #@! TD*
D11*
G04 #@! TO.C,P8*
X36499999Y116999999D03*
G04 #@! TD*
G04 #@! TO.C,R25*
G36*
G01*
X96374999Y116450000D02*
X97624999Y116450000D01*
G75*
G02*
X97724999Y116350000I0J-100000D01*
G01*
X97724999Y115550000D01*
G75*
G02*
X97624999Y115450000I-100000J0D01*
G01*
X96374999Y115450000D01*
G75*
G02*
X96274999Y115550000I0J100000D01*
G01*
X96274999Y116350000D01*
G75*
G02*
X96374999Y116450000I100000J0D01*
G01*
G37*
G36*
G01*
X96374999Y114549978D02*
X97624999Y114549978D01*
G75*
G02*
X97724999Y114449978I0J-100000D01*
G01*
X97724999Y113649978D01*
G75*
G02*
X97624999Y113549978I-100000J0D01*
G01*
X96374999Y113549978D01*
G75*
G02*
X96274999Y113649978I0J100000D01*
G01*
X96274999Y114449978D01*
G75*
G02*
X96374999Y114549978I100000J0D01*
G01*
G37*
G04 #@! TD*
G04 #@! TO.C,P60*
X124749999Y124749999D03*
G04 #@! TD*
D10*
G04 #@! TO.C,R64*
X143499999Y125094999D03*
G36*
G01*
X144124999Y125549998D02*
X142874999Y125549998D01*
G75*
G02*
X142774999Y125649998I0J100000D01*
G01*
X142774999Y126449998D01*
G75*
G02*
X142874999Y126549998I100000J0D01*
G01*
X144124999Y126549998D01*
G75*
G02*
X144224999Y126449998I0J-100000D01*
G01*
X144224999Y125649998D01*
G75*
G02*
X144124999Y125549998I-100000J0D01*
G01*
G37*
G36*
G01*
X144124999Y127450020D02*
X142874999Y127450020D01*
G75*
G02*
X142774999Y127550020I0J100000D01*
G01*
X142774999Y128350020D01*
G75*
G02*
X142874999Y128450020I100000J0D01*
G01*
X144124999Y128450020D01*
G75*
G02*
X144224999Y128350020I0J-100000D01*
G01*
X144224999Y127550020D01*
G75*
G02*
X144124999Y127450020I-100000J0D01*
G01*
G37*
X143499999Y128904999D03*
G04 #@! TD*
G04 #@! TO.C,R75*
X66249999Y125094999D03*
G36*
G01*
X66874999Y125549998D02*
X65624999Y125549998D01*
G75*
G02*
X65524999Y125649998I0J100000D01*
G01*
X65524999Y126449998D01*
G75*
G02*
X65624999Y126549998I100000J0D01*
G01*
X66874999Y126549998D01*
G75*
G02*
X66974999Y126449998I0J-100000D01*
G01*
X66974999Y125649998D01*
G75*
G02*
X66874999Y125549998I-100000J0D01*
G01*
G37*
G36*
G01*
X66874999Y127450020D02*
X65624999Y127450020D01*
G75*
G02*
X65524999Y127550020I0J100000D01*
G01*
X65524999Y128350020D01*
G75*
G02*
X65624999Y128450020I100000J0D01*
G01*
X66874999Y128450020D01*
G75*
G02*
X66974999Y128350020I0J-100000D01*
G01*
X66974999Y127550020D01*
G75*
G02*
X66874999Y127450020I-100000J0D01*
G01*
G37*
X66249999Y128904999D03*
G04 #@! TD*
G04 #@! TO.C,F32*
X85499999Y129354999D03*
G36*
G01*
X84599999Y128010009D02*
X84599999Y128700009D01*
G75*
G02*
X84829999Y128930009I230000J0D01*
G01*
X86169999Y128930009D01*
G75*
G02*
X86399999Y128700009I0J-230000D01*
G01*
X86399999Y128010009D01*
G75*
G02*
X86169999Y127780009I-230000J0D01*
G01*
X84829999Y127780009D01*
G75*
G02*
X84599999Y128010009I0J230000D01*
G01*
G37*
G36*
G01*
X84599999Y125109989D02*
X84599999Y125799989D01*
G75*
G02*
X84829999Y126029989I230000J0D01*
G01*
X86169999Y126029989D01*
G75*
G02*
X86399999Y125799989I0J-230000D01*
G01*
X86399999Y125109989D01*
G75*
G02*
X86169999Y124879989I-230000J0D01*
G01*
X84829999Y124879989D01*
G75*
G02*
X84599999Y125109989I0J230000D01*
G01*
G37*
X85499999Y124454999D03*
G04 #@! TD*
D11*
G04 #@! TO.C,P_C13*
X10749999Y96249999D03*
G04 #@! TD*
G04 #@! TO.C,P5*
X27249999Y116999999D03*
G04 #@! TD*
D14*
G04 #@! TO.C,J11*
X5000000Y153900000D03*
G04 #@! TD*
M02*
