G04 #@! TF.GenerationSoftware,KiCad,Pcbnew,8.0.1-8.0.1-1~ubuntu22.04.1*
G04 #@! TF.CreationDate,2024-04-26T01:23:25+00:00*
G04 #@! TF.ProjectId,uaefi-adapter-NA-90-95,75616566-692d-4616-9461-707465722d4e,rev?*
G04 #@! TF.SameCoordinates,Original*
G04 #@! TF.FileFunction,Profile,NP*
%FSLAX46Y46*%
G04 Gerber Fmt 4.6, Leading zero omitted, Abs format (unit mm)*
G04 Created by KiCad (PCBNEW 8.0.1-8.0.1-1~ubuntu22.04.1) date 2024-04-26 01:23:25*
%MOMM*%
%LPD*%
G01*
G04 APERTURE LIST*
G04 #@! TA.AperFunction,Profile*
%ADD10C,0.100000*%
G04 #@! TD*
G04 #@! TA.AperFunction,Profile*
%ADD11C,0.200000*%
G04 #@! TD*
G04 APERTURE END LIST*
D10*
X154500001Y7500001D02*
X154500001Y152500001D01*
X154500002Y7500000D02*
G75*
G02*
X147500001Y499998I-7000002J0D01*
G01*
D11*
X152000001Y6400001D02*
G75*
G02*
X147000001Y6400001I-2500000J0D01*
G01*
X147000001Y6400001D02*
G75*
G02*
X152000001Y6400001I2500000J0D01*
G01*
X152000001Y154400001D02*
G75*
G02*
X147000001Y154400001I-2500000J0D01*
G01*
X147000001Y154400001D02*
G75*
G02*
X152000001Y154400001I2500000J0D01*
G01*
D10*
X147500002Y159500002D02*
G75*
G02*
X154500002Y152500001I-102J-7000102D01*
G01*
D11*
X8000001Y154400001D02*
G75*
G02*
X3000001Y154400001I-2500000J0D01*
G01*
X3000001Y154400001D02*
G75*
G02*
X8000001Y154400001I2500000J0D01*
G01*
X151700801Y72400001D02*
G75*
G02*
X147200801Y72400001I-2250000J0D01*
G01*
X147200801Y72400001D02*
G75*
G02*
X151700801Y72400001I2250000J0D01*
G01*
D10*
X147500001Y159500001D02*
X7500001Y159500001D01*
D11*
X8000001Y5600001D02*
G75*
G02*
X3000001Y5600001I-2500000J0D01*
G01*
X3000001Y5600001D02*
G75*
G02*
X8000001Y5600001I2500000J0D01*
G01*
D10*
X7500001Y500001D02*
X147500001Y500001D01*
X500001Y152500001D02*
X500001Y7500001D01*
X7500000Y500000D02*
G75*
G02*
X500000Y7500001I0J7000000D01*
G01*
X500000Y152500002D02*
G75*
G02*
X7500001Y159500000I7000000J-2D01*
G01*
G04 #@! TO.C,M1*
X45512559Y39849745D02*
X45500000Y23112563D01*
X45512559Y39849745D02*
X45512562Y82900001D01*
X47500000Y21112563D02*
X50500000Y21112563D01*
X52500000Y19112563D02*
X52500000Y11400000D01*
X85400000Y9412563D02*
X54500000Y9400000D01*
X87400000Y11412563D02*
X87399911Y16112643D01*
X89399911Y18112643D02*
X103560074Y18112489D01*
X102562815Y89900000D02*
X52512563Y89900000D01*
X105562811Y35849743D02*
X105560074Y20112489D01*
X107562811Y37849743D02*
X123012563Y37849743D01*
X109562814Y82899999D02*
X109562814Y75200000D01*
X123012563Y73200000D02*
X111562814Y73200000D01*
X125012563Y39849743D02*
X125012563Y71200000D01*
X45512562Y82900001D02*
G75*
G02*
X52512563Y89900001I6999998J2D01*
G01*
X47500000Y21112563D02*
G75*
G02*
X45500000Y23112563I0J2000000D01*
G01*
X50500000Y21112563D02*
G75*
G02*
X52500000Y19112563I0J-2000000D01*
G01*
X54500000Y9400000D02*
G75*
G02*
X52499937Y11400000I0J2000063D01*
G01*
X87399911Y16112643D02*
G75*
G02*
X89399911Y18112652I2000089J-80D01*
G01*
X87400000Y11412563D02*
G75*
G02*
X85400000Y9412563I-2000100J100D01*
G01*
X102562815Y89900000D02*
G75*
G02*
X109562807Y82899999I135J-6999857D01*
G01*
X105560074Y20112489D02*
G75*
G02*
X103560074Y18112489I-2000074J74D01*
G01*
X105562811Y35849743D02*
G75*
G02*
X107562811Y37849752I2000089J-80D01*
G01*
X111562814Y73200000D02*
G75*
G02*
X109562837Y75200000I-14J1999963D01*
G01*
X123012563Y73200000D02*
G75*
G02*
X125012537Y71200000I-63J-2000037D01*
G01*
X125012563Y39849743D02*
G75*
G02*
X123012563Y37849800I-1999863J-80D01*
G01*
G04 #@! TD*
M02*
