M48
; DRILL file {KiCad 8.0.1-8.0.1-1~ubuntu22.04.1} date 2024-04-26T01:23:25+0000
; FORMAT={2:4/ absolute / inch / suppress leading zeros}
; #@! TF.CreationDate,2024-04-26T01:23:25+00:00
; #@! TF.GenerationSoftware,Kicad,Pcbnew,8.0.1-8.0.1-1~ubuntu22.04.1
; #@! TF.FileFunction,MixedPlating,1,4
FMAT,2
INCH,TZ
; #@! TA.AperFunction,Plated,PTH,ViaDrill
T1C0.0157
; #@! TA.AperFunction,Plated,PTH,ComponentDrill
T2C0.0320
; #@! TA.AperFunction,Plated,PTH,ComponentDrill
T3C0.0335
; #@! TA.AperFunction,Plated,PTH,ComponentDrill
T4C0.0394
; #@! TA.AperFunction,Plated,PTH,ComponentDrill
T5C0.0433
; #@! TA.AperFunction,Plated,PTH,ComponentDrill
T6C0.0472
; #@! TA.AperFunction,Plated,PTH,ComponentDrill
T7C0.1378
; #@! TA.AperFunction,Plated,PTH,ComponentDrill
T8C0.1969
; #@! TA.AperFunction,NonPlated,NPTH,ComponentDrill
T9C0.0394
%
G90
G05
T1
X2756Y51673
X2756Y49311
X4528Y36713
X4528Y25098
X4724Y56693
X4724Y53051
X6201Y22638
X6201Y19488
X6201Y15846
X6201Y11220
X6201Y2756
X6496Y44390
X6496Y40846
X7480Y36713
X7480Y29331
X7579Y14469
X7592Y13373
X8931Y20990
X8957Y19488
X8957Y15846
X8957Y11220
X8957Y2756
X9449Y22638
X9744Y29331
X9744Y28248
X9843Y25098
X10827Y44390
X11614Y32579
X11909Y30906
X12402Y40846
X12402Y31791
X14488Y35216
X14567Y44390
X15354Y5217
X17028Y35236
X17323Y44390
X17717Y2756
X18307Y39961
X20472Y53051
X20472Y51673
X20472Y49311
X20472Y47835
X20472Y44390
X21624Y41319
X22441Y41034
X23278Y41634
X24932Y41634
X25000Y51673
X25000Y49311
X25000Y47835
X25000Y45866
X25000Y43701
X27657Y53051
X27657Y51673
X27657Y49311
X27657Y45866
X27657Y43701
X28248Y41939
X29429Y51673
X29429Y49311
X29429Y43701
X31890Y49902
X32677Y47343
X32677Y46850
X32677Y46358
X34055Y43307
X34577Y43012
X34941Y49902
X35418Y42146
X36225Y43608
X39075Y53051
X39075Y49902
X39075Y45079
X39469Y45079
X41191Y43061
X42028Y40364
X42849Y42431
X43504Y42717
X44498Y40660
X45333Y39675
X46161Y40945
X46752Y8366
X46850Y5413
X47638Y40354
X47638Y36747
X47638Y29331
X48031Y43996
X48524Y43996
X49705Y43406
X50098Y43406
X54724Y29331
X54724Y25000
X54823Y10630
X54823Y2756
X58366Y53051
X58366Y49902
X58366Y43701
X58858Y25000
X58858Y18307
X58858Y10630
T2
X5906Y51124
X5906Y49195
X7283Y50947
X7283Y49447
X8563Y50947
X8563Y49447
X8563Y47760
X8563Y46260
X9744Y50947
X9744Y49447
X9744Y47760
X9744Y46260
X10925Y50947
X10925Y49447
X12106Y50947
X12106Y49447
X13287Y50947
X13287Y49447
X13287Y47760
X13287Y46260
X15846Y50947
X15846Y49447
X15846Y47760
X15846Y46260
X18996Y50947
X18996Y49447
X23327Y50947
X23327Y49447
X23327Y47760
X23327Y46260
X26280Y50947
X26280Y49447
X26280Y47760
X26280Y46260
X33858Y51124
X33858Y49195
X41142Y50947
X41142Y49447
X44488Y47760
X44488Y46260
X45669Y50947
X45669Y49447
X46850Y50947
X46850Y49447
X46850Y47760
X46850Y46260
X48031Y50947
X48031Y49447
X49311Y47760
X49311Y46260
X50591Y50947
X50591Y49447
X50591Y47760
X50591Y46260
X53346Y50947
X53346Y49447
X53346Y47404
X53346Y45904
X56693Y50947
X56693Y49447
X56693Y47404
X56693Y45904
T3
X43514Y8312
X43514Y7328
X43514Y6344
X43514Y5359
X43514Y4375
T4
X4429Y38091
X5512Y46260
X5906Y33268
X5906Y32087
X6398Y38091
X7087Y46260
X7087Y33268
X7087Y32087
X7874Y9646
X7874Y7677
X7874Y5709
X7874Y3740
X8366Y38091
X10925Y46260
X12018Y7721
X12205Y46260
X13018Y7721
X14018Y7721
X14567Y49311
X14567Y46260
X15079Y33899
X15079Y32899
X15079Y30592
X15079Y29592
X15079Y27284
X15079Y26284
X15079Y23977
X15079Y22977
X15079Y17993
X15079Y16993
X15345Y38322
X15345Y37322
X16079Y33899
X16079Y32899
X16079Y30592
X16079Y29592
X16079Y27284
X16079Y26284
X16079Y23977
X16079Y22977
X16079Y17993
X16079Y16993
X16345Y38322
X16345Y37322
X17323Y49311
X17323Y46260
X18652Y38322
X18652Y37322
X18996Y46260
X19652Y38322
X19652Y37322
X19892Y7525
X21959Y38322
X21959Y37322
X22959Y38322
X22959Y37322
X25266Y38322
X25266Y37322
X26266Y38322
X26266Y37322
X34911Y38322
X34911Y37322
X35443Y6147
X35443Y4178
X35911Y38322
X35911Y37322
X38219Y38322
X38219Y37322
X39219Y38322
X39219Y37322
X41526Y38322
X41526Y37322
X42526Y38322
X42526Y37322
X42913Y49311
X42913Y46260
X43593Y12643
X43593Y10792
X44488Y49311
X44833Y38322
X44833Y37322
X44980Y34056
X44980Y33056
X45833Y38322
X45833Y37322
X45980Y34056
X45980Y33056
X49311Y49311
X52937Y42354
X52937Y41354
X52937Y40354
X52937Y39354
X52937Y38354
X52937Y36449
X52937Y35449
X52937Y34449
X52937Y33449
X52937Y32449
X53543Y16732
X53543Y15551
X53543Y14370
X53577Y21063
X53937Y42354
X53937Y41354
X53937Y40354
X53937Y39354
X53937Y38354
X53937Y36449
X53937Y35449
X53937Y34449
X53937Y33449
X53937Y32449
X54724Y16732
X54724Y15551
X54724Y14370
X54758Y21063
X54937Y42354
X54937Y41354
X54937Y40354
X54937Y39354
X54937Y38354
X54937Y36449
X54937Y35449
X54937Y34449
X54937Y33449
X54937Y32449
X55315Y46063
X56874Y42354
X56874Y41354
X56874Y40354
X56874Y39354
X56874Y38354
X56874Y36449
X56874Y35449
X56874Y34449
X56874Y33449
X56874Y32449
X57874Y42354
X57874Y41354
X57874Y40354
X57874Y39354
X57874Y38354
X57874Y36449
X57874Y35449
X57874Y34449
X57874Y33449
X57874Y32449
X58874Y42354
X58874Y41354
X58874Y40354
X58874Y39354
X58874Y38354
X58874Y36449
X58874Y35449
X58874Y34449
X58874Y33449
X58874Y32449
T5
X6493Y56134
X6493Y54362
X7870Y56134
X7870Y54362
X9091Y56134
X9091Y54362
X10272Y56134
X10272Y54362
X11453Y56134
X11453Y54362
X12634Y56134
X12634Y54362
X13815Y56134
X13815Y54362
X14996Y56134
X14996Y54362
X16177Y56134
X16177Y54362
X17358Y56134
X17358Y54362
X18579Y56134
X18579Y54362
X20922Y56134
X20922Y54362
X22103Y56134
X22103Y54362
X23284Y56134
X23284Y54362
X24465Y56134
X24465Y54362
X25647Y56134
X25647Y54362
X26828Y56134
X26828Y54362
X29071Y56134
X29071Y54362
X30252Y56134
X30252Y54362
X31433Y56134
X31433Y54362
X32614Y56134
X32614Y54362
X33796Y56134
X33796Y54362
X34977Y56134
X34977Y54362
X36158Y56134
X36158Y54362
X37339Y56134
X37339Y54362
X39680Y56134
X39680Y54362
X41058Y56134
X41058Y54362
X42280Y56134
X42280Y54362
X43461Y56134
X43461Y54362
X44642Y56134
X44642Y54362
X45823Y56134
X45823Y54362
X47004Y56134
X47004Y54362
X48185Y56134
X48185Y54362
X49366Y56134
X49366Y54362
X50547Y56134
X50547Y54362
X51768Y56134
X51768Y54362
X53146Y56134
X53146Y54362
X54524Y56134
X54524Y54362
T6
X14488Y34218
X14488Y32564
X14488Y30910
X14488Y29257
X14488Y27603
X14488Y25950
X14488Y24296
X14488Y22643
X14488Y20989
X14488Y18312
X14488Y16658
X14488Y15005
X14488Y13351
X15010Y38912
X15010Y36747
X16654Y34218
X16654Y32564
X16654Y30910
X16654Y29257
X16654Y27603
X16654Y25950
X16654Y24296
X16654Y22643
X16654Y20989
X16654Y18312
X16654Y16658
X16654Y15005
X16654Y13351
X16663Y38912
X16663Y36747
X18317Y38912
X18317Y36747
X19971Y38912
X19971Y36747
X21624Y38912
X21624Y36747
X23278Y38912
X23278Y36747
X24931Y38912
X24931Y36747
X26585Y38912
X26585Y36747
X28238Y38912
X28238Y36747
X29892Y38912
X29892Y36747
X34577Y38912
X34577Y36747
X36230Y38912
X36230Y36747
X37884Y38912
X37884Y36747
X39537Y38912
X39537Y36747
X41191Y38912
X41191Y36747
X42845Y38912
X42845Y36747
X44390Y34375
X44390Y32721
X44390Y31068
X44498Y38912
X44498Y36747
X46152Y38912
X46152Y36747
X46555Y34375
X46555Y32721
X46555Y31068
T7
X6237Y58378
X19800Y58378
X38461Y58378
X54780Y58378
T8
X2165Y60787
X2165Y28504
X2165Y2205
X58839Y28504
X58858Y60787
X58858Y2205
T9
X4724Y31717
X8268Y31717
X55094Y17913
X55094Y13189
X55128Y22244
X55128Y19882
M30
