G04 #@! TF.GenerationSoftware,KiCad,Pcbnew,7.0.11-7.0.11~ubuntu22.04.1*
G04 #@! TF.CreationDate,2024-03-12T20:41:04+00:00*
G04 #@! TF.ProjectId,uaefi-adapter-NA-90-95,75616566-692d-4616-9461-707465722d4e,rev?*
G04 #@! TF.SameCoordinates,Original*
G04 #@! TF.FileFunction,Soldermask,Bot*
G04 #@! TF.FilePolarity,Negative*
%FSLAX46Y46*%
G04 Gerber Fmt 4.6, Leading zero omitted, Abs format (unit mm)*
G04 Created by KiCad (PCBNEW 7.0.11-7.0.11~ubuntu22.04.1) date 2024-03-12 20:41:04*
%MOMM*%
%LPD*%
G01*
G04 APERTURE LIST*
%ADD10C,1.524000*%
%ADD11C,1.700000*%
%ADD12C,1.000000*%
%ADD13C,1.500000*%
%ADD14C,7.000000*%
%ADD15C,3.500120*%
%ADD16C,1.800000*%
%ADD17C,2.000000*%
%ADD18O,1.850000X1.700000*%
G04 APERTURE END LIST*
D10*
G04 #@! TO.C,R17*
X30750000Y125595000D03*
X30750000Y129405000D03*
G04 #@! TD*
G04 #@! TO.C,R15*
X24750000Y125595000D03*
X24750000Y129405000D03*
G04 #@! TD*
D11*
G04 #@! TO.C,P11*
X48250000Y117500000D03*
G04 #@! TD*
D10*
G04 #@! TO.C,R58*
X119000000Y125595000D03*
X119000000Y129405000D03*
G04 #@! TD*
D11*
G04 #@! TO.C,P3*
X20000000Y19500000D03*
G04 #@! TD*
G04 #@! TO.C,P_D5*
X109000000Y117500000D03*
G04 #@! TD*
D10*
G04 #@! TO.C,R57*
X116000000Y125595000D03*
X116000000Y129405000D03*
G04 #@! TD*
G04 #@! TO.C,R22*
X48250000Y125595000D03*
X48250000Y129405000D03*
G04 #@! TD*
G04 #@! TO.C,R46*
X125250000Y117500000D03*
X125250000Y121310000D03*
G04 #@! TD*
G04 #@! TO.C,R9*
X40250000Y117500000D03*
X40250000Y121310000D03*
G04 #@! TD*
D11*
G04 #@! TO.C,P12*
X14000000Y117500000D03*
G04 #@! TD*
D10*
G04 #@! TO.C,R49_51*
X135500000Y116595000D03*
X135500000Y120405000D03*
G04 #@! TD*
D11*
G04 #@! TO.C,P63*
X140500000Y117000000D03*
G04 #@! TD*
G04 #@! TO.C,P9*
X20000000Y9500000D03*
G04 #@! TD*
D10*
G04 #@! TO.C,R3*
X21750000Y117500000D03*
X21750000Y121310000D03*
G04 #@! TD*
G04 #@! TO.C,R18*
X33750000Y125595000D03*
X33750000Y129405000D03*
G04 #@! TD*
D11*
G04 #@! TO.C,P6*
X31000000Y117500000D03*
G04 #@! TD*
D10*
G04 #@! TO.C,R20*
X40250000Y125595000D03*
X40250000Y129405000D03*
G04 #@! TD*
D12*
G04 #@! TO.C,J2*
X12000000Y80560000D03*
X21000000Y80560000D03*
G36*
G01*
X14250000Y84000001D02*
X14250000Y84999999D01*
G75*
G02*
X14500001Y85250000I250001J0D01*
G01*
X15499999Y85250000D01*
G75*
G02*
X15750000Y84999999I0J-250001D01*
G01*
X15750000Y84000001D01*
G75*
G02*
X15499999Y83750000I-250001J0D01*
G01*
X14500001Y83750000D01*
G75*
G02*
X14250000Y84000001I0J250001D01*
G01*
G37*
D13*
X18000000Y84500000D03*
X15000000Y81500000D03*
X18000000Y81500000D03*
G04 #@! TD*
D10*
G04 #@! TO.C,R46_61*
X122000000Y125595000D03*
X122000000Y129405000D03*
G04 #@! TD*
G04 #@! TO.C,R45*
X119000000Y117500000D03*
X119000000Y121310000D03*
G04 #@! TD*
D11*
G04 #@! TO.C,P_C11*
X21250000Y96750000D03*
G04 #@! TD*
G04 #@! TO.C,P10*
X44000000Y117500000D03*
G04 #@! TD*
D10*
G04 #@! TO.C,R51*
X144000000Y116595000D03*
X144000000Y120405000D03*
G04 #@! TD*
D11*
G04 #@! TO.C,G9*
X144460000Y97420000D03*
X144460000Y99960000D03*
X144460000Y102500000D03*
X144460000Y105040000D03*
X144460000Y107580000D03*
X147000000Y97420000D03*
X147000000Y99960000D03*
X147000000Y102500000D03*
X147000000Y105040000D03*
X147000000Y107580000D03*
X149540000Y97420000D03*
X149540000Y99960000D03*
X149540000Y102500000D03*
X149540000Y105040000D03*
X149540000Y107580000D03*
G04 #@! TD*
D10*
G04 #@! TO.C,R43*
X113000000Y117500000D03*
X113000000Y121310000D03*
G04 #@! TD*
D12*
G04 #@! TO.C,J1*
X139940000Y33500000D03*
X139940000Y45500000D03*
G36*
G01*
X136499999Y35750000D02*
X135500001Y35750000D01*
G75*
G02*
X135250000Y36000001I0J250001D01*
G01*
X135250000Y36999999D01*
G75*
G02*
X135500001Y37250000I250001J0D01*
G01*
X136499999Y37250000D01*
G75*
G02*
X136750000Y36999999I0J-250001D01*
G01*
X136750000Y36000001D01*
G75*
G02*
X136499999Y35750000I-250001J0D01*
G01*
G37*
D13*
X136000000Y39500000D03*
X136000000Y42500000D03*
X139000000Y36500000D03*
X139000000Y39500000D03*
X139000000Y42500000D03*
G04 #@! TD*
D14*
G04 #@! TO.C,J16*
X149500001Y154400001D03*
G04 #@! TD*
G04 #@! TO.C,J17*
X5500001Y72400001D03*
G04 #@! TD*
D10*
G04 #@! TO.C,R16*
X27750000Y125595000D03*
X27750000Y129405000D03*
G04 #@! TD*
G04 #@! TO.C,R48*
X128500000Y117500000D03*
X128500000Y121310000D03*
G04 #@! TD*
G04 #@! TO.C,R14*
X21750000Y125595000D03*
X21750000Y129405000D03*
G04 #@! TD*
G04 #@! TO.C,R68*
X59250000Y117500000D03*
X59250000Y121310000D03*
G04 #@! TD*
D11*
G04 #@! TO.C,P2*
X18000000Y117500000D03*
G04 #@! TD*
G04 #@! TO.C,P_C12*
X16250000Y96750000D03*
G04 #@! TD*
D10*
G04 #@! TO.C,F12*
X15000000Y129855000D03*
X15000000Y124955000D03*
G04 #@! TD*
D11*
G04 #@! TO.C,P55*
X109000000Y125250000D03*
G04 #@! TD*
D10*
G04 #@! TO.C,R4*
X24750000Y117500000D03*
X24750000Y121310000D03*
G04 #@! TD*
D11*
G04 #@! TO.C,G8*
X134460000Y97420000D03*
X134460000Y99960000D03*
X134460000Y102500000D03*
X134460000Y105040000D03*
X134460000Y107580000D03*
X137000000Y97420000D03*
X137000000Y99960000D03*
X137000000Y102500000D03*
X137000000Y105040000D03*
X137000000Y107580000D03*
X139540000Y97420000D03*
X139540000Y99960000D03*
X139540000Y102500000D03*
X139540000Y105040000D03*
X139540000Y107580000D03*
G04 #@! TD*
D10*
G04 #@! TO.C,R74*
X59250000Y125595000D03*
X59250000Y129405000D03*
G04 #@! TD*
D11*
G04 #@! TO.C,G10*
X134460000Y82420000D03*
X134460000Y84960000D03*
X134460000Y87500000D03*
X134460000Y90040000D03*
X134460000Y92580000D03*
X137000000Y82420000D03*
X137000000Y84960000D03*
X137000000Y87500000D03*
X137000000Y90040000D03*
X137000000Y92580000D03*
X139540000Y82420000D03*
X139540000Y84960000D03*
X139540000Y87500000D03*
X139540000Y90040000D03*
X139540000Y92580000D03*
G04 #@! TD*
D15*
G04 #@! TO.C,P1*
X15840981Y148279761D03*
X50290981Y148279761D03*
X97690981Y148279761D03*
X139140981Y148279761D03*
D16*
X16490981Y138079121D03*
X19988561Y138079121D03*
X23089901Y138079121D03*
X26089641Y138079121D03*
X29089381Y138079121D03*
X32089121Y138079121D03*
X35088861Y138079121D03*
X38088601Y138079121D03*
X41088341Y138079121D03*
X44088081Y138079121D03*
X47189421Y138079121D03*
X16490981Y142580001D03*
X19988561Y142580001D03*
X23089901Y142580001D03*
X26089641Y142580001D03*
X29089381Y142580001D03*
X32089121Y142580001D03*
X35088861Y142580001D03*
X38088601Y142580001D03*
X41088341Y142580001D03*
X44088081Y142580001D03*
X47189421Y142580001D03*
X73840981Y138079121D03*
X76840721Y138079121D03*
X79840461Y138079121D03*
X82840201Y138079121D03*
X85842481Y138079121D03*
X88842221Y138079121D03*
X91841961Y138079121D03*
X94841701Y138079121D03*
X73840981Y142580001D03*
X76840721Y142580001D03*
X79840461Y142580001D03*
X82840201Y142580001D03*
X85842481Y142580001D03*
X88842221Y142580001D03*
X91841961Y142580001D03*
X94841701Y142580001D03*
X100787841Y138079121D03*
X104287961Y138079121D03*
X107391841Y138079121D03*
X110391581Y138079121D03*
X113391321Y138079121D03*
X116391061Y138079121D03*
X119390801Y138079121D03*
X122390541Y138079121D03*
X125390281Y138079121D03*
X128390021Y138079121D03*
X131491361Y138079121D03*
X134991481Y138079121D03*
X138491601Y138079121D03*
X100787841Y142580001D03*
X104287961Y142580001D03*
X107391841Y142580001D03*
X110391581Y142580001D03*
X113391321Y142580001D03*
X116391061Y142580001D03*
X119390801Y142580001D03*
X122390541Y142580001D03*
X125390281Y142580001D03*
X128390021Y142580001D03*
X131491361Y142580001D03*
X134991481Y142580001D03*
X138491601Y142580001D03*
X53140981Y138079121D03*
X56140721Y138079121D03*
X59140461Y138079121D03*
X62140201Y138079121D03*
X65142481Y138079121D03*
X68142221Y138079121D03*
X53140981Y142580001D03*
X56140721Y142580001D03*
X59140461Y142580001D03*
X62140201Y142580001D03*
X65142481Y142580001D03*
X68142221Y142580001D03*
G04 #@! TD*
D14*
G04 #@! TO.C,J15*
X149450801Y72400001D03*
G04 #@! TD*
G04 #@! TO.C,J14*
X149500001Y5600001D03*
G04 #@! TD*
D11*
G04 #@! TO.C,G11*
X144460000Y82420000D03*
X144460000Y84960000D03*
X144460000Y87500000D03*
X144460000Y90040000D03*
X144460000Y92580000D03*
X147000000Y82420000D03*
X147000000Y84960000D03*
X147000000Y87500000D03*
X147000000Y90040000D03*
X147000000Y92580000D03*
X149540000Y82420000D03*
X149540000Y84960000D03*
X149540000Y87500000D03*
X149540000Y90040000D03*
X149540000Y92580000D03*
G04 #@! TD*
G04 #@! TO.C,P56*
X113000000Y125250000D03*
G04 #@! TD*
D10*
G04 #@! TO.C,R7*
X33750000Y117500000D03*
X33750000Y121310000D03*
G04 #@! TD*
G04 #@! TO.C,R62_64*
X135500000Y125595000D03*
X135500000Y129405000D03*
G04 #@! TD*
D17*
G04 #@! TO.C,M1*
X36800126Y33912563D03*
X36800126Y38112563D03*
X36800126Y42312563D03*
D11*
X38300126Y43162563D03*
D17*
X36800126Y46512563D03*
D11*
X38300126Y45702563D03*
D17*
X42300126Y33912563D03*
X42300126Y38112563D03*
D11*
X40840126Y43162563D03*
D17*
X42300126Y42312563D03*
D11*
X40840126Y45702563D03*
D17*
X42300126Y46512563D03*
X36800126Y53312563D03*
X36800126Y57512563D03*
D11*
X38300126Y58362563D03*
D17*
X36800126Y61712563D03*
D11*
X38300126Y60902563D03*
D17*
X36800126Y65912563D03*
D11*
X38300126Y66762563D03*
D17*
X36800126Y70112563D03*
D11*
X38300126Y69302563D03*
D17*
X36800126Y74312563D03*
D11*
X38300126Y75162563D03*
D17*
X36800126Y78512563D03*
D11*
X38300126Y77702563D03*
D17*
X36800126Y82712563D03*
D11*
X38300126Y83562563D03*
D17*
X36800126Y86912563D03*
D11*
X38300126Y86102563D03*
D17*
X42300126Y53312563D03*
D11*
X40840126Y58362563D03*
D17*
X42300126Y57512563D03*
D11*
X40840126Y60902563D03*
D17*
X42300126Y61712563D03*
D11*
X40840126Y66762563D03*
D17*
X42300126Y65912563D03*
D11*
X40840126Y69302563D03*
D17*
X42300126Y70112563D03*
D11*
X40840126Y75162563D03*
D17*
X42300126Y74312563D03*
D11*
X40840126Y77702563D03*
D17*
X42300126Y78512563D03*
D11*
X40840126Y83562563D03*
D17*
X42300126Y82712563D03*
D11*
X40840126Y86102563D03*
D17*
X42300126Y86912563D03*
X38125126Y98837563D03*
D11*
X38975126Y97337563D03*
X41515126Y97337563D03*
D17*
X42325126Y98837563D03*
X46525126Y98837563D03*
D11*
X47375126Y97337563D03*
X49915126Y97337563D03*
D17*
X50725126Y98837563D03*
X54925126Y98837563D03*
D11*
X55775126Y97337563D03*
X58315126Y97337563D03*
D17*
X59125126Y98837563D03*
X63325126Y98837563D03*
D11*
X64175126Y97337563D03*
X66715126Y97337563D03*
D17*
X67525126Y98837563D03*
X71725126Y98837563D03*
X75925126Y98837563D03*
X38125126Y93337563D03*
D11*
X38975126Y94797563D03*
X41515126Y94797563D03*
D17*
X42325126Y93337563D03*
X46525126Y93337563D03*
D11*
X47375126Y94797563D03*
X49915126Y94797563D03*
D17*
X50725126Y93337563D03*
X54925126Y93337563D03*
D11*
X55775126Y94797563D03*
X58315126Y94797563D03*
D17*
X59125126Y93337563D03*
X63325126Y93337563D03*
D11*
X64175126Y94797563D03*
X66715126Y94797563D03*
D17*
X67525126Y93337563D03*
X71725126Y93337563D03*
X75925126Y93337563D03*
X87825126Y98837563D03*
D11*
X88675126Y97337563D03*
X91215126Y97337563D03*
D17*
X92025126Y98837563D03*
X96225126Y98837563D03*
D11*
X97075126Y97337563D03*
X99615126Y97337563D03*
D17*
X100425126Y98837563D03*
X104625126Y98837563D03*
D11*
X105475126Y97337563D03*
X108015126Y97337563D03*
D17*
X108825126Y98837563D03*
X113025126Y98837563D03*
D11*
X113875126Y97337563D03*
X116415126Y97337563D03*
D17*
X117225126Y98837563D03*
X87825126Y93337563D03*
D11*
X88675126Y94797563D03*
X91215126Y94797563D03*
D17*
X92025126Y93337563D03*
X96225126Y93337563D03*
D11*
X97075126Y94797563D03*
X99615126Y94797563D03*
D17*
X100425126Y93337563D03*
X104625126Y93337563D03*
D11*
X105475126Y94797563D03*
X108015126Y94797563D03*
D17*
X108825126Y93337563D03*
X113025126Y93337563D03*
D11*
X113875126Y94797563D03*
X116415126Y94797563D03*
D17*
X117225126Y93337563D03*
D11*
X116790126Y86502563D03*
D17*
X118250126Y87312563D03*
D11*
X116790126Y83962563D03*
D17*
X118250126Y83112563D03*
X118250126Y78912563D03*
X112750126Y87312563D03*
D11*
X114250126Y86502563D03*
D17*
X112750126Y83112563D03*
D11*
X114250126Y83962563D03*
D17*
X112750126Y78912563D03*
G36*
G01*
X111200126Y10262563D02*
X109850126Y10262563D01*
G75*
G02*
X109600126Y10512563I0J250000D01*
G01*
X109600126Y11712563D01*
G75*
G02*
X109850126Y11962563I250000J0D01*
G01*
X111200126Y11962563D01*
G75*
G02*
X111450126Y11712563I0J-250000D01*
G01*
X111450126Y10512563D01*
G75*
G02*
X111200126Y10262563I-250000J0D01*
G01*
G37*
D18*
X110525126Y13612563D03*
X110525126Y16112563D03*
X110525126Y18612563D03*
X110525126Y21112563D03*
D11*
X90025126Y10612563D03*
X90025126Y15612563D03*
X110725126Y32112563D03*
X110725126Y27412563D03*
X33065126Y19612563D03*
X35605126Y19612563D03*
X30525126Y19612563D03*
X50525126Y19112563D03*
G04 #@! TD*
G04 #@! TO.C,P19*
X37000000Y125250000D03*
G04 #@! TD*
D10*
G04 #@! TO.C,R13*
X18500000Y125595000D03*
X18500000Y129405000D03*
G04 #@! TD*
D11*
G04 #@! TO.C,P21*
X44000000Y125250000D03*
G04 #@! TD*
D14*
G04 #@! TO.C,J13*
X5500001Y5600001D03*
G04 #@! TD*
D11*
G04 #@! TO.C,P7*
X20000000Y14500000D03*
G04 #@! TD*
D12*
G04 #@! TO.C,J3*
X140025000Y50500000D03*
X140025000Y56500000D03*
G36*
G01*
X136584999Y52750000D02*
X135585001Y52750000D01*
G75*
G02*
X135335000Y53000001I0J250001D01*
G01*
X135335000Y53999999D01*
G75*
G02*
X135585001Y54250000I250001J0D01*
G01*
X136584999Y54250000D01*
G75*
G02*
X136835000Y53999999I0J-250001D01*
G01*
X136835000Y53000001D01*
G75*
G02*
X136584999Y52750000I-250001J0D01*
G01*
G37*
D13*
X139085000Y53500000D03*
G04 #@! TD*
D11*
G04 #@! TO.C,P4*
X20000000Y24500000D03*
G04 #@! TD*
D10*
G04 #@! TO.C,R69*
X66750000Y117500000D03*
X66750000Y121310000D03*
G04 #@! TD*
G04 #@! TO.C,R61*
X128500000Y125595000D03*
X128500000Y129405000D03*
G04 #@! TD*
G04 #@! TO.C,R54*
X104500000Y125595000D03*
X104500000Y129405000D03*
G04 #@! TD*
D11*
G04 #@! TO.C,P8*
X37000000Y117500000D03*
G04 #@! TD*
G04 #@! TO.C,P60*
X125250000Y125250000D03*
G04 #@! TD*
D10*
G04 #@! TO.C,R64*
X144000000Y125595000D03*
X144000000Y129405000D03*
G04 #@! TD*
G04 #@! TO.C,R75*
X66750000Y125595000D03*
X66750000Y129405000D03*
G04 #@! TD*
G04 #@! TO.C,F32*
X86000000Y129855000D03*
X86000000Y124955000D03*
G04 #@! TD*
D11*
G04 #@! TO.C,P_C13*
X11250000Y96750000D03*
G04 #@! TD*
G04 #@! TO.C,P5*
X27750000Y117500000D03*
G04 #@! TD*
D14*
G04 #@! TO.C,J11*
X5500001Y154400001D03*
G04 #@! TD*
M02*
