G04 #@! TF.GenerationSoftware,KiCad,Pcbnew,7.0.11-7.0.11~ubuntu22.04.1*
G04 #@! TF.CreationDate,2024-03-12T20:49:15+00:00*
G04 #@! TF.ProjectId,uaefi-adapter-NA-90-95,75616566-692d-4616-9461-707465722d4e,rev?*
G04 #@! TF.SameCoordinates,Original*
G04 #@! TF.FileFunction,Profile,NP*
%FSLAX46Y46*%
G04 Gerber Fmt 4.6, Leading zero omitted, Abs format (unit mm)*
G04 Created by KiCad (PCBNEW 7.0.11-7.0.11~ubuntu22.04.1) date 2024-03-12 20:49:15*
%MOMM*%
%LPD*%
G01*
G04 APERTURE LIST*
G04 #@! TA.AperFunction,Profile*
%ADD10C,0.100000*%
G04 #@! TD*
G04 #@! TA.AperFunction,Profile*
%ADD11C,0.200000*%
G04 #@! TD*
G04 APERTURE END LIST*
D10*
X154500001Y7500001D02*
X154500001Y152500001D01*
X147500001Y499998D02*
G75*
G03*
X154500002Y7500000I-1J7000002D01*
G01*
D11*
X152000001Y6400001D02*
G75*
G03*
X147000001Y6400001I-2500000J0D01*
G01*
X147000001Y6400001D02*
G75*
G03*
X152000001Y6400001I2500000J0D01*
G01*
X152000001Y154400001D02*
G75*
G03*
X147000001Y154400001I-2500000J0D01*
G01*
X147000001Y154400001D02*
G75*
G03*
X152000001Y154400001I2500000J0D01*
G01*
D10*
X154500002Y152500001D02*
G75*
G03*
X147500002Y159500002I-7000102J-101D01*
G01*
D11*
X8000001Y154400001D02*
G75*
G03*
X3000001Y154400001I-2500000J0D01*
G01*
X3000001Y154400001D02*
G75*
G03*
X8000001Y154400001I2500000J0D01*
G01*
X151700801Y72400001D02*
G75*
G03*
X147200801Y72400001I-2250000J0D01*
G01*
X147200801Y72400001D02*
G75*
G03*
X151700801Y72400001I2250000J0D01*
G01*
D10*
X147500001Y159500001D02*
X7500001Y159500001D01*
D11*
X8000001Y5600001D02*
G75*
G03*
X3000001Y5600001I-2500000J0D01*
G01*
X3000001Y5600001D02*
G75*
G03*
X8000001Y5600001I2500000J0D01*
G01*
D10*
X7500001Y500001D02*
X147500001Y500001D01*
X500001Y152500001D02*
X500001Y7500001D01*
X500000Y7500001D02*
G75*
G03*
X7500000Y500000I7000000J-1D01*
G01*
X7500001Y159500000D02*
G75*
G03*
X500000Y152500002I-1J-7000000D01*
G01*
G04 #@! TO.C,M1*
X45512559Y39849745D02*
X45500000Y23112563D01*
X45512559Y39849745D02*
X45512562Y82900001D01*
X47500000Y21112563D02*
X50500000Y21112563D01*
X52500000Y19112563D02*
X52500000Y11400000D01*
X85400000Y9412563D02*
X54500000Y9400000D01*
X87400000Y11412563D02*
X87399911Y16112643D01*
X89399911Y18112643D02*
X103560074Y18112489D01*
X102562815Y89900000D02*
X52512563Y89900000D01*
X105562811Y35849743D02*
X105560074Y20112489D01*
X107562811Y37849743D02*
X123012563Y37849743D01*
X109562814Y82899999D02*
X109562814Y75200000D01*
X123012563Y73200000D02*
X111562814Y73200000D01*
X125012563Y39849743D02*
X125012563Y71200000D01*
X52512563Y89900001D02*
G75*
G03*
X45512562Y82900001I-3J-6999998D01*
G01*
X45500000Y23112563D02*
G75*
G03*
X47500000Y21112563I2000000J0D01*
G01*
X52500000Y19112563D02*
G75*
G03*
X50500000Y21112563I-2000000J0D01*
G01*
X52500037Y11400000D02*
G75*
G03*
X54500000Y9400000I1999963J-37D01*
G01*
X89399911Y18112652D02*
G75*
G03*
X87399911Y16112643I89J-2000089D01*
G01*
X85400000Y9412563D02*
G75*
G03*
X87400000Y11412563I-100J2000100D01*
G01*
X109562817Y82899999D02*
G75*
G03*
X102562815Y89900000I-6999867J134D01*
G01*
X103560074Y18112489D02*
G75*
G03*
X105560074Y20112489I-74J2000074D01*
G01*
X107562811Y37849752D02*
G75*
G03*
X105562811Y35849743I89J-2000089D01*
G01*
X109562837Y75200000D02*
G75*
G03*
X111562814Y73200000I1999963J-37D01*
G01*
X125012537Y71200000D02*
G75*
G03*
X123012563Y73200000I-2000037J-37D01*
G01*
X123012563Y37849700D02*
G75*
G03*
X125012563Y39849743I37J1999963D01*
G01*
G04 #@! TD*
M02*
