M48
INCH,TZ
T01C0.015700
T02C0.032750
T03C0.041350
T04C0.047200
T05C0.137800
T06C0.196900
%
T01
X2559Y51476
X2559Y49114
X4331Y36516
X4331Y24901
X4527Y56496
X4527Y52854
X6004Y22441
X6004Y19291
X6004Y15649
X6004Y11023
X6004Y2559
X6299Y44193
X6299Y40649
X7283Y36516
X7283Y29134
X7382Y14272
X7395Y13176
X8734Y20793
X8760Y19291
X8760Y15649
X8760Y11023
X8760Y2559
X9252Y22441
X9547Y29134
X9547Y28051
X9646Y24901
X10630Y44193
X11417Y32382
X11712Y30709
X12205Y40649
X12205Y31594
X14291Y35019
X14370Y44193
X15157Y5020
X16831Y35039
X17126Y44193
X17520Y2559
X18110Y39764
X20275Y52854
X20275Y51476
X20275Y49114
X20275Y47638
X20275Y44193
X21427Y41122
X22244Y40837
X23081Y41437
X24735Y41437
X24803Y51476
X24803Y49114
X24803Y47638
X24803Y45669
X24803Y43504
X27460Y52854
X27460Y51476
X27460Y49114
X27460Y45669
X27460Y43504
X28051Y41742
X29232Y51476
X29232Y49114
X29232Y43504
X31693Y49705
X32480Y47146
X32480Y46653
X32480Y46161
X33858Y43110
X34380Y42815
X34744Y49705
X35221Y41949
X36028Y43411
X38878Y52854
X38878Y49705
X38878Y44882
X39272Y44882
X40994Y42864
X41831Y40167
X42652Y42234
X43307Y42520
X44301Y40463
X45136Y39478
X45964Y40748
X46555Y8169
X46653Y5216
X47441Y40157
X47441Y36550
X47441Y29134
X47834Y43799
X48327Y43799
X49508Y43209
X49901Y43209
X54527Y29134
X54527Y24803
X54626Y10433
X54626Y2559
X58169Y52854
X58169Y49705
X58169Y43504
X58661Y24803
X58661Y18110
X58661Y10433
T02
X5709Y50927
X5709Y48998
X7086Y50750
X7086Y49250
X8366Y50750
X8366Y49250
X8366Y47563
X8366Y46063
X9547Y50750
X9547Y49250
X9547Y47563
X9547Y46063
X10728Y50750
X10728Y49250
X11909Y50750
X11909Y49250
X13090Y50750
X13090Y49250
X13090Y47563
X13090Y46063
X15649Y50750
X15649Y49250
X15649Y47563
X15649Y46063
X18799Y50750
X18799Y49250
X23130Y50750
X23130Y49250
X23130Y47563
X23130Y46063
X26083Y50750
X26083Y49250
X26083Y47563
X26083Y46063
X33661Y50927
X33661Y48998
X40945Y50750
X40945Y49250
X44291Y47563
X44291Y46063
X45472Y50750
X45472Y49250
X46653Y50750
X46653Y49250
X46653Y47563
X46653Y46063
X47834Y50750
X47834Y49250
X49114Y47563
X49114Y46063
X50394Y50750
X50394Y49250
X50394Y47563
X50394Y46063
X53149Y50750
X53149Y49250
X53149Y47207
X53149Y45707
X56496Y50750
X56496Y49250
X56496Y47207
X56496Y45707
X43317Y8115
X43317Y7131
X43317Y6147
X43317Y5162
X43317Y4178
X43514Y8321
X43514Y8321
X43514Y7337
X43514Y7337
X43514Y6353
X43514Y6353
X43514Y5368
X43514Y5368
X43514Y4384
X43514Y4384
T03
X4232Y37894
X5315Y46063
X5709Y33071
X5709Y31890
X6201Y37894
X6890Y46063
X6890Y33071
X6890Y31890
X7677Y9449
X7677Y7480
X7677Y5512
X7677Y3543
X8169Y37894
X10728Y46063
X11821Y7524
X12008Y46063
X12821Y7524
X13821Y7524
X14370Y49114
X14370Y46063
X14882Y33702
X14882Y32702
X14882Y30395
X14882Y29395
X14882Y27087
X14882Y26087
X14882Y23780
X14882Y22780
X14882Y17796
X14882Y16796
X15148Y38125
X15148Y37125
X15882Y33702
X15882Y32702
X15882Y30395
X15882Y29395
X15882Y27087
X15882Y26087
X15882Y23780
X15882Y22780
X15882Y17796
X15882Y16796
X16148Y38125
X16148Y37125
X17126Y49114
X17126Y46063
X18455Y38125
X18455Y37125
X18799Y46063
X19455Y38125
X19455Y37125
X19695Y7328
X21762Y38125
X21762Y37125
X22762Y38125
X22762Y37125
X25069Y38125
X25069Y37125
X26069Y38125
X26069Y37125
X34714Y38125
X34714Y37125
X35246Y5950
X35246Y3981
X35714Y38125
X35714Y37125
X38022Y38125
X38022Y37125
X39022Y38125
X39022Y37125
X41329Y38125
X41329Y37125
X42329Y38125
X42329Y37125
X42716Y49114
X42716Y46063
X43396Y12446
X43396Y10595
X44291Y49114
X44636Y38125
X44636Y37125
X44783Y33859
X44783Y32859
X45636Y38125
X45636Y37125
X45783Y33859
X45783Y32859
X49114Y49114
X52740Y42157
X52740Y41157
X52740Y40157
X52740Y39157
X52740Y38157
X52740Y36252
X52740Y35252
X52740Y34252
X52740Y33252
X52740Y32252
X53346Y16535
X53346Y15354
X53346Y14173
X53380Y20866
X53740Y42157
X53740Y41157
X53740Y40157
X53740Y39157
X53740Y38157
X53740Y36252
X53740Y35252
X53740Y34252
X53740Y33252
X53740Y32252
X54527Y16535
X54527Y15354
X54527Y14173
X54561Y20866
X54740Y42157
X54740Y41157
X54740Y40157
X54740Y39157
X54740Y38157
X54740Y36252
X54740Y35252
X54740Y34252
X54740Y33252
X54740Y32252
X55118Y45866
X56677Y42157
X56677Y41157
X56677Y40157
X56677Y39157
X56677Y38157
X56677Y36252
X56677Y35252
X56677Y34252
X56677Y33252
X56677Y32252
X57677Y42157
X57677Y41157
X57677Y40157
X57677Y39157
X57677Y38157
X57677Y36252
X57677Y35252
X57677Y34252
X57677Y33252
X57677Y32252
X58677Y42157
X58677Y41157
X58677Y40157
X58677Y39157
X58677Y38157
X58677Y36252
X58677Y35252
X58677Y34252
X58677Y33252
X58677Y32252
X6296Y55937
X6296Y54165
X7673Y55937
X7673Y54165
X8894Y55937
X8894Y54165
X10075Y55937
X10075Y54165
X11256Y55937
X11256Y54165
X12437Y55937
X12437Y54165
X13618Y55937
X13618Y54165
X14799Y55937
X14799Y54165
X15980Y55937
X15980Y54165
X17161Y55937
X17161Y54165
X18382Y55937
X18382Y54165
X20725Y55937
X20725Y54165
X21906Y55937
X21906Y54165
X23087Y55937
X23087Y54165
X24268Y55937
X24268Y54165
X25450Y55937
X25450Y54165
X26631Y55937
X26631Y54165
X28874Y55937
X28874Y54165
X30055Y55937
X30055Y54165
X31236Y55937
X31236Y54165
X32417Y55937
X32417Y54165
X33599Y55937
X33599Y54165
X34780Y55937
X34780Y54165
X35961Y55937
X35961Y54165
X37142Y55937
X37142Y54165
X39483Y55937
X39483Y54165
X40861Y55937
X40861Y54165
X42083Y55937
X42083Y54165
X43264Y55937
X43264Y54165
X44445Y55937
X44445Y54165
X45626Y55937
X45626Y54165
X46807Y55937
X46807Y54165
X47988Y55937
X47988Y54165
X49169Y55937
X49169Y54165
X50350Y55937
X50350Y54165
X51571Y55937
X51571Y54165
X52949Y55937
X52949Y54165
X54327Y55937
X54327Y54165
X4527Y31520
X8071Y31520
X54897Y17716
X54897Y12992
X54931Y22047
X54931Y19685
X12018Y7731
X12018Y7731
X13018Y7731
X13018Y7731
X14018Y7731
X14018Y7731
X15079Y33908
X15079Y33908
X15079Y32908
X15079Y32908
X15079Y30601
X15079Y30601
X15079Y29601
X15079Y29601
X15079Y27294
X15079Y27294
X15079Y26294
X15079Y26294
X15079Y23986
X15079Y23986
X15079Y22986
X15079Y22986
X15079Y18002
X15079Y18002
X15079Y17002
X15079Y17002
X15345Y38331
X15345Y38331
X15345Y37331
X15345Y37331
X16079Y33908
X16079Y33908
X16079Y32908
X16079Y32908
X16079Y30601
X16079Y30601
X16079Y29601
X16079Y29601
X16079Y27294
X16079Y27294
X16079Y26294
X16079Y26294
X16079Y23986
X16079Y23986
X16079Y22986
X16079Y22986
X16079Y18002
X16079Y18002
X16079Y17002
X16079Y17002
X16345Y38331
X16345Y38331
X16345Y37331
X16345Y37331
X18652Y38331
X18652Y38331
X18652Y37331
X18652Y37331
X19652Y38331
X19652Y38331
X19652Y37331
X19652Y37331
X19892Y7534
X19892Y7534
X21959Y38331
X21959Y38331
X21959Y37331
X21959Y37331
X22959Y38331
X22959Y38331
X22959Y37331
X22959Y37331
X25266Y38331
X25266Y38331
X25266Y37331
X25266Y37331
X26266Y38331
X26266Y38331
X26266Y37331
X26266Y37331
X34912Y38331
X34912Y38331
X34912Y37331
X34912Y37331
X35443Y6156
X35443Y6156
X35443Y4187
X35443Y4187
X35912Y38331
X35912Y38331
X35912Y37331
X35912Y37331
X38219Y38331
X38219Y38331
X38219Y37331
X38219Y37331
X39219Y38331
X39219Y38331
X39219Y37331
X39219Y37331
X41526Y38331
X41526Y38331
X41526Y37331
X41526Y37331
X42526Y38331
X42526Y38331
X42526Y37331
X42526Y37331
X43593Y12652
X43593Y12652
X43593Y10801
X43593Y10801
X44833Y38331
X44833Y38331
X44833Y37331
X44833Y37331
X44981Y34065
X44981Y34065
X44981Y33065
X44981Y33065
X45833Y38331
X45833Y38331
X45833Y37331
X45833Y37331
X45981Y34065
X45981Y34065
X45981Y33065
X45981Y33065
T04
X14291Y34021
X14291Y32367
X14291Y30713
X14291Y29060
X14291Y27406
X14291Y25753
X14291Y24099
X14291Y22446
X14291Y20792
X14291Y18115
X14291Y16461
X14291Y14808
X14291Y13154
X14813Y38715
X14813Y36550
X16457Y34021
X16457Y32367
X16457Y30713
X16457Y29060
X16457Y27406
X16457Y25753
X16457Y24099
X16457Y22446
X16457Y20792
X16457Y18115
X16457Y16461
X16457Y14808
X16457Y13154
X16466Y38715
X16466Y36550
X18120Y38715
X18120Y36550
X19774Y38715
X19774Y36550
X21427Y38715
X21427Y36550
X23081Y38715
X23081Y36550
X24734Y38715
X24734Y36550
X26388Y38715
X26388Y36550
X28041Y38715
X28041Y36550
X29695Y38715
X29695Y36550
X34380Y38715
X34380Y36550
X36033Y38715
X36033Y36550
X37687Y38715
X37687Y36550
X39340Y38715
X39340Y36550
X40994Y38715
X40994Y36550
X42648Y38715
X42648Y36550
X44193Y34178
X44193Y32524
X44193Y30871
X44301Y38715
X44301Y36550
X45955Y38715
X45955Y36550
X46358Y34178
X46358Y32524
X46358Y30871
X14488Y34227
X14488Y34227
X14488Y32573
X14488Y32573
X14488Y30920
X14488Y30920
X14488Y29266
X14488Y29266
X14488Y27612
X14488Y27612
X14488Y25959
X14488Y25959
X14488Y24305
X14488Y24305
X14488Y22652
X14488Y22652
X14488Y20998
X14488Y20998
X14488Y18321
X14488Y18321
X14488Y16668
X14488Y16668
X14488Y15014
X14488Y15014
X14488Y13360
X14488Y13360
X15010Y38922
X15010Y38922
X15010Y36756
X15010Y36756
X16654Y34227
X16654Y34227
X16654Y32573
X16654Y32573
X16654Y30920
X16654Y30920
X16654Y29266
X16654Y29266
X16654Y27612
X16654Y27612
X16654Y25959
X16654Y25959
X16654Y24305
X16654Y24305
X16654Y22652
X16654Y22652
X16654Y20998
X16654Y20998
X16654Y18321
X16654Y18321
X16654Y16668
X16654Y16668
X16654Y15014
X16654Y15014
X16654Y13360
X16654Y13360
X16664Y38922
X16664Y38922
X16664Y36756
X16664Y36756
X18317Y38922
X18317Y38922
X18317Y36756
X18317Y36756
X19971Y38922
X19971Y38922
X19971Y36756
X19971Y36756
X21624Y38922
X21624Y38922
X21624Y36756
X21624Y36756
X23278Y38922
X23278Y38922
X23278Y36756
X23278Y36756
X24931Y38922
X24931Y38922
X24931Y36756
X24931Y36756
X26585Y38922
X26585Y38922
X26585Y36756
X26585Y36756
X28238Y38922
X28238Y38922
X28238Y36756
X28238Y36756
X29892Y38922
X29892Y38922
X29892Y36756
X29892Y36756
X34577Y38922
X34577Y38922
X34577Y36756
X34577Y36756
X36231Y38922
X36231Y38922
X36231Y36756
X36231Y36756
X37884Y38922
X37884Y38922
X37884Y36756
X37884Y36756
X39538Y38922
X39538Y38922
X39538Y36756
X39538Y36756
X41191Y38922
X41191Y38922
X41191Y36756
X41191Y36756
X42845Y38922
X42845Y38922
X42845Y36756
X42845Y36756
X44390Y34384
X44390Y34384
X44390Y32731
X44390Y32731
X44390Y31077
X44390Y31077
X44498Y38922
X44498Y38922
X44498Y36756
X44498Y36756
X46152Y38922
X46152Y38922
X46152Y36756
X46152Y36756
X46555Y34384
X46555Y34384
X46555Y32731
X46555Y32731
X46555Y31077
X46555Y31077
T05
X6040Y58181
X19603Y58181
X38264Y58181
X54583Y58181
T06
X1968Y60590
X1968Y28307
X1968Y2008
X58642Y28307
X58661Y60590
X58661Y2008
M30
