G75*
G70*
%OFA0B0*%
%FSLAX25Y25*%
%IPPOS*%
%LPD*%
%AMOC8*
5,1,8,0,0,1.08239X$1,22.5*
%
%ADD10C,0.06000*%
%ADD11C,0.06693*%
%ADD12C,0.05906*%
%ADD13C,0.27559*%
%ADD14C,0.13780*%
%ADD15C,0.07087*%
%ADD16C,0.07874*%
%ADD17O,0.07283X0.06693*%
%ADD18R,0.07874X0.05906*%
%ADD19R,0.07874X0.14961*%
%ADD24C,0.03937*%
%ADD38O,0.06693X0.06693*%
X0000000Y0000000D02*
%LPD*%
G01*
D10*
X0119094Y0492501D03*
G36*
G01*
X0121555Y0494292D02*
X0116633Y0494292D01*
G75*
G02*
X0116240Y0494686I0000000J0000394D01*
G01*
X0116240Y0497835D01*
G75*
G02*
X0116633Y0498229I0000394J0000000D01*
G01*
X0121555Y0498229D01*
G75*
G02*
X0121948Y0497835I0000000J-000394D01*
G01*
X0121948Y0494686D01*
G75*
G02*
X0121555Y0494292I-000394J0000000D01*
G01*
G37*
G36*
G01*
X0121555Y0501772D02*
X0116633Y0501772D01*
G75*
G02*
X0116240Y0502166I0000000J0000394D01*
G01*
X0116240Y0505316D01*
G75*
G02*
X0116633Y0505709I0000394J0000000D01*
G01*
X0121555Y0505709D01*
G75*
G02*
X0121948Y0505316I0000000J-000394D01*
G01*
X0121948Y0502166D01*
G75*
G02*
X0121555Y0501772I-000394J0000000D01*
G01*
G37*
X0119094Y0507501D03*
X0095472Y0492501D03*
G36*
G01*
X0097933Y0494292D02*
X0093011Y0494292D01*
G75*
G02*
X0092618Y0494686I0000000J0000394D01*
G01*
X0092618Y0497835D01*
G75*
G02*
X0093011Y0498229I0000394J0000000D01*
G01*
X0097933Y0498229D01*
G75*
G02*
X0098326Y0497835I0000000J-000394D01*
G01*
X0098326Y0494686D01*
G75*
G02*
X0097933Y0494292I-000394J0000000D01*
G01*
G37*
G36*
G01*
X0097933Y0501772D02*
X0093011Y0501772D01*
G75*
G02*
X0092618Y0502166I0000000J0000394D01*
G01*
X0092618Y0505316D01*
G75*
G02*
X0093011Y0505709I0000394J0000000D01*
G01*
X0097933Y0505709D01*
G75*
G02*
X0098326Y0505316I0000000J-000394D01*
G01*
X0098326Y0502166D01*
G75*
G02*
X0097933Y0501772I-000394J0000000D01*
G01*
G37*
X0095472Y0507501D03*
D11*
X0187992Y0460630D03*
D10*
X0466535Y0492501D03*
G36*
G01*
X0468996Y0494292D02*
X0464074Y0494292D01*
G75*
G02*
X0463681Y0494686I0000000J0000394D01*
G01*
X0463681Y0497835D01*
G75*
G02*
X0464074Y0498229I0000394J0000000D01*
G01*
X0468996Y0498229D01*
G75*
G02*
X0469389Y0497835I0000000J-000394D01*
G01*
X0469389Y0494686D01*
G75*
G02*
X0468996Y0494292I-000394J0000000D01*
G01*
G37*
G36*
G01*
X0468996Y0501772D02*
X0464074Y0501772D01*
G75*
G02*
X0463681Y0502166I0000000J0000394D01*
G01*
X0463681Y0505316D01*
G75*
G02*
X0464074Y0505709I0000394J0000000D01*
G01*
X0468996Y0505709D01*
G75*
G02*
X0469389Y0505316I0000000J-000394D01*
G01*
X0469389Y0502166D01*
G75*
G02*
X0468996Y0501772I-000394J0000000D01*
G01*
G37*
X0466535Y0507501D03*
D11*
X0076771Y0074804D03*
X0427165Y0460630D03*
D10*
X0454724Y0492501D03*
G36*
G01*
X0457185Y0494292D02*
X0452263Y0494292D01*
G75*
G02*
X0451870Y0494686I0000000J0000394D01*
G01*
X0451870Y0497835D01*
G75*
G02*
X0452263Y0498229I0000394J0000000D01*
G01*
X0457185Y0498229D01*
G75*
G02*
X0457578Y0497835I0000000J-000394D01*
G01*
X0457578Y0494686D01*
G75*
G02*
X0457185Y0494292I-000394J0000000D01*
G01*
G37*
G36*
G01*
X0457185Y0501772D02*
X0452263Y0501772D01*
G75*
G02*
X0451870Y0502166I0000000J0000394D01*
G01*
X0451870Y0505316D01*
G75*
G02*
X0452263Y0505709I0000394J0000000D01*
G01*
X0457185Y0505709D01*
G75*
G02*
X0457578Y0505316I0000000J-000394D01*
G01*
X0457578Y0502166D01*
G75*
G02*
X0457185Y0501772I-000394J0000000D01*
G01*
G37*
X0454724Y0507501D03*
X0187992Y0492501D03*
G36*
G01*
X0190452Y0494292D02*
X0185531Y0494292D01*
G75*
G02*
X0185137Y0494686I0000000J0000394D01*
G01*
X0185137Y0497835D01*
G75*
G02*
X0185531Y0498229I0000394J0000000D01*
G01*
X0190452Y0498229D01*
G75*
G02*
X0190846Y0497835I0000000J-000394D01*
G01*
X0190846Y0494686D01*
G75*
G02*
X0190452Y0494292I-000394J0000000D01*
G01*
G37*
G36*
G01*
X0190452Y0501772D02*
X0185531Y0501772D01*
G75*
G02*
X0185137Y0502166I0000000J0000394D01*
G01*
X0185137Y0505316D01*
G75*
G02*
X0185531Y0505709I0000394J0000000D01*
G01*
X0190452Y0505709D01*
G75*
G02*
X0190846Y0505316I0000000J-000394D01*
G01*
X0190846Y0502166D01*
G75*
G02*
X0190452Y0501772I-000394J0000000D01*
G01*
G37*
X0187992Y0507501D03*
X0491141Y0460630D03*
G36*
G01*
X0493602Y0462422D02*
X0488681Y0462422D01*
G75*
G02*
X0488287Y0462815I0000000J0000394D01*
G01*
X0488287Y0465965D01*
G75*
G02*
X0488681Y0466359I0000394J0000000D01*
G01*
X0493602Y0466359D01*
G75*
G02*
X0493996Y0465965I0000000J-000394D01*
G01*
X0493996Y0462815D01*
G75*
G02*
X0493602Y0462422I-000394J0000000D01*
G01*
G37*
G36*
G01*
X0493602Y0469902D02*
X0488681Y0469902D01*
G75*
G02*
X0488287Y0470296I0000000J0000394D01*
G01*
X0488287Y0473445D01*
G75*
G02*
X0488681Y0473839I0000394J0000000D01*
G01*
X0493602Y0473839D01*
G75*
G02*
X0493996Y0473445I0000000J-000394D01*
G01*
X0493996Y0470296D01*
G75*
G02*
X0493602Y0469902I-000394J0000000D01*
G01*
G37*
X0491141Y0475630D03*
X0156496Y0460630D03*
G36*
G01*
X0158956Y0462422D02*
X0154035Y0462422D01*
G75*
G02*
X0153641Y0462815I0000000J0000394D01*
G01*
X0153641Y0465965D01*
G75*
G02*
X0154035Y0466359I0000394J0000000D01*
G01*
X0158956Y0466359D01*
G75*
G02*
X0159350Y0465965I0000000J-000394D01*
G01*
X0159350Y0462815D01*
G75*
G02*
X0158956Y0462422I-000394J0000000D01*
G01*
G37*
G36*
G01*
X0158956Y0469902D02*
X0154035Y0469902D01*
G75*
G02*
X0153641Y0470296I0000000J0000394D01*
G01*
X0153641Y0473445D01*
G75*
G02*
X0154035Y0473839I0000394J0000000D01*
G01*
X0158956Y0473839D01*
G75*
G02*
X0159350Y0473445I0000000J-000394D01*
G01*
X0159350Y0470296D01*
G75*
G02*
X0158956Y0469902I-000394J0000000D01*
G01*
G37*
X0156496Y0475630D03*
D11*
X0053149Y0460630D03*
D10*
X0531496Y0457067D03*
G36*
G01*
X0533956Y0458859D02*
X0529035Y0458859D01*
G75*
G02*
X0528641Y0459252I0000000J0000394D01*
G01*
X0528641Y0462402D01*
G75*
G02*
X0529035Y0462796I0000394J0000000D01*
G01*
X0533956Y0462796D01*
G75*
G02*
X0534350Y0462402I0000000J-000394D01*
G01*
X0534350Y0459252D01*
G75*
G02*
X0533956Y0458859I-000394J0000000D01*
G01*
G37*
G36*
G01*
X0533956Y0466339D02*
X0529035Y0466339D01*
G75*
G02*
X0528641Y0466733I0000000J0000394D01*
G01*
X0528641Y0469882D01*
G75*
G02*
X0529035Y0470276I0000394J0000000D01*
G01*
X0533956Y0470276D01*
G75*
G02*
X0534350Y0469882I0000000J-000394D01*
G01*
X0534350Y0466733D01*
G75*
G02*
X0533956Y0466339I-000394J0000000D01*
G01*
G37*
X0531496Y0472067D03*
D11*
X0551181Y0458662D03*
X0076771Y0035434D03*
D10*
X0083661Y0460630D03*
G36*
G01*
X0086122Y0462422D02*
X0081200Y0462422D01*
G75*
G02*
X0080807Y0462815I0000000J0000394D01*
G01*
X0080807Y0465965D01*
G75*
G02*
X0081200Y0466359I0000394J0000000D01*
G01*
X0086122Y0466359D01*
G75*
G02*
X0086515Y0465965I0000000J-000394D01*
G01*
X0086515Y0462815D01*
G75*
G02*
X0086122Y0462422I-000394J0000000D01*
G01*
G37*
G36*
G01*
X0086122Y0469902D02*
X0081200Y0469902D01*
G75*
G02*
X0080807Y0470296I0000000J0000394D01*
G01*
X0080807Y0473445D01*
G75*
G02*
X0081200Y0473839I0000394J0000000D01*
G01*
X0086122Y0473839D01*
G75*
G02*
X0086515Y0473445I0000000J-000394D01*
G01*
X0086515Y0470296D01*
G75*
G02*
X0086122Y0469902I-000394J0000000D01*
G01*
G37*
X0083661Y0475630D03*
X0130905Y0492501D03*
G36*
G01*
X0133366Y0494292D02*
X0128444Y0494292D01*
G75*
G02*
X0128051Y0494686I0000000J0000394D01*
G01*
X0128051Y0497835D01*
G75*
G02*
X0128444Y0498229I0000394J0000000D01*
G01*
X0133366Y0498229D01*
G75*
G02*
X0133759Y0497835I0000000J-000394D01*
G01*
X0133759Y0494686D01*
G75*
G02*
X0133366Y0494292I-000394J0000000D01*
G01*
G37*
G36*
G01*
X0133366Y0501772D02*
X0128444Y0501772D01*
G75*
G02*
X0128051Y0502166I0000000J0000394D01*
G01*
X0128051Y0505316D01*
G75*
G02*
X0128444Y0505709I0000394J0000000D01*
G01*
X0133366Y0505709D01*
G75*
G02*
X0133759Y0505316I0000000J-000394D01*
G01*
X0133759Y0502166D01*
G75*
G02*
X0133366Y0501772I-000394J0000000D01*
G01*
G37*
X0130905Y0507501D03*
D11*
X0120078Y0460630D03*
D10*
X0156496Y0492501D03*
G36*
G01*
X0158956Y0494292D02*
X0154035Y0494292D01*
G75*
G02*
X0153641Y0494686I0000000J0000394D01*
G01*
X0153641Y0497835D01*
G75*
G02*
X0154035Y0498229I0000394J0000000D01*
G01*
X0158956Y0498229D01*
G75*
G02*
X0159350Y0497835I0000000J-000394D01*
G01*
X0159350Y0494686D01*
G75*
G02*
X0158956Y0494292I-000394J0000000D01*
G01*
G37*
G36*
G01*
X0158956Y0501772D02*
X0154035Y0501772D01*
G75*
G02*
X0153641Y0502166I0000000J0000394D01*
G01*
X0153641Y0505316D01*
G75*
G02*
X0154035Y0505709I0000394J0000000D01*
G01*
X0158956Y0505709D01*
G75*
G02*
X0159350Y0505316I0000000J-000394D01*
G01*
X0159350Y0502166D01*
G75*
G02*
X0158956Y0501772I-000394J0000000D01*
G01*
G37*
X0156496Y0507501D03*
G36*
G01*
X0368070Y0482087D02*
X0372086Y0482087D01*
G75*
G02*
X0372440Y0481733I0000000J-000354D01*
G01*
X0372440Y0478898D01*
G75*
G02*
X0372086Y0478544I-000354J0000000D01*
G01*
X0368070Y0478544D01*
G75*
G02*
X0367716Y0478898I0000000J0000354D01*
G01*
X0367716Y0481733D01*
G75*
G02*
X0368070Y0482087I0000354J0000000D01*
G01*
G37*
G36*
G01*
X0368070Y0469095D02*
X0372086Y0469095D01*
G75*
G02*
X0372440Y0468741I0000000J-000354D01*
G01*
X0372440Y0465906D01*
G75*
G02*
X0372086Y0465552I-000354J0000000D01*
G01*
X0368070Y0465552D01*
G75*
G02*
X0367716Y0465906I0000000J0000354D01*
G01*
X0367716Y0468741D01*
G75*
G02*
X0368070Y0469095I0000354J0000000D01*
G01*
G37*
D24*
X0045275Y0315197D03*
X0080708Y0315197D03*
G36*
G01*
X0054133Y0328741D02*
X0054133Y0332678D01*
G75*
G02*
X0055118Y0333662I0000984J0000000D01*
G01*
X0059055Y0333662D01*
G75*
G02*
X0060039Y0332678I0000000J-000984D01*
G01*
X0060039Y0328741D01*
G75*
G02*
X0059055Y0327756I-000984J0000000D01*
G01*
X0055118Y0327756D01*
G75*
G02*
X0054133Y0328741I0000000J0000984D01*
G01*
G37*
D12*
X0068897Y0330709D03*
X0057086Y0318898D03*
X0068897Y0318898D03*
D10*
X0478346Y0492501D03*
G36*
G01*
X0480807Y0494292D02*
X0475885Y0494292D01*
G75*
G02*
X0475492Y0494686I0000000J0000394D01*
G01*
X0475492Y0497835D01*
G75*
G02*
X0475885Y0498229I0000394J0000000D01*
G01*
X0480807Y0498229D01*
G75*
G02*
X0481200Y0497835I0000000J-000394D01*
G01*
X0481200Y0494686D01*
G75*
G02*
X0480807Y0494292I-000394J0000000D01*
G01*
G37*
G36*
G01*
X0480807Y0501772D02*
X0475885Y0501772D01*
G75*
G02*
X0475492Y0502166I0000000J0000394D01*
G01*
X0475492Y0505316D01*
G75*
G02*
X0475885Y0505709I0000394J0000000D01*
G01*
X0480807Y0505709D01*
G75*
G02*
X0481200Y0505316I0000000J-000394D01*
G01*
X0481200Y0502166D01*
G75*
G02*
X0480807Y0501772I-000394J0000000D01*
G01*
G37*
X0478346Y0507501D03*
X0466535Y0460630D03*
G36*
G01*
X0468996Y0462422D02*
X0464074Y0462422D01*
G75*
G02*
X0463681Y0462815I0000000J0000394D01*
G01*
X0463681Y0465965D01*
G75*
G02*
X0464074Y0466359I0000394J0000000D01*
G01*
X0468996Y0466359D01*
G75*
G02*
X0469389Y0465965I0000000J-000394D01*
G01*
X0469389Y0462815D01*
G75*
G02*
X0468996Y0462422I-000394J0000000D01*
G01*
G37*
G36*
G01*
X0468996Y0469902D02*
X0464074Y0469902D01*
G75*
G02*
X0463681Y0470296I0000000J0000394D01*
G01*
X0463681Y0473445D01*
G75*
G02*
X0464074Y0473839I0000394J0000000D01*
G01*
X0468996Y0473839D01*
G75*
G02*
X0469389Y0473445I0000000J-000394D01*
G01*
X0469389Y0470296D01*
G75*
G02*
X0468996Y0469902I-000394J0000000D01*
G01*
G37*
X0466535Y0475630D03*
D11*
X0081692Y0378938D03*
X0171259Y0460630D03*
D10*
X0564960Y0457067D03*
G36*
G01*
X0567421Y0458859D02*
X0562500Y0458859D01*
G75*
G02*
X0562106Y0459252I0000000J0000394D01*
G01*
X0562106Y0462402D01*
G75*
G02*
X0562500Y0462796I0000394J0000000D01*
G01*
X0567421Y0462796D01*
G75*
G02*
X0567814Y0462402I0000000J-000394D01*
G01*
X0567814Y0459252D01*
G75*
G02*
X0567421Y0458859I-000394J0000000D01*
G01*
G37*
G36*
G01*
X0567421Y0466339D02*
X0562500Y0466339D01*
G75*
G02*
X0562106Y0466733I0000000J0000394D01*
G01*
X0562106Y0469882D01*
G75*
G02*
X0562500Y0470276I0000394J0000000D01*
G01*
X0567421Y0470276D01*
G75*
G02*
X0567814Y0469882I0000000J-000394D01*
G01*
X0567814Y0466733D01*
G75*
G02*
X0567421Y0466339I-000394J0000000D01*
G01*
G37*
X0564960Y0472067D03*
D11*
X0566771Y0381575D03*
X0566771Y0391575D03*
X0566771Y0401575D03*
X0566771Y0411575D03*
X0566771Y0421575D03*
X0576771Y0381575D03*
X0576771Y0391575D03*
X0576771Y0401575D03*
X0576771Y0411575D03*
X0576771Y0421575D03*
X0586771Y0381575D03*
X0586771Y0391575D03*
X0586771Y0401575D03*
X0586771Y0411575D03*
X0586771Y0421575D03*
D10*
X0442913Y0460630D03*
G36*
G01*
X0445374Y0462422D02*
X0440452Y0462422D01*
G75*
G02*
X0440059Y0462815I0000000J0000394D01*
G01*
X0440059Y0465965D01*
G75*
G02*
X0440452Y0466359I0000394J0000000D01*
G01*
X0445374Y0466359D01*
G75*
G02*
X0445767Y0465965I0000000J-000394D01*
G01*
X0445767Y0462815D01*
G75*
G02*
X0445374Y0462422I-000394J0000000D01*
G01*
G37*
G36*
G01*
X0445374Y0469902D02*
X0440452Y0469902D01*
G75*
G02*
X0440059Y0470296I0000000J0000394D01*
G01*
X0440059Y0473445D01*
G75*
G02*
X0440452Y0473839I0000394J0000000D01*
G01*
X0445374Y0473839D01*
G75*
G02*
X0445767Y0473445I0000000J-000394D01*
G01*
X0445767Y0470296D01*
G75*
G02*
X0445374Y0469902I-000394J0000000D01*
G01*
G37*
X0442913Y0475630D03*
G36*
G01*
X0395767Y0473229D02*
X0395767Y0472048D01*
G75*
G02*
X0395177Y0471457I-000591J0000000D01*
G01*
X0390551Y0471457D01*
G75*
G02*
X0389960Y0472048I0000000J0000591D01*
G01*
X0389960Y0473229D01*
G75*
G02*
X0390551Y0473819I0000591J0000000D01*
G01*
X0395177Y0473819D01*
G75*
G02*
X0395767Y0473229I0000000J-000591D01*
G01*
G37*
G36*
G01*
X0388385Y0476969D02*
X0388385Y0475788D01*
G75*
G02*
X0387795Y0475197I-000591J0000000D01*
G01*
X0383169Y0475197D01*
G75*
G02*
X0382578Y0475788I0000000J0000591D01*
G01*
X0382578Y0476969D01*
G75*
G02*
X0383169Y0477560I0000591J0000000D01*
G01*
X0387795Y0477560D01*
G75*
G02*
X0388385Y0476969I0000000J-000591D01*
G01*
G37*
G36*
G01*
X0395767Y0480709D02*
X0395767Y0479528D01*
G75*
G02*
X0395177Y0478938I-000591J0000000D01*
G01*
X0390551Y0478938D01*
G75*
G02*
X0389960Y0479528I0000000J0000591D01*
G01*
X0389960Y0480709D01*
G75*
G02*
X0390551Y0481300I0000591J0000000D01*
G01*
X0395177Y0481300D01*
G75*
G02*
X0395767Y0480709I0000000J-000591D01*
G01*
G37*
D24*
X0548976Y0129922D03*
X0548976Y0177166D03*
G36*
G01*
X0535433Y0138780D02*
X0531496Y0138780D01*
G75*
G02*
X0530511Y0139764I0000000J0000984D01*
G01*
X0530511Y0143701D01*
G75*
G02*
X0531496Y0144686I0000984J0000000D01*
G01*
X0535433Y0144686D01*
G75*
G02*
X0536417Y0143701I0000000J-000984D01*
G01*
X0536417Y0139764D01*
G75*
G02*
X0535433Y0138780I-000984J0000000D01*
G01*
G37*
D12*
X0533464Y0153544D03*
X0533464Y0165355D03*
X0545275Y0141733D03*
X0545275Y0153544D03*
X0545275Y0165355D03*
D13*
X0586614Y0605906D03*
G36*
G01*
X0351870Y0482087D02*
X0356791Y0482087D01*
G75*
G02*
X0357185Y0481693I0000000J-000394D01*
G01*
X0357185Y0478544D01*
G75*
G02*
X0356791Y0478150I-000394J0000000D01*
G01*
X0351870Y0478150D01*
G75*
G02*
X0351476Y0478544I0000000J0000394D01*
G01*
X0351476Y0481693D01*
G75*
G02*
X0351870Y0482087I0000394J0000000D01*
G01*
G37*
G36*
G01*
X0351870Y0474607D02*
X0356791Y0474607D01*
G75*
G02*
X0357185Y0474213I0000000J-000394D01*
G01*
X0357185Y0471063D01*
G75*
G02*
X0356791Y0470670I-000394J0000000D01*
G01*
X0351870Y0470670D01*
G75*
G02*
X0351476Y0471063I0000000J0000394D01*
G01*
X0351476Y0474213D01*
G75*
G02*
X0351870Y0474607I0000394J0000000D01*
G01*
G37*
X0019685Y0283071D03*
D10*
X0107283Y0492501D03*
G36*
G01*
X0109744Y0494292D02*
X0104822Y0494292D01*
G75*
G02*
X0104429Y0494686I0000000J0000394D01*
G01*
X0104429Y0497835D01*
G75*
G02*
X0104822Y0498229I0000394J0000000D01*
G01*
X0109744Y0498229D01*
G75*
G02*
X0110137Y0497835I0000000J-000394D01*
G01*
X0110137Y0494686D01*
G75*
G02*
X0109744Y0494292I-000394J0000000D01*
G01*
G37*
G36*
G01*
X0109744Y0501772D02*
X0104822Y0501772D01*
G75*
G02*
X0104429Y0502166I0000000J0000394D01*
G01*
X0104429Y0505316D01*
G75*
G02*
X0104822Y0505709I0000394J0000000D01*
G01*
X0109744Y0505709D01*
G75*
G02*
X0110137Y0505316I0000000J-000394D01*
G01*
X0110137Y0502166D01*
G75*
G02*
X0109744Y0501772I-000394J0000000D01*
G01*
G37*
X0107283Y0507501D03*
X0503937Y0460630D03*
G36*
G01*
X0506397Y0462422D02*
X0501476Y0462422D01*
G75*
G02*
X0501082Y0462815I0000000J0000394D01*
G01*
X0501082Y0465965D01*
G75*
G02*
X0501476Y0466359I0000394J0000000D01*
G01*
X0506397Y0466359D01*
G75*
G02*
X0506791Y0465965I0000000J-000394D01*
G01*
X0506791Y0462815D01*
G75*
G02*
X0506397Y0462422I-000394J0000000D01*
G01*
G37*
G36*
G01*
X0506397Y0469902D02*
X0501476Y0469902D01*
G75*
G02*
X0501082Y0470296I0000000J0000394D01*
G01*
X0501082Y0473445D01*
G75*
G02*
X0501476Y0473839I0000394J0000000D01*
G01*
X0506397Y0473839D01*
G75*
G02*
X0506791Y0473445I0000000J-000394D01*
G01*
X0506791Y0470296D01*
G75*
G02*
X0506397Y0469902I-000394J0000000D01*
G01*
G37*
X0503937Y0475630D03*
G36*
G01*
X0371417Y0448800D02*
X0368740Y0448800D01*
G75*
G02*
X0368405Y0449134I0000000J0000335D01*
G01*
X0368405Y0451812D01*
G75*
G02*
X0368740Y0452146I0000335J0000000D01*
G01*
X0371417Y0452146D01*
G75*
G02*
X0371751Y0451812I0000000J-000335D01*
G01*
X0371751Y0449134D01*
G75*
G02*
X0371417Y0448800I-000335J0000000D01*
G01*
G37*
G36*
G01*
X0371417Y0455020D02*
X0368740Y0455020D01*
G75*
G02*
X0368405Y0455355I0000000J0000335D01*
G01*
X0368405Y0458032D01*
G75*
G02*
X0368740Y0458367I0000335J0000000D01*
G01*
X0371417Y0458367D01*
G75*
G02*
X0371751Y0458032I0000000J-000335D01*
G01*
X0371751Y0455355D01*
G75*
G02*
X0371417Y0455020I-000335J0000000D01*
G01*
G37*
X0083661Y0492501D03*
G36*
G01*
X0086122Y0494292D02*
X0081200Y0494292D01*
G75*
G02*
X0080807Y0494686I0000000J0000394D01*
G01*
X0080807Y0497835D01*
G75*
G02*
X0081200Y0498229I0000394J0000000D01*
G01*
X0086122Y0498229D01*
G75*
G02*
X0086515Y0497835I0000000J-000394D01*
G01*
X0086515Y0494686D01*
G75*
G02*
X0086122Y0494292I-000394J0000000D01*
G01*
G37*
G36*
G01*
X0086122Y0501772D02*
X0081200Y0501772D01*
G75*
G02*
X0080807Y0502166I0000000J0000394D01*
G01*
X0080807Y0505316D01*
G75*
G02*
X0081200Y0505709I0000394J0000000D01*
G01*
X0086122Y0505709D01*
G75*
G02*
X0086515Y0505316I0000000J-000394D01*
G01*
X0086515Y0502166D01*
G75*
G02*
X0086122Y0501772I-000394J0000000D01*
G01*
G37*
X0083661Y0507501D03*
X0231299Y0460630D03*
G36*
G01*
X0233759Y0462422D02*
X0228838Y0462422D01*
G75*
G02*
X0228444Y0462815I0000000J0000394D01*
G01*
X0228444Y0465965D01*
G75*
G02*
X0228838Y0466359I0000394J0000000D01*
G01*
X0233759Y0466359D01*
G75*
G02*
X0234153Y0465965I0000000J-000394D01*
G01*
X0234153Y0462815D01*
G75*
G02*
X0233759Y0462422I-000394J0000000D01*
G01*
G37*
G36*
G01*
X0233759Y0469902D02*
X0228838Y0469902D01*
G75*
G02*
X0228444Y0470296I0000000J0000394D01*
G01*
X0228444Y0473445D01*
G75*
G02*
X0228838Y0473839I0000394J0000000D01*
G01*
X0233759Y0473839D01*
G75*
G02*
X0234153Y0473445I0000000J-000394D01*
G01*
X0234153Y0470296D01*
G75*
G02*
X0233759Y0469902I-000394J0000000D01*
G01*
G37*
X0231299Y0475630D03*
D11*
X0068897Y0460630D03*
X0062007Y0378938D03*
D10*
X0057086Y0509272D03*
G36*
G01*
X0053543Y0503977D02*
X0053543Y0506693D01*
G75*
G02*
X0054448Y0507599I0000906J0000000D01*
G01*
X0059724Y0507599D01*
G75*
G02*
X0060629Y0506693I0000000J-000906D01*
G01*
X0060629Y0503977D01*
G75*
G02*
X0059724Y0503071I-000906J0000000D01*
G01*
X0054448Y0503071D01*
G75*
G02*
X0053543Y0503977I0000000J0000906D01*
G01*
G37*
G36*
G01*
X0053543Y0492560D02*
X0053543Y0495276D01*
G75*
G02*
X0054448Y0496182I0000906J0000000D01*
G01*
X0059724Y0496182D01*
G75*
G02*
X0060629Y0495276I0000000J-000906D01*
G01*
X0060629Y0492560D01*
G75*
G02*
X0059724Y0491654I-000906J0000000D01*
G01*
X0054448Y0491654D01*
G75*
G02*
X0053543Y0492560I0000000J0000906D01*
G01*
G37*
X0057086Y0489981D03*
D11*
X0427165Y0491142D03*
D10*
X0095472Y0460630D03*
G36*
G01*
X0097933Y0462422D02*
X0093011Y0462422D01*
G75*
G02*
X0092618Y0462815I0000000J0000394D01*
G01*
X0092618Y0465965D01*
G75*
G02*
X0093011Y0466359I0000394J0000000D01*
G01*
X0097933Y0466359D01*
G75*
G02*
X0098326Y0465965I0000000J-000394D01*
G01*
X0098326Y0462815D01*
G75*
G02*
X0097933Y0462422I-000394J0000000D01*
G01*
G37*
G36*
G01*
X0097933Y0469902D02*
X0093011Y0469902D01*
G75*
G02*
X0092618Y0470296I0000000J0000394D01*
G01*
X0092618Y0473445D01*
G75*
G02*
X0093011Y0473839I0000394J0000000D01*
G01*
X0097933Y0473839D01*
G75*
G02*
X0098326Y0473445I0000000J-000394D01*
G01*
X0098326Y0470296D01*
G75*
G02*
X0097933Y0469902I-000394J0000000D01*
G01*
G37*
X0095472Y0475630D03*
D11*
X0527401Y0381575D03*
X0527401Y0391575D03*
X0527401Y0401575D03*
X0527401Y0411575D03*
X0527401Y0421575D03*
X0537401Y0381575D03*
X0537401Y0391575D03*
X0537401Y0401575D03*
X0537401Y0411575D03*
X0537401Y0421575D03*
X0547401Y0381575D03*
X0547401Y0391575D03*
X0547401Y0401575D03*
X0547401Y0411575D03*
X0547401Y0421575D03*
D10*
X0231299Y0492501D03*
G36*
G01*
X0233759Y0494292D02*
X0228838Y0494292D01*
G75*
G02*
X0228444Y0494686I0000000J0000394D01*
G01*
X0228444Y0497835D01*
G75*
G02*
X0228838Y0498229I0000394J0000000D01*
G01*
X0233759Y0498229D01*
G75*
G02*
X0234153Y0497835I0000000J-000394D01*
G01*
X0234153Y0494686D01*
G75*
G02*
X0233759Y0494292I-000394J0000000D01*
G01*
G37*
G36*
G01*
X0233759Y0501772D02*
X0228838Y0501772D01*
G75*
G02*
X0228444Y0502166I0000000J0000394D01*
G01*
X0228444Y0505316D01*
G75*
G02*
X0228838Y0505709I0000394J0000000D01*
G01*
X0233759Y0505709D01*
G75*
G02*
X0234153Y0505316I0000000J-000394D01*
G01*
X0234153Y0502166D01*
G75*
G02*
X0233759Y0501772I-000394J0000000D01*
G01*
G37*
X0231299Y0507501D03*
D11*
X0527401Y0322520D03*
X0527401Y0332520D03*
X0527401Y0342520D03*
X0527401Y0352520D03*
X0527401Y0362520D03*
X0537401Y0322520D03*
X0537401Y0332520D03*
X0537401Y0342520D03*
X0537401Y0352520D03*
X0537401Y0362520D03*
X0547401Y0322520D03*
X0547401Y0332520D03*
X0547401Y0342520D03*
X0547401Y0352520D03*
X0547401Y0362520D03*
D14*
X0060397Y0581811D03*
X0196027Y0581811D03*
X0382641Y0581811D03*
X0545830Y0581811D03*
D15*
X0062956Y0541651D03*
X0076726Y0541651D03*
X0088936Y0541651D03*
X0100746Y0541651D03*
X0112556Y0541651D03*
X0124366Y0541651D03*
X0136176Y0541651D03*
X0147986Y0541651D03*
X0159796Y0541651D03*
X0171606Y0541651D03*
X0183816Y0541651D03*
X0062956Y0559371D03*
X0076726Y0559371D03*
X0088936Y0559371D03*
X0100746Y0559371D03*
X0112556Y0559371D03*
X0124366Y0559371D03*
X0136176Y0559371D03*
X0147986Y0559371D03*
X0159796Y0559371D03*
X0171606Y0559371D03*
X0183816Y0559371D03*
X0288744Y0541651D03*
X0300554Y0541651D03*
X0312364Y0541651D03*
X0324174Y0541651D03*
X0335994Y0541651D03*
X0347804Y0541651D03*
X0359614Y0541651D03*
X0371424Y0541651D03*
X0288744Y0559371D03*
X0300554Y0559371D03*
X0312364Y0559371D03*
X0324174Y0559371D03*
X0335994Y0559371D03*
X0347804Y0559371D03*
X0359614Y0559371D03*
X0371424Y0559371D03*
X0394834Y0541651D03*
X0408614Y0541651D03*
X0420834Y0541651D03*
X0432644Y0541651D03*
X0444454Y0541651D03*
X0456264Y0541651D03*
X0468074Y0541651D03*
X0479884Y0541651D03*
X0491694Y0541651D03*
X0503504Y0541651D03*
X0515714Y0541651D03*
X0529494Y0541651D03*
X0543274Y0541651D03*
X0394834Y0559371D03*
X0408614Y0559371D03*
X0420834Y0559371D03*
X0432644Y0559371D03*
X0444454Y0559371D03*
X0456264Y0559371D03*
X0468074Y0559371D03*
X0479884Y0559371D03*
X0491694Y0559371D03*
X0503504Y0559371D03*
X0515714Y0559371D03*
X0529494Y0559371D03*
X0543274Y0559371D03*
X0207247Y0541651D03*
X0219057Y0541651D03*
X0230867Y0541651D03*
X0242677Y0541651D03*
X0254497Y0541651D03*
X0266307Y0541651D03*
X0207247Y0559371D03*
X0219057Y0559371D03*
X0230867Y0559371D03*
X0242677Y0559371D03*
X0254497Y0559371D03*
X0266307Y0559371D03*
D13*
X0586420Y0283071D03*
X0586614Y0020079D03*
D11*
X0566771Y0322520D03*
X0566771Y0332520D03*
X0566771Y0342520D03*
X0566771Y0352520D03*
X0566771Y0362520D03*
X0576771Y0322520D03*
X0576771Y0332520D03*
X0576771Y0342520D03*
X0576771Y0352520D03*
X0576771Y0362520D03*
X0586771Y0322520D03*
X0586771Y0332520D03*
X0586771Y0342520D03*
X0586771Y0352520D03*
X0586771Y0362520D03*
X0442913Y0491142D03*
D10*
X0130905Y0460630D03*
G36*
G01*
X0133366Y0462422D02*
X0128444Y0462422D01*
G75*
G02*
X0128051Y0462815I0000000J0000394D01*
G01*
X0128051Y0465965D01*
G75*
G02*
X0128444Y0466359I0000394J0000000D01*
G01*
X0133366Y0466359D01*
G75*
G02*
X0133759Y0465965I0000000J-000394D01*
G01*
X0133759Y0462815D01*
G75*
G02*
X0133366Y0462422I-000394J0000000D01*
G01*
G37*
G36*
G01*
X0133366Y0469902D02*
X0128444Y0469902D01*
G75*
G02*
X0128051Y0470296I0000000J0000394D01*
G01*
X0128051Y0473445D01*
G75*
G02*
X0128444Y0473839I0000394J0000000D01*
G01*
X0133366Y0473839D01*
G75*
G02*
X0133759Y0473445I0000000J-000394D01*
G01*
X0133759Y0470296D01*
G75*
G02*
X0133366Y0469902I-000394J0000000D01*
G01*
G37*
X0130905Y0475630D03*
X0531496Y0492501D03*
G36*
G01*
X0533956Y0494292D02*
X0529035Y0494292D01*
G75*
G02*
X0528641Y0494686I0000000J0000394D01*
G01*
X0528641Y0497835D01*
G75*
G02*
X0529035Y0498229I0000394J0000000D01*
G01*
X0533956Y0498229D01*
G75*
G02*
X0534350Y0497835I0000000J-000394D01*
G01*
X0534350Y0494686D01*
G75*
G02*
X0533956Y0494292I-000394J0000000D01*
G01*
G37*
G36*
G01*
X0533956Y0501772D02*
X0529035Y0501772D01*
G75*
G02*
X0528641Y0502166I0000000J0000394D01*
G01*
X0528641Y0505316D01*
G75*
G02*
X0529035Y0505709I0000394J0000000D01*
G01*
X0533956Y0505709D01*
G75*
G02*
X0534350Y0505316I0000000J-000394D01*
G01*
X0534350Y0502166D01*
G75*
G02*
X0533956Y0501772I-000394J0000000D01*
G01*
G37*
X0531496Y0507501D03*
D16*
X0142913Y0131546D03*
X0142913Y0148081D03*
X0142913Y0164617D03*
D11*
X0148819Y0167963D03*
D16*
X0142913Y0181152D03*
D11*
X0148819Y0177963D03*
D16*
X0164567Y0131546D03*
X0164567Y0148081D03*
D11*
X0158819Y0167963D03*
D16*
X0164567Y0164617D03*
D11*
X0158819Y0177963D03*
D16*
X0164567Y0181152D03*
X0142913Y0207924D03*
X0142913Y0224459D03*
D11*
X0148819Y0227806D03*
D16*
X0142913Y0240995D03*
D11*
X0148819Y0237806D03*
D16*
X0142913Y0257530D03*
D11*
X0148819Y0260877D03*
D16*
X0142913Y0274066D03*
D11*
X0148819Y0270877D03*
D16*
X0142913Y0290601D03*
D11*
X0148819Y0293948D03*
D16*
X0142913Y0307137D03*
D11*
X0148819Y0303948D03*
D16*
X0142913Y0323672D03*
D11*
X0148819Y0327018D03*
D16*
X0142913Y0340207D03*
D11*
X0148819Y0337018D03*
D16*
X0164567Y0207924D03*
D11*
X0158819Y0227806D03*
D16*
X0164567Y0224459D03*
D11*
X0158819Y0237806D03*
D16*
X0164567Y0240995D03*
D11*
X0158819Y0260877D03*
D16*
X0164567Y0257530D03*
D11*
X0158819Y0270877D03*
D16*
X0164567Y0274066D03*
D11*
X0158819Y0293948D03*
D16*
X0164567Y0290601D03*
D11*
X0158819Y0303948D03*
D16*
X0164567Y0307137D03*
D11*
X0158819Y0327018D03*
D16*
X0164567Y0323672D03*
D11*
X0158819Y0337018D03*
D16*
X0164567Y0340207D03*
X0148130Y0387156D03*
D11*
X0151476Y0381251D03*
X0161476Y0381251D03*
D16*
X0164665Y0387156D03*
X0181201Y0387156D03*
D11*
X0184547Y0381251D03*
X0194547Y0381251D03*
D16*
X0197736Y0387156D03*
X0214272Y0387156D03*
D11*
X0217618Y0381251D03*
X0227618Y0381251D03*
D16*
X0230807Y0387156D03*
X0247343Y0387156D03*
D11*
X0250689Y0381251D03*
X0260689Y0381251D03*
D16*
X0263878Y0387156D03*
X0280413Y0387156D03*
X0296949Y0387156D03*
X0148130Y0365503D03*
D11*
X0151476Y0371251D03*
X0161476Y0371251D03*
D16*
X0164665Y0365503D03*
X0181201Y0365503D03*
D11*
X0184547Y0371251D03*
X0194547Y0371251D03*
D16*
X0197736Y0365503D03*
X0214272Y0365503D03*
D11*
X0217618Y0371251D03*
X0227618Y0371251D03*
D16*
X0230807Y0365503D03*
X0247343Y0365503D03*
D11*
X0250689Y0371251D03*
X0260689Y0371251D03*
D16*
X0263878Y0365503D03*
X0280413Y0365503D03*
X0296949Y0365503D03*
X0343799Y0387156D03*
D11*
X0347146Y0381251D03*
X0357146Y0381251D03*
D16*
X0360335Y0387156D03*
X0376870Y0387156D03*
D11*
X0380217Y0381251D03*
X0390217Y0381251D03*
D16*
X0393406Y0387156D03*
X0409941Y0387156D03*
D11*
X0413287Y0381251D03*
X0423287Y0381251D03*
D16*
X0426476Y0387156D03*
X0443012Y0387156D03*
D11*
X0446358Y0381251D03*
X0456358Y0381251D03*
D16*
X0459547Y0387156D03*
X0343799Y0365503D03*
D11*
X0347146Y0371251D03*
X0357146Y0371251D03*
D16*
X0360335Y0365503D03*
X0376870Y0365503D03*
D11*
X0380217Y0371251D03*
X0390217Y0371251D03*
D16*
X0393406Y0365503D03*
X0409941Y0365503D03*
D11*
X0413287Y0371251D03*
X0423287Y0371251D03*
D16*
X0426476Y0365503D03*
X0443012Y0365503D03*
D11*
X0446358Y0371251D03*
X0456358Y0371251D03*
D16*
X0459547Y0365503D03*
D11*
X0457835Y0338593D03*
D16*
X0463583Y0341782D03*
D11*
X0457835Y0328593D03*
D16*
X0463583Y0325247D03*
X0463583Y0308711D03*
X0441929Y0341782D03*
D11*
X0447835Y0338593D03*
D16*
X0441929Y0325247D03*
D11*
X0447835Y0328593D03*
D16*
X0441929Y0308711D03*
G36*
G01*
X0435827Y0038436D02*
X0430512Y0038436D01*
G75*
G02*
X0429528Y0039420I0000000J0000984D01*
G01*
X0429528Y0044144D01*
G75*
G02*
X0430512Y0045129I0000984J0000000D01*
G01*
X0435827Y0045129D01*
G75*
G02*
X0436811Y0044144I0000000J-000984D01*
G01*
X0436811Y0039420D01*
G75*
G02*
X0435827Y0038436I-000984J0000000D01*
G01*
G37*
D17*
X0433169Y0051625D03*
X0433169Y0061467D03*
X0433169Y0071310D03*
X0433169Y0081152D03*
D11*
X0352461Y0039814D03*
X0352461Y0059499D03*
X0433957Y0124459D03*
X0433957Y0105955D03*
X0128209Y0075247D03*
X0138209Y0075247D03*
X0118209Y0075247D03*
X0196949Y0073278D03*
X0143700Y0491142D03*
D10*
X0070866Y0492501D03*
G36*
G01*
X0073326Y0494292D02*
X0068405Y0494292D01*
G75*
G02*
X0068011Y0494686I0000000J0000394D01*
G01*
X0068011Y0497835D01*
G75*
G02*
X0068405Y0498229I0000394J0000000D01*
G01*
X0073326Y0498229D01*
G75*
G02*
X0073720Y0497835I0000000J-000394D01*
G01*
X0073720Y0494686D01*
G75*
G02*
X0073326Y0494292I-000394J0000000D01*
G01*
G37*
G36*
G01*
X0073326Y0501772D02*
X0068405Y0501772D01*
G75*
G02*
X0068011Y0502166I0000000J0000394D01*
G01*
X0068011Y0505316D01*
G75*
G02*
X0068405Y0505709I0000394J0000000D01*
G01*
X0073326Y0505709D01*
G75*
G02*
X0073720Y0505316I0000000J-000394D01*
G01*
X0073720Y0502166D01*
G75*
G02*
X0073326Y0501772I-000394J0000000D01*
G01*
G37*
X0070866Y0507501D03*
D11*
X0171259Y0491142D03*
D13*
X0019685Y0020079D03*
D18*
X0337204Y0459449D03*
X0337204Y0468504D03*
X0337204Y0477560D03*
D19*
X0312401Y0468504D03*
D11*
X0076771Y0055119D03*
D24*
X0549311Y0196851D03*
X0549311Y0220473D03*
G36*
G01*
X0535767Y0205709D02*
X0531830Y0205709D01*
G75*
G02*
X0530846Y0206693I0000000J0000984D01*
G01*
X0530846Y0210630D01*
G75*
G02*
X0531830Y0211615I0000984J0000000D01*
G01*
X0535767Y0211615D01*
G75*
G02*
X0536751Y0210630I0000000J-000984D01*
G01*
X0536751Y0206693D01*
G75*
G02*
X0535767Y0205709I-000984J0000000D01*
G01*
G37*
D12*
X0545610Y0208662D03*
D11*
X0076771Y0094489D03*
D10*
X0260826Y0460630D03*
G36*
G01*
X0263287Y0462422D02*
X0258366Y0462422D01*
G75*
G02*
X0257972Y0462815I0000000J0000394D01*
G01*
X0257972Y0465965D01*
G75*
G02*
X0258366Y0466359I0000394J0000000D01*
G01*
X0263287Y0466359D01*
G75*
G02*
X0263681Y0465965I0000000J-000394D01*
G01*
X0263681Y0462815D01*
G75*
G02*
X0263287Y0462422I-000394J0000000D01*
G01*
G37*
G36*
G01*
X0263287Y0469902D02*
X0258366Y0469902D01*
G75*
G02*
X0257972Y0470296I0000000J0000394D01*
G01*
X0257972Y0473445D01*
G75*
G02*
X0258366Y0473839I0000394J0000000D01*
G01*
X0263287Y0473839D01*
G75*
G02*
X0263681Y0473445I0000000J-000394D01*
G01*
X0263681Y0470296D01*
G75*
G02*
X0263287Y0469902I-000394J0000000D01*
G01*
G37*
X0260826Y0475630D03*
X0503937Y0492501D03*
G36*
G01*
X0506397Y0494292D02*
X0501476Y0494292D01*
G75*
G02*
X0501082Y0494686I0000000J0000394D01*
G01*
X0501082Y0497835D01*
G75*
G02*
X0501476Y0498229I0000394J0000000D01*
G01*
X0506397Y0498229D01*
G75*
G02*
X0506791Y0497835I0000000J-000394D01*
G01*
X0506791Y0494686D01*
G75*
G02*
X0506397Y0494292I-000394J0000000D01*
G01*
G37*
G36*
G01*
X0506397Y0501772D02*
X0501476Y0501772D01*
G75*
G02*
X0501082Y0502166I0000000J0000394D01*
G01*
X0501082Y0505316D01*
G75*
G02*
X0501476Y0505709I0000394J0000000D01*
G01*
X0506397Y0505709D01*
G75*
G02*
X0506791Y0505316I0000000J-000394D01*
G01*
X0506791Y0502166D01*
G75*
G02*
X0506397Y0501772I-000394J0000000D01*
G01*
G37*
X0503937Y0507501D03*
X0409448Y0492501D03*
G36*
G01*
X0411909Y0494292D02*
X0406988Y0494292D01*
G75*
G02*
X0406594Y0494686I0000000J0000394D01*
G01*
X0406594Y0497835D01*
G75*
G02*
X0406988Y0498229I0000394J0000000D01*
G01*
X0411909Y0498229D01*
G75*
G02*
X0412303Y0497835I0000000J-000394D01*
G01*
X0412303Y0494686D01*
G75*
G02*
X0411909Y0494292I-000394J0000000D01*
G01*
G37*
G36*
G01*
X0411909Y0501772D02*
X0406988Y0501772D01*
G75*
G02*
X0406594Y0502166I0000000J0000394D01*
G01*
X0406594Y0505316D01*
G75*
G02*
X0406988Y0505709I0000394J0000000D01*
G01*
X0411909Y0505709D01*
G75*
G02*
X0412303Y0505316I0000000J-000394D01*
G01*
X0412303Y0502166D01*
G75*
G02*
X0411909Y0501772I-000394J0000000D01*
G01*
G37*
X0409448Y0507501D03*
D11*
X0143700Y0460630D03*
G36*
G01*
X0379429Y0458465D02*
X0384350Y0458465D01*
G75*
G02*
X0384744Y0458071I0000000J-000394D01*
G01*
X0384744Y0454922D01*
G75*
G02*
X0384350Y0454528I-000394J0000000D01*
G01*
X0379429Y0454528D01*
G75*
G02*
X0379035Y0454922I0000000J0000394D01*
G01*
X0379035Y0458071D01*
G75*
G02*
X0379429Y0458465I0000394J0000000D01*
G01*
G37*
G36*
G01*
X0379429Y0450985D02*
X0384350Y0450985D01*
G75*
G02*
X0384744Y0450591I0000000J-000394D01*
G01*
X0384744Y0447441D01*
G75*
G02*
X0384350Y0447048I-000394J0000000D01*
G01*
X0379429Y0447048D01*
G75*
G02*
X0379035Y0447441I0000000J0000394D01*
G01*
X0379035Y0450591D01*
G75*
G02*
X0379429Y0450985I0000394J0000000D01*
G01*
G37*
X0491141Y0491142D03*
D10*
X0564960Y0492501D03*
G36*
G01*
X0567421Y0494292D02*
X0562500Y0494292D01*
G75*
G02*
X0562106Y0494686I0000000J0000394D01*
G01*
X0562106Y0497835D01*
G75*
G02*
X0562500Y0498229I0000394J0000000D01*
G01*
X0567421Y0498229D01*
G75*
G02*
X0567814Y0497835I0000000J-000394D01*
G01*
X0567814Y0494686D01*
G75*
G02*
X0567421Y0494292I-000394J0000000D01*
G01*
G37*
G36*
G01*
X0567421Y0501772D02*
X0562500Y0501772D01*
G75*
G02*
X0562106Y0502166I0000000J0000394D01*
G01*
X0562106Y0505316D01*
G75*
G02*
X0562500Y0505709I0000394J0000000D01*
G01*
X0567421Y0505709D01*
G75*
G02*
X0567814Y0505316I0000000J-000394D01*
G01*
X0567814Y0502166D01*
G75*
G02*
X0567421Y0501772I-000394J0000000D01*
G01*
G37*
X0564960Y0507501D03*
X0260826Y0492501D03*
G36*
G01*
X0263287Y0494292D02*
X0258366Y0494292D01*
G75*
G02*
X0257972Y0494686I0000000J0000394D01*
G01*
X0257972Y0497835D01*
G75*
G02*
X0258366Y0498229I0000394J0000000D01*
G01*
X0263287Y0498229D01*
G75*
G02*
X0263681Y0497835I0000000J-000394D01*
G01*
X0263681Y0494686D01*
G75*
G02*
X0263287Y0494292I-000394J0000000D01*
G01*
G37*
G36*
G01*
X0263287Y0501772D02*
X0258366Y0501772D01*
G75*
G02*
X0257972Y0502166I0000000J0000394D01*
G01*
X0257972Y0505316D01*
G75*
G02*
X0258366Y0505709I0000394J0000000D01*
G01*
X0263287Y0505709D01*
G75*
G02*
X0263681Y0505316I0000000J-000394D01*
G01*
X0263681Y0502166D01*
G75*
G02*
X0263287Y0501772I-000394J0000000D01*
G01*
G37*
X0260826Y0507501D03*
X0336614Y0509272D03*
G36*
G01*
X0333070Y0503977D02*
X0333070Y0506693D01*
G75*
G02*
X0333976Y0507599I0000906J0000000D01*
G01*
X0339251Y0507599D01*
G75*
G02*
X0340157Y0506693I0000000J-000906D01*
G01*
X0340157Y0503977D01*
G75*
G02*
X0339251Y0503071I-000906J0000000D01*
G01*
X0333976Y0503071D01*
G75*
G02*
X0333070Y0503977I0000000J0000906D01*
G01*
G37*
G36*
G01*
X0333070Y0492560D02*
X0333070Y0495276D01*
G75*
G02*
X0333976Y0496182I0000906J0000000D01*
G01*
X0339251Y0496182D01*
G75*
G02*
X0340157Y0495276I0000000J-000906D01*
G01*
X0340157Y0492560D01*
G75*
G02*
X0339251Y0491654I-000906J0000000D01*
G01*
X0333976Y0491654D01*
G75*
G02*
X0333070Y0492560I0000000J0000906D01*
G01*
G37*
X0336614Y0489981D03*
D11*
X0042322Y0378938D03*
X0107283Y0460630D03*
D13*
X0019685Y0605906D03*
X0108268Y0031939D02*
%LPD*%
G01*
D16*
X0144883Y0133613D03*
X0144883Y0150148D03*
X0144883Y0166684D03*
D11*
X0150788Y0170030D03*
D16*
X0144883Y0183219D03*
D11*
X0150788Y0180030D03*
D16*
X0166536Y0133613D03*
X0166536Y0150148D03*
D11*
X0160788Y0170030D03*
D16*
X0166536Y0166684D03*
D11*
X0160788Y0180030D03*
D16*
X0166536Y0183219D03*
X0144883Y0209991D03*
X0144883Y0226526D03*
D11*
X0150788Y0229873D03*
D16*
X0144883Y0243062D03*
D11*
X0150788Y0239873D03*
D16*
X0144883Y0259597D03*
D11*
X0150788Y0262944D03*
D16*
X0144883Y0276132D03*
D11*
X0150788Y0272944D03*
D16*
X0144883Y0292668D03*
D11*
X0150788Y0296014D03*
D16*
X0144883Y0309203D03*
D11*
X0150788Y0306014D03*
D16*
X0144883Y0325739D03*
D11*
X0150788Y0329085D03*
D16*
X0144883Y0342274D03*
D11*
X0150788Y0339085D03*
D16*
X0166536Y0209991D03*
D11*
X0160788Y0229873D03*
D16*
X0166536Y0226526D03*
D11*
X0160788Y0239873D03*
D16*
X0166536Y0243062D03*
D11*
X0160788Y0262944D03*
D16*
X0166536Y0259597D03*
D11*
X0160788Y0272944D03*
D16*
X0166536Y0276132D03*
D11*
X0160788Y0296014D03*
D16*
X0166536Y0292668D03*
D11*
X0160788Y0306014D03*
D16*
X0166536Y0309203D03*
D11*
X0160788Y0329085D03*
D16*
X0166536Y0325739D03*
D11*
X0160788Y0339085D03*
D16*
X0166536Y0342274D03*
X0150099Y0389223D03*
D11*
X0153446Y0383318D03*
X0163446Y0383318D03*
D16*
X0166635Y0389223D03*
X0183170Y0389223D03*
D11*
X0186517Y0383318D03*
X0196517Y0383318D03*
D16*
X0199706Y0389223D03*
X0216241Y0389223D03*
D11*
X0219587Y0383318D03*
X0229587Y0383318D03*
D16*
X0232776Y0389223D03*
X0249312Y0389223D03*
D11*
X0252658Y0383318D03*
X0262658Y0383318D03*
D16*
X0265847Y0389223D03*
X0282383Y0389223D03*
X0298918Y0389223D03*
X0150099Y0367569D03*
D11*
X0153446Y0373318D03*
X0163446Y0373318D03*
D16*
X0166635Y0367569D03*
X0183170Y0367569D03*
D11*
X0186517Y0373318D03*
X0196517Y0373318D03*
D16*
X0199706Y0367569D03*
X0216241Y0367569D03*
D11*
X0219587Y0373318D03*
X0229587Y0373318D03*
D16*
X0232776Y0367569D03*
X0249312Y0367569D03*
D11*
X0252658Y0373318D03*
X0262658Y0373318D03*
D16*
X0265847Y0367569D03*
X0282383Y0367569D03*
X0298918Y0367569D03*
X0345768Y0389223D03*
D11*
X0349115Y0383318D03*
X0359115Y0383318D03*
D16*
X0362304Y0389223D03*
X0378839Y0389223D03*
D11*
X0382186Y0383318D03*
X0392186Y0383318D03*
D16*
X0395375Y0389223D03*
X0411910Y0389223D03*
D11*
X0415257Y0383318D03*
X0425257Y0383318D03*
D16*
X0428446Y0389223D03*
X0444981Y0389223D03*
D11*
X0448328Y0383318D03*
X0458328Y0383318D03*
D16*
X0461517Y0389223D03*
X0345768Y0367569D03*
D11*
X0349115Y0373318D03*
X0359115Y0373318D03*
D16*
X0362304Y0367569D03*
X0378839Y0367569D03*
D11*
X0382186Y0373318D03*
X0392186Y0373318D03*
D16*
X0395375Y0367569D03*
X0411910Y0367569D03*
D11*
X0415257Y0373318D03*
X0425257Y0373318D03*
D16*
X0428446Y0367569D03*
X0444981Y0367569D03*
D11*
X0448328Y0373318D03*
X0458328Y0373318D03*
D16*
X0461517Y0367569D03*
D11*
X0459804Y0340660D03*
D16*
X0465552Y0343849D03*
D11*
X0459804Y0330660D03*
D16*
X0465552Y0327314D03*
X0465552Y0310778D03*
X0443898Y0343849D03*
D11*
X0449804Y0340660D03*
D16*
X0443898Y0327314D03*
D11*
X0449804Y0330660D03*
D16*
X0443898Y0310778D03*
G36*
G01*
X0437796Y0040503D02*
X0432481Y0040503D01*
G75*
G02*
X0431497Y0041487I0000000J0000984D01*
G01*
X0431497Y0046211D01*
G75*
G02*
X0432481Y0047195I0000984J0000000D01*
G01*
X0437796Y0047195D01*
G75*
G02*
X0438780Y0046211I0000000J-000984D01*
G01*
X0438780Y0041487D01*
G75*
G02*
X0437796Y0040503I-000984J0000000D01*
G01*
G37*
D17*
X0435139Y0053692D03*
X0435139Y0063534D03*
X0435139Y0073377D03*
X0435139Y0083219D03*
D11*
X0354430Y0041881D03*
X0354430Y0061566D03*
X0435926Y0126526D03*
X0435926Y0108022D03*
X0130178Y0077314D03*
X0140178Y0077314D03*
X0120178Y0077314D03*
X0198918Y0075345D03*
D16*
X0144883Y0183219D03*
D38*
X0382186Y0383318D03*
X0392186Y0383318D03*
X0382186Y0373318D03*
X0392186Y0373318D03*
D16*
X0166536Y0243062D03*
X0461517Y0389223D03*
X0166536Y0226526D03*
X0183170Y0389223D03*
X0144883Y0292668D03*
X0345768Y0389223D03*
X0461517Y0367569D03*
X0144883Y0276132D03*
X0144883Y0259597D03*
X0298918Y0389223D03*
X0443898Y0327314D03*
X0428446Y0389223D03*
X0282383Y0389223D03*
X0232776Y0389223D03*
X0144883Y0342274D03*
X0465552Y0310778D03*
D11*
X0435926Y0108022D03*
D38*
X0252658Y0383318D03*
X0262658Y0383318D03*
X0252658Y0373318D03*
X0262658Y0373318D03*
D16*
X0428446Y0367569D03*
X0199706Y0389223D03*
D11*
X0435926Y0126526D03*
D16*
X0144883Y0243062D03*
X0249312Y0389223D03*
X0249312Y0367569D03*
X0444981Y0367569D03*
X0166536Y0183219D03*
D38*
X0150788Y0339085D03*
X0160788Y0339085D03*
X0150788Y0329085D03*
X0160788Y0329085D03*
D16*
X0166536Y0325739D03*
X0362304Y0389223D03*
X0378839Y0389223D03*
D38*
X0150788Y0239873D03*
X0160788Y0239873D03*
X0150788Y0229873D03*
X0160788Y0229873D03*
G36*
G01*
X0437796Y0040503D02*
X0432481Y0040503D01*
G75*
G02*
X0431497Y0041487I0000000J0000984D01*
G01*
X0431497Y0046211D01*
G75*
G02*
X0432481Y0047195I0000984J0000000D01*
G01*
X0437796Y0047195D01*
G75*
G02*
X0438780Y0046211I0000000J-000984D01*
G01*
X0438780Y0041487D01*
G75*
G02*
X0437796Y0040503I-000984J0000000D01*
G01*
G37*
D17*
X0435139Y0053692D03*
X0435139Y0063534D03*
X0435139Y0073377D03*
X0435139Y0083219D03*
D38*
X0150788Y0306014D03*
X0160788Y0306014D03*
X0150788Y0296014D03*
X0160788Y0296014D03*
D16*
X0362304Y0367569D03*
X0411910Y0367569D03*
X0395375Y0389223D03*
X0166536Y0150148D03*
X0265847Y0367569D03*
X0166536Y0292668D03*
X0345768Y0367569D03*
D38*
X0448328Y0383318D03*
X0458328Y0383318D03*
X0448328Y0373318D03*
X0458328Y0373318D03*
D16*
X0144883Y0150148D03*
X0150099Y0389223D03*
D38*
X0449804Y0340660D03*
X0459804Y0340660D03*
X0449804Y0330660D03*
X0459804Y0330660D03*
D16*
X0443898Y0343849D03*
X0395375Y0367569D03*
X0144883Y0309203D03*
X0183170Y0367569D03*
D38*
X0349115Y0383318D03*
X0359115Y0383318D03*
X0349115Y0373318D03*
X0359115Y0373318D03*
D11*
X0354430Y0061566D03*
D38*
X0150788Y0180030D03*
X0160788Y0180030D03*
X0150788Y0170030D03*
X0160788Y0170030D03*
D16*
X0232776Y0367569D03*
X0144883Y0166684D03*
D38*
X0120178Y0077314D03*
X0130178Y0077314D03*
X0140178Y0077314D03*
X0153446Y0383318D03*
X0163446Y0383318D03*
X0153446Y0373318D03*
X0163446Y0373318D03*
D16*
X0166536Y0342274D03*
X0144883Y0209991D03*
X0444981Y0389223D03*
X0465552Y0327314D03*
D11*
X0198918Y0075345D03*
D16*
X0216241Y0367569D03*
X0465552Y0343849D03*
X0166536Y0166684D03*
X0265847Y0389223D03*
X0282383Y0367569D03*
D38*
X0219587Y0383318D03*
X0229587Y0383318D03*
X0219587Y0373318D03*
X0229587Y0373318D03*
X0415257Y0383318D03*
X0425257Y0383318D03*
X0415257Y0373318D03*
X0425257Y0373318D03*
X0186517Y0383318D03*
X0196517Y0383318D03*
X0186517Y0373318D03*
X0196517Y0373318D03*
D16*
X0166536Y0276132D03*
X0166635Y0389223D03*
X0144883Y0325739D03*
X0144883Y0133613D03*
D38*
X0150788Y0272944D03*
X0160788Y0272944D03*
X0150788Y0262944D03*
X0160788Y0262944D03*
D16*
X0150099Y0367569D03*
X0298918Y0367569D03*
X0411910Y0389223D03*
D11*
X0354430Y0041881D03*
D16*
X0199706Y0367569D03*
X0216241Y0389223D03*
X0166635Y0367569D03*
X0166536Y0259597D03*
X0166536Y0133613D03*
X0443898Y0310778D03*
X0166536Y0309203D03*
X0144883Y0226526D03*
X0378839Y0367569D03*
X0166536Y0209991D03*
M02*
