G75*
G70*
%OFA0B0*%
%FSLAX25Y25*%
%IPPOS*%
%LPD*%
%AMOC8*
5,1,8,0,0,1.08239X$1,22.5*
%
%ADD23C,0.00787*%
%ADD31C,0.00394*%
X0000000Y0000000D02*
%LPD*%
G01*
D31*
X0606299Y0027560D02*
X0606299Y0598426D01*
X0578740Y0000000D02*
G75*
G03*
X0606299Y0027560I0000000J0027559D01*
G01*
D23*
X0596456Y0023229D02*
G75*
G03*
X0576771Y0023229I-009843J0000000D01*
G01*
X0576771Y0023229D02*
G75*
G03*
X0596456Y0023229I0009843J0000000D01*
G01*
X0596456Y0605906D02*
G75*
G03*
X0576771Y0605906I-009843J0000000D01*
G01*
X0576771Y0605906D02*
G75*
G03*
X0596456Y0605906I0009843J0000000D01*
G01*
D31*
X0606299Y0598426D02*
G75*
G03*
X0578740Y0625985I-027559J0000000D01*
G01*
D23*
X0029527Y0605906D02*
G75*
G03*
X0009842Y0605906I-009843J0000000D01*
G01*
X0009842Y0605906D02*
G75*
G03*
X0029527Y0605906I0009843J0000000D01*
G01*
X0595278Y0283071D02*
G75*
G03*
X0577562Y0283071I-008858J0000000D01*
G01*
X0577562Y0283071D02*
G75*
G03*
X0595278Y0283071I0008858J0000000D01*
G01*
D31*
X0578740Y0625985D02*
X0027559Y0625985D01*
D23*
X0029527Y0020079D02*
G75*
G03*
X0009842Y0020079I-009843J0000000D01*
G01*
X0009842Y0020079D02*
G75*
G03*
X0029527Y0020079I0009843J0000000D01*
G01*
D31*
X0027559Y0000001D02*
X0578740Y0000001D01*
X0000000Y0598426D02*
X0000000Y0027560D01*
X0000000Y0027560D02*
G75*
G03*
X0027559Y0000001I0027559J0000000D01*
G01*
X0027559Y0625985D02*
G75*
G03*
X0000000Y0598426I0000000J-027559D01*
G01*
X0177214Y0154921D02*
X0177165Y0089026D01*
X0177214Y0154921D02*
X0177214Y0324410D01*
X0185039Y0081152D02*
X0196850Y0081152D01*
X0204724Y0073278D02*
X0204724Y0042914D01*
X0334251Y0035089D02*
X0212598Y0035040D01*
X0342125Y0042963D02*
X0342125Y0061468D01*
X0349999Y0069342D02*
X0405748Y0069341D01*
X0401822Y0351969D02*
X0204773Y0351969D01*
X0413633Y0139173D02*
X0413622Y0077215D01*
X0421507Y0147047D02*
X0482332Y0147047D01*
X0429381Y0324410D02*
X0429381Y0294095D01*
X0482332Y0286221D02*
X0437255Y0286221D01*
X0490206Y0154921D02*
X0490206Y0278347D01*
X0204773Y0351969D02*
G75*
G03*
X0177214Y0324410I0000000J-027559D01*
G01*
X0177165Y0089026D02*
G75*
G03*
X0185039Y0081152I0007874J0000000D01*
G01*
X0204724Y0073278D02*
G75*
G03*
X0196850Y0081152I-007874J0000000D01*
G01*
X0204724Y0042914D02*
G75*
G03*
X0212598Y0035040I0007874J0000000D01*
G01*
X0349999Y0069342D02*
G75*
G03*
X0342125Y0061468I0000000J-007874D01*
G01*
X0334251Y0035089D02*
G75*
G03*
X0342125Y0042963I0000000J0007874D01*
G01*
X0429381Y0324410D02*
G75*
G03*
X0401822Y0351969I-027558J0000001D01*
G01*
X0405748Y0069341D02*
G75*
G03*
X0413622Y0077215I0000000J0007874D01*
G01*
X0421507Y0147047D02*
G75*
G03*
X0413633Y0139173I0000000J-007874D01*
G01*
X0429381Y0294095D02*
G75*
G03*
X0437255Y0286221I0007874J0000000D01*
G01*
X0490206Y0278347D02*
G75*
G03*
X0482332Y0286221I-007874J0000000D01*
G01*
X0482332Y0147047D02*
G75*
G03*
X0490206Y0154921I0000001J0007873D01*
G01*
X0108268Y0031939D02*
G01*
G75*
M02*
